<svg xmlns="http://www.w3.org/2000/svg" width="27" height="27" fill="none" viewBox="0 0 27 27"><g clip-path="url(#a)"><path fill="currentColor" d="m26.92 3.052-.04-.322-.323.026C18.732 3.416 13.738.155 13.685.121L13.497 0l-.188.121C13.262.155 8.269 3.409.436 2.756L.114 2.73l-.04.316C.054 3.2-1.792 18.83 13.336 26.919l.154.081.154-.074C28.792 19.511 26.94 3.214 26.92 3.052M13.51 26.247C.134 19 .55 5.674.718 3.456 7.846 3.966 12.517 1.398 13.503.8c.98.598 5.658 3.167 12.786 2.656.167 2.279.61 16.128-12.779 22.791M16.188 6.79h-5.37v2.69H8.135v5.378h2.685v2.69h5.369v-2.69h2.685V9.48h-2.685zm2.013 3.362v4.034h-2.684v2.689H11.49v-2.69H8.805v-4.033h2.685v-2.69h4.027v2.69z"/></g><defs><clipPath id="a"><path fill="#fff" d="M0 0h27v27H0z"/></clipPath></defs></svg>