
<svg width="28" height="28" viewBox="0 0 28 28" fill="none" xmlns="http://www.w3.org/2000/svg">
<mask id="path-1-outside-1_194_1616" maskUnits="userSpaceOnUse" x="-0.824951" y="-0.824951" width="29" height="29" fill="black">
<rect fill="white" x="-0.824951" y="-0.824951" width="29" height="29"/>
<path d="M19.4486 26.9203C19.4486 27.0617 19.334 27.175 19.1939 27.175H1.53391C0.78507 27.175 0.175049 26.565 0.175049 25.8161V2.6369C0.175049 2.49554 0.288394 2.38219 0.429754 2.38219C0.571114 2.38219 0.684459 2.49554 0.684459 2.6369V25.8161C0.684459 26.2848 1.06525 26.6656 1.53391 26.6656H19.1939C19.334 26.6656 19.4486 26.779 19.4486 26.9203ZM20.8533 25.6849C20.8979 25.8187 20.8253 25.9626 20.6916 26.0072C20.5668 26.0492 20.4343 26.0708 20.2968 26.0708H2.6368C1.88796 26.0708 1.27921 25.4608 1.27921 24.7132V1.53397C1.27921 0.785095 1.88923 0.175049 2.6368 0.175049H16.9857C16.9934 0.175049 16.9972 0.18269 17.0048 0.18269C17.0647 0.186511 17.122 0.205615 17.1665 0.248915L21.5806 4.66442C21.6239 4.70773 21.643 4.76631 21.6468 4.82617C21.6468 4.83381 21.6544 4.83763 21.6544 4.84527V12.5707C21.6544 12.7121 21.5398 12.8254 21.3997 12.8254C21.2596 12.8254 21.145 12.7121 21.145 12.5707V5.09991H18.0886C17.3397 5.09991 16.731 4.48986 16.731 3.74099V0.684396H2.63701C2.16835 0.684396 1.78883 1.06521 1.78883 1.53388V24.7131C1.78883 25.1818 2.16962 25.5613 2.63701 25.5613H20.297C20.3811 25.5613 20.4575 25.5499 20.5313 25.5244C20.6651 25.4785 20.8087 25.5512 20.8533 25.6849ZM20.7858 4.58942L17.2403 1.04378V3.73993C17.2403 4.20861 17.6211 4.58942 18.0885 4.58942H20.7858ZM18.0898 13.7083C18.2299 13.7083 18.3445 13.595 18.3445 13.4536V9.25981C18.3445 7.90216 17.2403 6.79798 15.8827 6.79798H7.0521C5.6945 6.79798 4.59036 7.90216 4.59036 9.25981V18.0908C4.59036 19.1479 5.26151 20.0776 6.24594 20.4164V21.9536C6.24594 22.2847 6.44334 22.5764 6.72989 22.6897C6.8254 22.7368 6.93111 22.7597 7.05209 22.7597C7.26604 22.7597 7.47491 22.6744 7.62517 22.5254L9.59278 20.5526H14.8727C15.0128 20.5526 15.1274 20.4393 15.1274 20.2979C15.1274 20.1565 15.0128 20.0432 14.8727 20.0432H9.48585C9.41835 20.0432 9.3534 20.0699 9.30501 20.1183L7.26482 22.165C7.18077 22.2478 7.05978 22.2809 6.93626 22.2248C6.82801 22.1815 6.75542 22.0733 6.75542 21.9536V20.2266C6.75542 20.1107 6.67646 20.0088 6.56439 19.9795C5.70222 19.7592 5.09983 18.9823 5.09983 18.0908V9.25975C5.09983 8.18357 5.97601 7.30734 7.05215 7.30734H15.8828C16.9589 7.30734 17.8351 8.18357 17.8351 9.25975V13.4536C17.8351 13.5949 17.9497 13.7083 18.0898 13.7083ZM27.175 19.1936C27.175 22.3775 24.5847 24.968 21.4009 24.968C18.2183 24.968 15.628 22.3775 15.628 19.1936C15.628 16.0096 18.2183 13.4204 21.4009 13.4204C24.5847 13.4204 27.175 16.0109 27.175 19.1936ZM26.6656 19.1936C26.6656 16.2911 24.3032 13.9297 21.401 13.9297C18.4987 13.9297 16.1374 16.2909 16.1374 19.1936C16.1374 22.096 18.4985 24.4584 21.401 24.4584C24.3034 24.4584 26.6656 22.0972 26.6656 19.1936ZM26.0722 19.1936C26.0722 19.4343 25.9652 19.661 25.7805 19.8138L22.4708 22.5723C22.3281 22.6933 22.1447 22.7596 21.955 22.7596C21.8353 22.7596 21.7207 22.7341 21.6137 22.6844C21.3297 22.552 21.1476 22.2654 21.1476 21.9534V20.5524H18.6438C18.1993 20.5524 17.8364 20.1907 17.8364 19.7462V18.6421C17.8364 18.1976 18.1981 17.8359 18.6438 17.8359H21.1476V16.4349C21.1476 16.1229 21.3309 15.8364 21.6137 15.7039C21.8977 15.5714 22.2339 15.616 22.4708 15.816L25.7818 18.5745C25.9665 18.7274 26.0722 18.9542 26.0722 19.1936ZM25.5628 19.1936C25.5628 19.1044 25.5246 19.0216 25.4558 18.9656L22.1447 16.207C22.0568 16.1332 21.9308 16.1166 21.8289 16.1663C21.7257 16.2147 21.6582 16.3204 21.6582 16.435V18.0907C21.6582 18.232 21.5436 18.3454 21.4035 18.3454H18.6451C18.4808 18.3454 18.3471 18.4791 18.3471 18.6421V19.7463C18.3471 19.9106 18.4808 20.043 18.6451 20.043H21.4035C21.5436 20.043 21.6582 20.1564 21.6582 20.2978V21.9534C21.6582 22.068 21.7257 22.1737 21.8301 22.2221C21.9308 22.2705 22.0594 22.2527 22.1447 22.1814L25.4571 19.4215C25.5259 19.3642 25.5641 19.2814 25.5641 19.1936L25.5628 19.1936ZM15.8838 10.1092H9.26163C9.12027 10.1092 9.00693 10.2226 9.00693 10.3639C9.00693 10.5053 9.12027 10.6186 9.26163 10.6186H15.8838C16.0239 10.6186 16.1385 10.5053 16.1385 10.3639C16.1385 10.2226 16.0239 10.1092 15.8838 10.1092ZM15.8838 12.3163H7.05316C6.9118 12.3163 6.79845 12.4297 6.79845 12.571C6.79845 12.7124 6.9118 12.8258 7.05316 12.8258H15.8838C16.0239 12.8258 16.1385 12.7124 16.1385 12.571C16.1385 12.4297 16.0239 12.3163 15.8838 12.3163ZM16.1385 14.7794C16.1385 14.6381 16.0239 14.5247 15.8838 14.5247H7.05316C6.9118 14.5247 6.79845 14.6381 6.79845 14.7794C6.79845 14.9208 6.9118 15.0341 7.05316 15.0341H15.8838C16.0239 15.0341 16.1385 14.9208 16.1385 14.7794ZM7.05324 16.7318C6.91188 16.7318 6.79853 16.8452 6.79853 16.9865C6.79853 17.1279 6.91188 17.2413 7.05324 17.2413H13.6754C13.8168 17.2413 13.9301 17.1279 13.9301 16.9865C13.9301 16.8452 13.8168 16.7318 13.6754 16.7318H7.05324Z"/>
</mask>
<path d="M19.4486 26.9203C19.4486 27.0617 19.334 27.175 19.1939 27.175H1.53391C0.78507 27.175 0.175049 26.565 0.175049 25.8161V2.6369C0.175049 2.49554 0.288394 2.38219 0.429754 2.38219C0.571114 2.38219 0.684459 2.49554 0.684459 2.6369V25.8161C0.684459 26.2848 1.06525 26.6656 1.53391 26.6656H19.1939C19.334 26.6656 19.4486 26.779 19.4486 26.9203ZM20.8533 25.6849C20.8979 25.8187 20.8253 25.9626 20.6916 26.0072C20.5668 26.0492 20.4343 26.0708 20.2968 26.0708H2.6368C1.88796 26.0708 1.27921 25.4608 1.27921 24.7132V1.53397C1.27921 0.785095 1.88923 0.175049 2.6368 0.175049H16.9857C16.9934 0.175049 16.9972 0.18269 17.0048 0.18269C17.0647 0.186511 17.122 0.205615 17.1665 0.248915L21.5806 4.66442C21.6239 4.70773 21.643 4.76631 21.6468 4.82617C21.6468 4.83381 21.6544 4.83763 21.6544 4.84527V12.5707C21.6544 12.7121 21.5398 12.8254 21.3997 12.8254C21.2596 12.8254 21.145 12.7121 21.145 12.5707V5.09991H18.0886C17.3397 5.09991 16.731 4.48986 16.731 3.74099V0.684396H2.63701C2.16835 0.684396 1.78883 1.06521 1.78883 1.53388V24.7131C1.78883 25.1818 2.16962 25.5613 2.63701 25.5613H20.297C20.3811 25.5613 20.4575 25.5499 20.5313 25.5244C20.6651 25.4785 20.8087 25.5512 20.8533 25.6849ZM20.7858 4.58942L17.2403 1.04378V3.73993C17.2403 4.20861 17.6211 4.58942 18.0885 4.58942H20.7858ZM18.0898 13.7083C18.2299 13.7083 18.3445 13.595 18.3445 13.4536V9.25981C18.3445 7.90216 17.2403 6.79798 15.8827 6.79798H7.0521C5.6945 6.79798 4.59036 7.90216 4.59036 9.25981V18.0908C4.59036 19.1479 5.26151 20.0776 6.24594 20.4164V21.9536C6.24594 22.2847 6.44334 22.5764 6.72989 22.6897C6.8254 22.7368 6.93111 22.7597 7.05209 22.7597C7.26604 22.7597 7.47491 22.6744 7.62517 22.5254L9.59278 20.5526H14.8727C15.0128 20.5526 15.1274 20.4393 15.1274 20.2979C15.1274 20.1565 15.0128 20.0432 14.8727 20.0432H9.48585C9.41835 20.0432 9.3534 20.0699 9.30501 20.1183L7.26482 22.165C7.18077 22.2478 7.05978 22.2809 6.93626 22.2248C6.82801 22.1815 6.75542 22.0733 6.75542 21.9536V20.2266C6.75542 20.1107 6.67646 20.0088 6.56439 19.9795C5.70222 19.7592 5.09983 18.9823 5.09983 18.0908V9.25975C5.09983 8.18357 5.97601 7.30734 7.05215 7.30734H15.8828C16.9589 7.30734 17.8351 8.18357 17.8351 9.25975V13.4536C17.8351 13.5949 17.9497 13.7083 18.0898 13.7083ZM27.175 19.1936C27.175 22.3775 24.5847 24.968 21.4009 24.968C18.2183 24.968 15.628 22.3775 15.628 19.1936C15.628 16.0096 18.2183 13.4204 21.4009 13.4204C24.5847 13.4204 27.175 16.0109 27.175 19.1936ZM26.6656 19.1936C26.6656 16.2911 24.3032 13.9297 21.401 13.9297C18.4987 13.9297 16.1374 16.2909 16.1374 19.1936C16.1374 22.096 18.4985 24.4584 21.401 24.4584C24.3034 24.4584 26.6656 22.0972 26.6656 19.1936ZM26.0722 19.1936C26.0722 19.4343 25.9652 19.661 25.7805 19.8138L22.4708 22.5723C22.3281 22.6933 22.1447 22.7596 21.955 22.7596C21.8353 22.7596 21.7207 22.7341 21.6137 22.6844C21.3297 22.552 21.1476 22.2654 21.1476 21.9534V20.5524H18.6438C18.1993 20.5524 17.8364 20.1907 17.8364 19.7462V18.6421C17.8364 18.1976 18.1981 17.8359 18.6438 17.8359H21.1476V16.4349C21.1476 16.1229 21.3309 15.8364 21.6137 15.7039C21.8977 15.5714 22.2339 15.616 22.4708 15.816L25.7818 18.5745C25.9665 18.7274 26.0722 18.9542 26.0722 19.1936ZM25.5628 19.1936C25.5628 19.1044 25.5246 19.0216 25.4558 18.9656L22.1447 16.207C22.0568 16.1332 21.9308 16.1166 21.8289 16.1663C21.7257 16.2147 21.6582 16.3204 21.6582 16.435V18.0907C21.6582 18.232 21.5436 18.3454 21.4035 18.3454H18.6451C18.4808 18.3454 18.3471 18.4791 18.3471 18.6421V19.7463C18.3471 19.9106 18.4808 20.043 18.6451 20.043H21.4035C21.5436 20.043 21.6582 20.1564 21.6582 20.2978V21.9534C21.6582 22.068 21.7257 22.1737 21.8301 22.2221C21.9308 22.2705 22.0594 22.2527 22.1447 22.1814L25.4571 19.4215C25.5259 19.3642 25.5641 19.2814 25.5641 19.1936L25.5628 19.1936ZM15.8838 10.1092H9.26163C9.12027 10.1092 9.00693 10.2226 9.00693 10.3639C9.00693 10.5053 9.12027 10.6186 9.26163 10.6186H15.8838C16.0239 10.6186 16.1385 10.5053 16.1385 10.3639C16.1385 10.2226 16.0239 10.1092 15.8838 10.1092ZM15.8838 12.3163H7.05316C6.9118 12.3163 6.79845 12.4297 6.79845 12.571C6.79845 12.7124 6.9118 12.8258 7.05316 12.8258H15.8838C16.0239 12.8258 16.1385 12.7124 16.1385 12.571C16.1385 12.4297 16.0239 12.3163 15.8838 12.3163ZM16.1385 14.7794C16.1385 14.6381 16.0239 14.5247 15.8838 14.5247H7.05316C6.9118 14.5247 6.79845 14.6381 6.79845 14.7794C6.79845 14.9208 6.9118 15.0341 7.05316 15.0341H15.8838C16.0239 15.0341 16.1385 14.9208 16.1385 14.7794ZM7.05324 16.7318C6.91188 16.7318 6.79853 16.8452 6.79853 16.9865C6.79853 17.1279 6.91188 17.2413 7.05324 17.2413H13.6754C13.8168 17.2413 13.9301 17.1279 13.9301 16.9865C13.9301 16.8452 13.8168 16.7318 13.6754 16.7318H7.05324Z" fill="currentColor"/>
<path d="M19.4486 26.9203C19.4486 27.0617 19.334 27.175 19.1939 27.175H1.53391C0.78507 27.175 0.175049 26.565 0.175049 25.8161V2.6369C0.175049 2.49554 0.288394 2.38219 0.429754 2.38219C0.571114 2.38219 0.684459 2.49554 0.684459 2.6369V25.8161C0.684459 26.2848 1.06525 26.6656 1.53391 26.6656H19.1939C19.334 26.6656 19.4486 26.779 19.4486 26.9203ZM20.8533 25.6849C20.8979 25.8187 20.8253 25.9626 20.6916 26.0072C20.5668 26.0492 20.4343 26.0708 20.2968 26.0708H2.6368C1.88796 26.0708 1.27921 25.4608 1.27921 24.7132V1.53397C1.27921 0.785095 1.88923 0.175049 2.6368 0.175049H16.9857C16.9934 0.175049 16.9972 0.18269 17.0048 0.18269C17.0647 0.186511 17.122 0.205615 17.1665 0.248915L21.5806 4.66442C21.6239 4.70773 21.643 4.76631 21.6468 4.82617C21.6468 4.83381 21.6544 4.83763 21.6544 4.84527V12.5707C21.6544 12.7121 21.5398 12.8254 21.3997 12.8254C21.2596 12.8254 21.145 12.7121 21.145 12.5707V5.09991H18.0886C17.3397 5.09991 16.731 4.48986 16.731 3.74099V0.684396H2.63701C2.16835 0.684396 1.78883 1.06521 1.78883 1.53388V24.7131C1.78883 25.1818 2.16962 25.5613 2.63701 25.5613H20.297C20.3811 25.5613 20.4575 25.5499 20.5313 25.5244C20.6651 25.4785 20.8087 25.5512 20.8533 25.6849ZM20.7858 4.58942L17.2403 1.04378V3.73993C17.2403 4.20861 17.6211 4.58942 18.0885 4.58942H20.7858ZM18.0898 13.7083C18.2299 13.7083 18.3445 13.595 18.3445 13.4536V9.25981C18.3445 7.90216 17.2403 6.79798 15.8827 6.79798H7.0521C5.6945 6.79798 4.59036 7.90216 4.59036 9.25981V18.0908C4.59036 19.1479 5.26151 20.0776 6.24594 20.4164V21.9536C6.24594 22.2847 6.44334 22.5764 6.72989 22.6897C6.8254 22.7368 6.93111 22.7597 7.05209 22.7597C7.26604 22.7597 7.47491 22.6744 7.62517 22.5254L9.59278 20.5526H14.8727C15.0128 20.5526 15.1274 20.4393 15.1274 20.2979C15.1274 20.1565 15.0128 20.0432 14.8727 20.0432H9.48585C9.41835 20.0432 9.3534 20.0699 9.30501 20.1183L7.26482 22.165C7.18077 22.2478 7.05978 22.2809 6.93626 22.2248C6.82801 22.1815 6.75542 22.0733 6.75542 21.9536V20.2266C6.75542 20.1107 6.67646 20.0088 6.56439 19.9795C5.70222 19.7592 5.09983 18.9823 5.09983 18.0908V9.25975C5.09983 8.18357 5.97601 7.30734 7.05215 7.30734H15.8828C16.9589 7.30734 17.8351 8.18357 17.8351 9.25975V13.4536C17.8351 13.5949 17.9497 13.7083 18.0898 13.7083ZM27.175 19.1936C27.175 22.3775 24.5847 24.968 21.4009 24.968C18.2183 24.968 15.628 22.3775 15.628 19.1936C15.628 16.0096 18.2183 13.4204 21.4009 13.4204C24.5847 13.4204 27.175 16.0109 27.175 19.1936ZM26.6656 19.1936C26.6656 16.2911 24.3032 13.9297 21.401 13.9297C18.4987 13.9297 16.1374 16.2909 16.1374 19.1936C16.1374 22.096 18.4985 24.4584 21.401 24.4584C24.3034 24.4584 26.6656 22.0972 26.6656 19.1936ZM26.0722 19.1936C26.0722 19.4343 25.9652 19.661 25.7805 19.8138L22.4708 22.5723C22.3281 22.6933 22.1447 22.7596 21.955 22.7596C21.8353 22.7596 21.7207 22.7341 21.6137 22.6844C21.3297 22.552 21.1476 22.2654 21.1476 21.9534V20.5524H18.6438C18.1993 20.5524 17.8364 20.1907 17.8364 19.7462V18.6421C17.8364 18.1976 18.1981 17.8359 18.6438 17.8359H21.1476V16.4349C21.1476 16.1229 21.3309 15.8364 21.6137 15.7039C21.8977 15.5714 22.2339 15.616 22.4708 15.816L25.7818 18.5745C25.9665 18.7274 26.0722 18.9542 26.0722 19.1936ZM25.5628 19.1936C25.5628 19.1044 25.5246 19.0216 25.4558 18.9656L22.1447 16.207C22.0568 16.1332 21.9308 16.1166 21.8289 16.1663C21.7257 16.2147 21.6582 16.3204 21.6582 16.435V18.0907C21.6582 18.232 21.5436 18.3454 21.4035 18.3454H18.6451C18.4808 18.3454 18.3471 18.4791 18.3471 18.6421V19.7463C18.3471 19.9106 18.4808 20.043 18.6451 20.043H21.4035C21.5436 20.043 21.6582 20.1564 21.6582 20.2978V21.9534C21.6582 22.068 21.7257 22.1737 21.8301 22.2221C21.9308 22.2705 22.0594 22.2527 22.1447 22.1814L25.4571 19.4215C25.5259 19.3642 25.5641 19.2814 25.5641 19.1936L25.5628 19.1936ZM15.8838 10.1092H9.26163C9.12027 10.1092 9.00693 10.2226 9.00693 10.3639C9.00693 10.5053 9.12027 10.6186 9.26163 10.6186H15.8838C16.0239 10.6186 16.1385 10.5053 16.1385 10.3639C16.1385 10.2226 16.0239 10.1092 15.8838 10.1092ZM15.8838 12.3163H7.05316C6.9118 12.3163 6.79845 12.4297 6.79845 12.571C6.79845 12.7124 6.9118 12.8258 7.05316 12.8258H15.8838C16.0239 12.8258 16.1385 12.7124 16.1385 12.571C16.1385 12.4297 16.0239 12.3163 15.8838 12.3163ZM16.1385 14.7794C16.1385 14.6381 16.0239 14.5247 15.8838 14.5247H7.05316C6.9118 14.5247 6.79845 14.6381 6.79845 14.7794C6.79845 14.9208 6.9118 15.0341 7.05316 15.0341H15.8838C16.0239 15.0341 16.1385 14.9208 16.1385 14.7794ZM7.05324 16.7318C6.91188 16.7318 6.79853 16.8452 6.79853 16.9865C6.79853 17.1279 6.91188 17.2413 7.05324 17.2413H13.6754C13.8168 17.2413 13.9301 17.1279 13.9301 16.9865C13.9301 16.8452 13.8168 16.7318 13.6754 16.7318H7.05324Z" stroke="currentColor" stroke-width="0.35" mask="url(#path-1-outside-1_194_1616)"/>
</svg>