<svg xmlns="http://www.w3.org/2000/svg" width="28" height="27" fill="none" viewBox="0 0 28 27"><g fill="currentColor" clip-path="url(#a)"><path d="M6.669 9.236c.898 0 1.62.737 1.62 1.654 0 .918-.722 1.655-1.62 1.655s-1.62-.737-1.62-1.655c0-.917.722-1.654 1.62-1.654M10.776 17.328 8.7 16.621S7.552 13.9 7.508 13.808c-.28-.511-.81-.872-1.413-.872-.25 0-.486.06-.692.165L2.576 14.23a.82.82 0 0 0-.441.452l-1.016 2.482c-.162.406.015.902.441 1.068.104.045.207.06.31.06a.78.78 0 0 0 .75-.512l.825-2.15.854-.332L2.9 22.263l-2.709 3.37a.84.84 0 0 0 .103 1.157.79.79 0 0 0 1.134-.135l2.826-3.505c.074-.105.148-.225.162-.346l.486-2.391 2.179 1.61v4.136c0 .45.368.827.81.827.441 0 .81-.376.81-.827v-4.543a.8.8 0 0 0-.325-.662L6.42 19.48l.544-2.783.383.903a.85.85 0 0 0 .486.451l2.429.827c.073.015.162.046.265.046a.83.83 0 0 0 .765-.557.827.827 0 0 0-.5-1.053M24.82 1.76c.81 0 1.458.662 1.458 1.489s-.648 1.49-1.458 1.49-1.457-.663-1.457-1.49.648-1.49 1.457-1.49M28 3.249C28 1.203 26.145-.406 24.07.09c-1.06.256-1.944 1.113-2.282 2.166a3.3 3.3 0 0 0 .132 2.332l2.473 5.204a.472.472 0 0 0 .854 0l2.473-5.204c.177-.406.295-.858.295-1.339M20.728 10.394 20.58 8.89c.913-.09 1.546-.106 1.546-.106l.03 1.505s-.59 0-1.414.105m-2.797.496-.368-1.459a21 21 0 0 1 1.502-.33l.25 1.488c-.442.076-.913.18-1.384.301m-2.473 1.053-.839-1.233a7.7 7.7 0 0 1 1.443-.782l.56 1.398c-.457.181-.84.392-1.164.617m-2.547 1.896c0-.723.162-1.31.471-1.836l1.266.783c-.176.3-.25.601-.25.962l-1.472.106zm2.002 2.933c-.559-.361-.986-.722-1.295-1.128l1.148-.948c.221.27.516.526.942.797l-.78 1.279zm2.768 1.353c-.471-.195-.942-.39-1.384-.601l.619-1.37c.427.196.868.392 1.325.573zm2.694 1.143a59 59 0 0 0-1.325-.586l.56-1.399c.47.196.942.406 1.383.617zm2.238 1.475a6 6 0 0 0-1.016-.813l.78-1.278c.53.33.942.677 1.296 1.038l-1.046 1.053zm2.12 2.376-1.428-.346c.03-.105.044-.225.044-.346 0-.255-.03-.481-.118-.707l1.398-.496a3.6 3.6 0 0 1 .118 1.895m-2.458 2.542-.589-1.384a4 4 0 0 0 1.06-.661l.971 1.128a5.2 5.2 0 0 1-1.442.902m-3.003.873-.25-1.49c.47-.09.942-.18 1.369-.3l.382 1.459c-.47.135-.986.24-1.501.33m-3.003.346-.089-1.505c.471-.03.957-.075 1.428-.12l.162 1.49q-.75.09-1.501.135m-4.49.06c-.692-.015-1.222-.06-1.502-.075l.088-1.505c.265.015.78.046 1.443.076l-.044 1.504zm1.678.03h-.177V25.45h.177c.397 0 .824 0 1.266-.015l.044 1.504c-.456 0-.898.015-1.31.015"/></g><defs><clipPath id="a"><path fill="#fff" d="M0 0h28v27H0z"/></clipPath></defs></svg>