
<svg width="26" height="26" viewBox="0 0 26 26" fill="none" xmlns="http://www.w3.org/2000/svg">
<path d="M13.6938 4.21606C13.9515 4.21616 14.1949 4.3047 14.3931 4.4729L14.4751 4.55005L14.4761 4.55103C14.6786 4.76486 14.7842 5.04566 14.77 5.34302L14.2349 16.343C14.199 17.1079 13.5676 17.7073 12.8032 17.7073C12.0383 17.7071 11.4098 17.1072 11.3716 16.343L10.8374 5.34399V5.23364C10.8502 4.97909 10.9544 4.73789 11.1313 4.55103C11.3353 4.33599 11.6112 4.21608 11.9087 4.21606H13.6938ZM11.9097 5.1272C11.8622 5.12728 11.8206 5.14466 11.7896 5.177L11.7866 5.17993C11.7566 5.20933 11.7417 5.24745 11.7437 5.29712L12.2778 16.2961L12.2788 16.2971C12.2901 16.5755 12.5205 16.7942 12.8003 16.7942C13.0783 16.794 13.3074 16.5758 13.3218 16.2961L13.8608 5.29712C13.8615 5.25031 13.8454 5.20868 13.8149 5.177C13.7838 5.14462 13.7424 5.12724 13.6948 5.1272H11.9097Z" fill="currentColor" stroke="currentColor" stroke-width="0.3"/>
<path d="M12.7998 18.0999C13.704 18.0999 14.4403 18.8349 14.4404 19.7405C14.4404 20.6449 13.7042 21.3811 12.7998 21.3811C11.8955 21.381 11.1592 20.6448 11.1592 19.7405C11.1593 18.8363 11.8956 18.1 12.7998 18.0999ZM12.7998 19.012C12.3979 19.0121 12.0684 19.3395 12.0684 19.7434C12.0685 20.1453 12.396 20.4747 12.7998 20.4749C13.2037 20.4749 13.5311 20.1454 13.5312 19.7434C13.5312 19.3416 13.2016 19.012 12.7998 19.012Z" fill="currentColor" stroke="currentColor" stroke-width="0.3"/>
<path d="M12.8 0.149658C19.7763 0.149658 25.4504 5.82377 25.4504 12.8C25.4504 19.7763 19.7763 25.4504 12.8 25.4504C5.82377 25.4504 0.149658 19.7763 0.149658 12.8C0.149658 5.82377 5.82377 0.149658 12.8 0.149658ZM12.8 1.05884C6.32633 1.05884 1.05884 6.32633 1.05884 12.8C1.05884 19.2738 6.32664 24.5413 12.8 24.5413C19.2738 24.5413 24.5413 19.2738 24.5413 12.8C24.5413 6.32633 19.2738 1.05884 12.8 1.05884Z" fill="currentColor" stroke="currentColor" stroke-width="0.3"/>
</svg>