
<svg width="26" height="26" viewBox="0 0 26 26" fill="none" xmlns="http://www.w3.org/2000/svg">
<mask id="path-1-outside-1_190_1185" maskUnits="userSpaceOnUse" x="-0.800049" y="-0.800049" width="27" height="27" fill="black">
<rect fill="white" x="-0.800049" y="-0.800049" width="27" height="27"/>
<path d="M23.3396 9.53133C22.5945 8.78616 21.6922 8.2424 20.7041 7.94835C21.5633 7.51871 22.2575 6.78831 22.6374 5.86457C22.6804 5.76387 22.7234 5.65646 22.7515 5.55711C22.8804 5.14895 22.9516 4.726 22.9516 4.29636C22.9516 2.49855 21.7553 0.887383 20.0368 0.371809C19.6568 0.257685 19.2635 0.199951 18.8553 0.199951C16.5931 0.199951 14.7591 2.04072 14.7591 4.29636C14.7591 5.90753 15.6895 7.29717 17.0428 7.96312C16.3836 8.16317 15.7539 8.46391 15.1887 8.87208C14.8383 8.65054 14.4583 8.45721 14.0502 8.33502C13.6138 8.20613 13.1627 8.14168 12.6968 8.14168C11.7798 8.14168 10.9287 8.41424 10.205 8.86537C9.63976 8.45721 9.0235 8.15646 8.37235 7.95642C9.23161 7.52677 9.9338 6.79638 10.3124 5.86594C10.3554 5.76524 10.3983 5.65783 10.4265 5.55847C10.5554 5.15031 10.6266 4.72737 10.6266 4.29772C10.6266 2.49992 9.43029 0.888748 7.71177 0.373174C7.33181 0.25905 6.93844 0.201316 6.53029 0.201316C4.26803 0.201316 2.43403 2.04209 2.43403 4.29772C2.43403 5.90219 3.35773 7.28376 4.69629 7.94971C2.07554 8.72977 0.199951 11.1358 0.199951 14.0077V14.6804C0.199951 14.8804 0.357034 15.0388 0.558435 15.0388H8.57086C9.05016 15.9263 9.80201 16.6433 10.719 17.0649C7.64716 17.9242 5.42769 20.7169 5.42769 24.0681V24.8415C5.42769 25.0415 5.58477 25.2 5.78617 25.2H19.6203C19.8203 25.2 19.9787 25.0429 19.9787 24.8415V24.0681C19.9787 23.3377 19.8713 22.614 19.6565 21.9199C19.3128 20.7961 18.6899 19.7649 17.8454 18.9191C16.9499 18.0235 15.8624 17.3938 14.6809 17.0649C15.5831 16.6419 16.335 15.9411 16.8143 15.0388H24.8415C25.0415 15.0388 25.2 14.8818 25.2 14.6804V14.0077C25.2 13.378 25.1073 12.747 24.9207 12.1454C24.62 11.164 24.0762 10.2617 23.3391 9.53131L23.3396 9.53133ZM15.4774 4.28967C15.4774 2.42071 16.9959 0.910251 18.8567 0.910251C19.1937 0.910251 19.5226 0.959927 19.83 1.05391C21.2478 1.48356 22.236 2.81546 22.236 4.29773C22.236 4.64815 22.1782 4.99995 22.0708 5.33558C22.0426 5.4148 22.0131 5.49267 21.9782 5.5786C21.4559 6.84605 20.2315 7.66908 18.8486 7.66908C18.7989 7.66908 18.756 7.66908 18.6982 7.66237C16.8951 7.58315 15.4774 6.10088 15.4774 4.28967ZM3.1391 4.28967C3.1391 2.42071 4.65758 0.910251 6.51839 0.910251C6.85538 0.910251 7.18432 0.959927 7.49176 1.05391C8.90954 1.48356 9.89769 2.81546 9.89769 4.29773C9.89769 4.64815 9.83996 4.99995 9.73255 5.33558C9.70436 5.4148 9.67482 5.49267 9.63991 5.5786C9.11765 6.84605 7.89321 7.66908 6.51032 7.66908C6.46064 7.66908 6.41768 7.66908 6.35995 7.66237C4.56488 7.58315 3.1391 6.10088 3.1391 4.28967ZM8.25169 14.322H0.905019V14.0065C0.905019 10.9493 3.29617 8.47889 6.3895 8.39296C6.43247 8.38624 6.48214 8.38624 6.5251 8.38624C7.62736 8.38624 8.67996 8.70177 9.59026 9.30328C9.56206 9.33147 9.54058 9.36101 9.51104 9.3825C9.43989 9.45366 9.36067 9.52616 9.28952 9.59732C9.25327 9.64028 9.2103 9.68325 9.1754 9.7195C9.10424 9.79871 9.0398 9.88464 8.97535 9.97057C8.94716 10.0135 8.91091 10.0498 8.88271 10.0928C8.81827 10.1854 8.75382 10.2794 8.69609 10.3787C8.67461 10.415 8.64642 10.458 8.62493 10.4929C8.5672 10.5936 8.51081 10.701 8.45979 10.8084C8.43831 10.8446 8.42354 10.8876 8.40206 10.9225C8.35239 11.0299 8.31614 11.1373 8.27317 11.2447C8.25841 11.2877 8.23692 11.3307 8.2235 11.3736C8.1953 11.4743 8.16577 11.5737 8.13757 11.6744C8.1228 11.7321 8.10938 11.7885 8.09461 11.8462C8.07984 11.9174 8.07313 11.9899 8.05836 12.0611C8.0154 12.3041 7.99391 12.5552 7.99391 12.8129C7.99391 12.8344 8.00063 12.8559 8.00063 12.8774C8.00063 13.0774 8.02211 13.2788 8.0503 13.4722C8.05702 13.5299 8.06507 13.5863 8.0785 13.644C8.11475 13.8589 8.17114 14.0589 8.23558 14.2603C8.24498 14.2858 8.24498 14.3073 8.25169 14.322ZM18.9643 22.1268C19.1576 22.7565 19.2502 23.409 19.2502 24.0669V24.4818L6.13311 24.4831V24.0683C6.13311 20.5022 8.91093 17.6305 12.4916 17.5095H12.4983H12.5346C12.5776 17.5028 12.6272 17.5028 12.6783 17.5028H12.6997C14.4545 17.5028 16.1005 18.1835 17.3397 19.4295C18.0903 20.1787 18.6568 21.1171 18.9643 22.1268ZM12.6917 16.7844C12.6339 16.7844 12.5843 16.7844 12.5131 16.7777C10.9382 16.7066 9.62787 15.7399 9.03997 14.3784C9.0252 14.3354 9.00372 14.2992 8.99029 14.2562C8.91108 14.0481 8.83992 13.8333 8.79696 13.6051C8.79696 13.5903 8.79025 13.5688 8.79025 13.5554C8.74728 13.3124 8.71909 13.068 8.71909 12.8102C8.71909 12.739 8.7258 12.6746 8.7258 12.6102C8.73251 12.539 8.73251 12.4598 8.74057 12.3886C8.74728 12.3242 8.76205 12.2597 8.76876 12.1953C8.78353 12.1093 8.79696 12.0234 8.81844 11.9375C8.83321 11.8878 8.84663 11.8301 8.8614 11.7804C8.8896 11.6878 8.91914 11.5871 8.94733 11.4944C8.9621 11.4515 8.97552 11.4085 8.99029 11.3722C9.03326 11.2648 9.08293 11.1507 9.13395 11.05C9.14872 11.0285 9.15543 11.007 9.1702 10.9788C9.3058 10.7143 9.47765 10.4633 9.67098 10.2417C9.69246 10.2203 9.71394 10.1988 9.72871 10.1773C9.80792 10.0914 9.88579 10.0054 9.97172 9.92622C9.99991 9.89803 10.0362 9.86849 10.0644 9.84029C10.1436 9.76913 10.2362 9.69663 10.3221 9.63218C10.9814 9.13809 11.7977 8.84404 12.6851 8.84404C13.0785 8.84404 13.4651 8.90178 13.8303 9.00919C14.2452 9.13137 14.6251 9.32471 14.9688 9.56773C14.9756 9.56773 14.9756 9.57444 14.9756 9.5825C15.0185 9.61875 15.0615 9.65366 15.1044 9.68991C15.2051 9.76912 15.3045 9.847 15.3985 9.93292C15.4481 9.97589 15.4911 10.0256 15.5341 10.0766C15.6267 10.1773 15.7207 10.2766 15.7986 10.3841C15.8268 10.427 15.863 10.4633 15.8912 10.5062C16.1208 10.8218 16.2994 11.1655 16.4282 11.5307C16.435 11.5589 16.4497 11.5951 16.4564 11.6233C16.5061 11.7804 16.5491 11.9456 16.5786 12.1107C16.5853 12.147 16.5934 12.1819 16.6001 12.2181C16.6283 12.4115 16.6498 12.6115 16.6498 12.8196C16.6498 12.9982 16.635 13.17 16.6068 13.3419C16.5706 13.5782 16.5276 13.8145 16.4497 14.0508C16.435 14.1153 16.4068 14.1864 16.3786 14.2589C16.3719 14.2804 16.3638 14.3086 16.3504 14.3301C15.7489 15.8177 14.3096 16.7844 12.6917 16.7844ZM24.4783 14.322H17.1316C17.1316 14.3153 17.1316 14.3153 17.1383 14.3072C17.1451 14.2925 17.1531 14.271 17.1598 14.2576C17.239 14.0213 17.2887 13.785 17.3317 13.542C17.3679 13.2989 17.3894 13.0626 17.3894 12.8183C17.3894 12.582 17.3679 12.3456 17.3317 12.116C17.325 12.0798 17.3169 12.0449 17.3169 12.0153C17.2377 11.5575 17.0873 11.1131 16.8725 10.6982C16.8577 10.67 16.8443 10.6486 16.8362 10.619C16.6214 10.2256 16.357 9.86043 16.0347 9.53012L15.8051 9.30053C16.6711 8.73529 17.674 8.42646 18.7481 8.38349H18.8126H18.8555C20.3525 8.34724 21.7837 8.96351 22.8511 10.0309C23.5022 10.6821 23.9829 11.485 24.2474 12.3443C24.4125 12.8814 24.4984 13.4399 24.4984 13.9984L24.4998 14.322H24.4783Z"/>
</mask>
<path d="M23.3396 9.53133C22.5945 8.78616 21.6922 8.2424 20.7041 7.94835C21.5633 7.51871 22.2575 6.78831 22.6374 5.86457C22.6804 5.76387 22.7234 5.65646 22.7515 5.55711C22.8804 5.14895 22.9516 4.726 22.9516 4.29636C22.9516 2.49855 21.7553 0.887383 20.0368 0.371809C19.6568 0.257685 19.2635 0.199951 18.8553 0.199951C16.5931 0.199951 14.7591 2.04072 14.7591 4.29636C14.7591 5.90753 15.6895 7.29717 17.0428 7.96312C16.3836 8.16317 15.7539 8.46391 15.1887 8.87208C14.8383 8.65054 14.4583 8.45721 14.0502 8.33502C13.6138 8.20613 13.1627 8.14168 12.6968 8.14168C11.7798 8.14168 10.9287 8.41424 10.205 8.86537C9.63976 8.45721 9.0235 8.15646 8.37235 7.95642C9.23161 7.52677 9.9338 6.79638 10.3124 5.86594C10.3554 5.76524 10.3983 5.65783 10.4265 5.55847C10.5554 5.15031 10.6266 4.72737 10.6266 4.29772C10.6266 2.49992 9.43029 0.888748 7.71177 0.373174C7.33181 0.25905 6.93844 0.201316 6.53029 0.201316C4.26803 0.201316 2.43403 2.04209 2.43403 4.29772C2.43403 5.90219 3.35773 7.28376 4.69629 7.94971C2.07554 8.72977 0.199951 11.1358 0.199951 14.0077V14.6804C0.199951 14.8804 0.357034 15.0388 0.558435 15.0388H8.57086C9.05016 15.9263 9.80201 16.6433 10.719 17.0649C7.64716 17.9242 5.42769 20.7169 5.42769 24.0681V24.8415C5.42769 25.0415 5.58477 25.2 5.78617 25.2H19.6203C19.8203 25.2 19.9787 25.0429 19.9787 24.8415V24.0681C19.9787 23.3377 19.8713 22.614 19.6565 21.9199C19.3128 20.7961 18.6899 19.7649 17.8454 18.9191C16.9499 18.0235 15.8624 17.3938 14.6809 17.0649C15.5831 16.6419 16.335 15.9411 16.8143 15.0388H24.8415C25.0415 15.0388 25.2 14.8818 25.2 14.6804V14.0077C25.2 13.378 25.1073 12.747 24.9207 12.1454C24.62 11.164 24.0762 10.2617 23.3391 9.53131L23.3396 9.53133ZM15.4774 4.28967C15.4774 2.42071 16.9959 0.910251 18.8567 0.910251C19.1937 0.910251 19.5226 0.959927 19.83 1.05391C21.2478 1.48356 22.236 2.81546 22.236 4.29773C22.236 4.64815 22.1782 4.99995 22.0708 5.33558C22.0426 5.4148 22.0131 5.49267 21.9782 5.5786C21.4559 6.84605 20.2315 7.66908 18.8486 7.66908C18.7989 7.66908 18.756 7.66908 18.6982 7.66237C16.8951 7.58315 15.4774 6.10088 15.4774 4.28967ZM3.1391 4.28967C3.1391 2.42071 4.65758 0.910251 6.51839 0.910251C6.85538 0.910251 7.18432 0.959927 7.49176 1.05391C8.90954 1.48356 9.89769 2.81546 9.89769 4.29773C9.89769 4.64815 9.83996 4.99995 9.73255 5.33558C9.70436 5.4148 9.67482 5.49267 9.63991 5.5786C9.11765 6.84605 7.89321 7.66908 6.51032 7.66908C6.46064 7.66908 6.41768 7.66908 6.35995 7.66237C4.56488 7.58315 3.1391 6.10088 3.1391 4.28967ZM8.25169 14.322H0.905019V14.0065C0.905019 10.9493 3.29617 8.47889 6.3895 8.39296C6.43247 8.38624 6.48214 8.38624 6.5251 8.38624C7.62736 8.38624 8.67996 8.70177 9.59026 9.30328C9.56206 9.33147 9.54058 9.36101 9.51104 9.3825C9.43989 9.45366 9.36067 9.52616 9.28952 9.59732C9.25327 9.64028 9.2103 9.68325 9.1754 9.7195C9.10424 9.79871 9.0398 9.88464 8.97535 9.97057C8.94716 10.0135 8.91091 10.0498 8.88271 10.0928C8.81827 10.1854 8.75382 10.2794 8.69609 10.3787C8.67461 10.415 8.64642 10.458 8.62493 10.4929C8.5672 10.5936 8.51081 10.701 8.45979 10.8084C8.43831 10.8446 8.42354 10.8876 8.40206 10.9225C8.35239 11.0299 8.31614 11.1373 8.27317 11.2447C8.25841 11.2877 8.23692 11.3307 8.2235 11.3736C8.1953 11.4743 8.16577 11.5737 8.13757 11.6744C8.1228 11.7321 8.10938 11.7885 8.09461 11.8462C8.07984 11.9174 8.07313 11.9899 8.05836 12.0611C8.0154 12.3041 7.99391 12.5552 7.99391 12.8129C7.99391 12.8344 8.00063 12.8559 8.00063 12.8774C8.00063 13.0774 8.02211 13.2788 8.0503 13.4722C8.05702 13.5299 8.06507 13.5863 8.0785 13.644C8.11475 13.8589 8.17114 14.0589 8.23558 14.2603C8.24498 14.2858 8.24498 14.3073 8.25169 14.322ZM18.9643 22.1268C19.1576 22.7565 19.2502 23.409 19.2502 24.0669V24.4818L6.13311 24.4831V24.0683C6.13311 20.5022 8.91093 17.6305 12.4916 17.5095H12.4983H12.5346C12.5776 17.5028 12.6272 17.5028 12.6783 17.5028H12.6997C14.4545 17.5028 16.1005 18.1835 17.3397 19.4295C18.0903 20.1787 18.6568 21.1171 18.9643 22.1268ZM12.6917 16.7844C12.6339 16.7844 12.5843 16.7844 12.5131 16.7777C10.9382 16.7066 9.62787 15.7399 9.03997 14.3784C9.0252 14.3354 9.00372 14.2992 8.99029 14.2562C8.91108 14.0481 8.83992 13.8333 8.79696 13.6051C8.79696 13.5903 8.79025 13.5688 8.79025 13.5554C8.74728 13.3124 8.71909 13.068 8.71909 12.8102C8.71909 12.739 8.7258 12.6746 8.7258 12.6102C8.73251 12.539 8.73251 12.4598 8.74057 12.3886C8.74728 12.3242 8.76205 12.2597 8.76876 12.1953C8.78353 12.1093 8.79696 12.0234 8.81844 11.9375C8.83321 11.8878 8.84663 11.8301 8.8614 11.7804C8.8896 11.6878 8.91914 11.5871 8.94733 11.4944C8.9621 11.4515 8.97552 11.4085 8.99029 11.3722C9.03326 11.2648 9.08293 11.1507 9.13395 11.05C9.14872 11.0285 9.15543 11.007 9.1702 10.9788C9.3058 10.7143 9.47765 10.4633 9.67098 10.2417C9.69246 10.2203 9.71394 10.1988 9.72871 10.1773C9.80792 10.0914 9.88579 10.0054 9.97172 9.92622C9.99991 9.89803 10.0362 9.86849 10.0644 9.84029C10.1436 9.76913 10.2362 9.69663 10.3221 9.63218C10.9814 9.13809 11.7977 8.84404 12.6851 8.84404C13.0785 8.84404 13.4651 8.90178 13.8303 9.00919C14.2452 9.13137 14.6251 9.32471 14.9688 9.56773C14.9756 9.56773 14.9756 9.57444 14.9756 9.5825C15.0185 9.61875 15.0615 9.65366 15.1044 9.68991C15.2051 9.76912 15.3045 9.847 15.3985 9.93292C15.4481 9.97589 15.4911 10.0256 15.5341 10.0766C15.6267 10.1773 15.7207 10.2766 15.7986 10.3841C15.8268 10.427 15.863 10.4633 15.8912 10.5062C16.1208 10.8218 16.2994 11.1655 16.4282 11.5307C16.435 11.5589 16.4497 11.5951 16.4564 11.6233C16.5061 11.7804 16.5491 11.9456 16.5786 12.1107C16.5853 12.147 16.5934 12.1819 16.6001 12.2181C16.6283 12.4115 16.6498 12.6115 16.6498 12.8196C16.6498 12.9982 16.635 13.17 16.6068 13.3419C16.5706 13.5782 16.5276 13.8145 16.4497 14.0508C16.435 14.1153 16.4068 14.1864 16.3786 14.2589C16.3719 14.2804 16.3638 14.3086 16.3504 14.3301C15.7489 15.8177 14.3096 16.7844 12.6917 16.7844ZM24.4783 14.322H17.1316C17.1316 14.3153 17.1316 14.3153 17.1383 14.3072C17.1451 14.2925 17.1531 14.271 17.1598 14.2576C17.239 14.0213 17.2887 13.785 17.3317 13.542C17.3679 13.2989 17.3894 13.0626 17.3894 12.8183C17.3894 12.582 17.3679 12.3456 17.3317 12.116C17.325 12.0798 17.3169 12.0449 17.3169 12.0153C17.2377 11.5575 17.0873 11.1131 16.8725 10.6982C16.8577 10.67 16.8443 10.6486 16.8362 10.619C16.6214 10.2256 16.357 9.86043 16.0347 9.53012L15.8051 9.30053C16.6711 8.73529 17.674 8.42646 18.7481 8.38349H18.8126H18.8555C20.3525 8.34724 21.7837 8.96351 22.8511 10.0309C23.5022 10.6821 23.9829 11.485 24.2474 12.3443C24.4125 12.8814 24.4984 13.4399 24.4984 13.9984L24.4998 14.322H24.4783Z" fill="currentColor"/>
<path d="M23.3396 9.53133C22.5945 8.78616 21.6922 8.2424 20.7041 7.94835C21.5633 7.51871 22.2575 6.78831 22.6374 5.86457C22.6804 5.76387 22.7234 5.65646 22.7515 5.55711C22.8804 5.14895 22.9516 4.726 22.9516 4.29636C22.9516 2.49855 21.7553 0.887383 20.0368 0.371809C19.6568 0.257685 19.2635 0.199951 18.8553 0.199951C16.5931 0.199951 14.7591 2.04072 14.7591 4.29636C14.7591 5.90753 15.6895 7.29717 17.0428 7.96312C16.3836 8.16317 15.7539 8.46391 15.1887 8.87208C14.8383 8.65054 14.4583 8.45721 14.0502 8.33502C13.6138 8.20613 13.1627 8.14168 12.6968 8.14168C11.7798 8.14168 10.9287 8.41424 10.205 8.86537C9.63976 8.45721 9.0235 8.15646 8.37235 7.95642C9.23161 7.52677 9.9338 6.79638 10.3124 5.86594C10.3554 5.76524 10.3983 5.65783 10.4265 5.55847C10.5554 5.15031 10.6266 4.72737 10.6266 4.29772C10.6266 2.49992 9.43029 0.888748 7.71177 0.373174C7.33181 0.25905 6.93844 0.201316 6.53029 0.201316C4.26803 0.201316 2.43403 2.04209 2.43403 4.29772C2.43403 5.90219 3.35773 7.28376 4.69629 7.94971C2.07554 8.72977 0.199951 11.1358 0.199951 14.0077V14.6804C0.199951 14.8804 0.357034 15.0388 0.558435 15.0388H8.57086C9.05016 15.9263 9.80201 16.6433 10.719 17.0649C7.64716 17.9242 5.42769 20.7169 5.42769 24.0681V24.8415C5.42769 25.0415 5.58477 25.2 5.78617 25.2H19.6203C19.8203 25.2 19.9787 25.0429 19.9787 24.8415V24.0681C19.9787 23.3377 19.8713 22.614 19.6565 21.9199C19.3128 20.7961 18.6899 19.7649 17.8454 18.9191C16.9499 18.0235 15.8624 17.3938 14.6809 17.0649C15.5831 16.6419 16.335 15.9411 16.8143 15.0388H24.8415C25.0415 15.0388 25.2 14.8818 25.2 14.6804V14.0077C25.2 13.378 25.1073 12.747 24.9207 12.1454C24.62 11.164 24.0762 10.2617 23.3391 9.53131L23.3396 9.53133ZM15.4774 4.28967C15.4774 2.42071 16.9959 0.910251 18.8567 0.910251C19.1937 0.910251 19.5226 0.959927 19.83 1.05391C21.2478 1.48356 22.236 2.81546 22.236 4.29773C22.236 4.64815 22.1782 4.99995 22.0708 5.33558C22.0426 5.4148 22.0131 5.49267 21.9782 5.5786C21.4559 6.84605 20.2315 7.66908 18.8486 7.66908C18.7989 7.66908 18.756 7.66908 18.6982 7.66237C16.8951 7.58315 15.4774 6.10088 15.4774 4.28967ZM3.1391 4.28967C3.1391 2.42071 4.65758 0.910251 6.51839 0.910251C6.85538 0.910251 7.18432 0.959927 7.49176 1.05391C8.90954 1.48356 9.89769 2.81546 9.89769 4.29773C9.89769 4.64815 9.83996 4.99995 9.73255 5.33558C9.70436 5.4148 9.67482 5.49267 9.63991 5.5786C9.11765 6.84605 7.89321 7.66908 6.51032 7.66908C6.46064 7.66908 6.41768 7.66908 6.35995 7.66237C4.56488 7.58315 3.1391 6.10088 3.1391 4.28967ZM8.25169 14.322H0.905019V14.0065C0.905019 10.9493 3.29617 8.47889 6.3895 8.39296C6.43247 8.38624 6.48214 8.38624 6.5251 8.38624C7.62736 8.38624 8.67996 8.70177 9.59026 9.30328C9.56206 9.33147 9.54058 9.36101 9.51104 9.3825C9.43989 9.45366 9.36067 9.52616 9.28952 9.59732C9.25327 9.64028 9.2103 9.68325 9.1754 9.7195C9.10424 9.79871 9.0398 9.88464 8.97535 9.97057C8.94716 10.0135 8.91091 10.0498 8.88271 10.0928C8.81827 10.1854 8.75382 10.2794 8.69609 10.3787C8.67461 10.415 8.64642 10.458 8.62493 10.4929C8.5672 10.5936 8.51081 10.701 8.45979 10.8084C8.43831 10.8446 8.42354 10.8876 8.40206 10.9225C8.35239 11.0299 8.31614 11.1373 8.27317 11.2447C8.25841 11.2877 8.23692 11.3307 8.2235 11.3736C8.1953 11.4743 8.16577 11.5737 8.13757 11.6744C8.1228 11.7321 8.10938 11.7885 8.09461 11.8462C8.07984 11.9174 8.07313 11.9899 8.05836 12.0611C8.0154 12.3041 7.99391 12.5552 7.99391 12.8129C7.99391 12.8344 8.00063 12.8559 8.00063 12.8774C8.00063 13.0774 8.02211 13.2788 8.0503 13.4722C8.05702 13.5299 8.06507 13.5863 8.0785 13.644C8.11475 13.8589 8.17114 14.0589 8.23558 14.2603C8.24498 14.2858 8.24498 14.3073 8.25169 14.322ZM18.9643 22.1268C19.1576 22.7565 19.2502 23.409 19.2502 24.0669V24.4818L6.13311 24.4831V24.0683C6.13311 20.5022 8.91093 17.6305 12.4916 17.5095H12.4983H12.5346C12.5776 17.5028 12.6272 17.5028 12.6783 17.5028H12.6997C14.4545 17.5028 16.1005 18.1835 17.3397 19.4295C18.0903 20.1787 18.6568 21.1171 18.9643 22.1268ZM12.6917 16.7844C12.6339 16.7844 12.5843 16.7844 12.5131 16.7777C10.9382 16.7066 9.62787 15.7399 9.03997 14.3784C9.0252 14.3354 9.00372 14.2992 8.99029 14.2562C8.91108 14.0481 8.83992 13.8333 8.79696 13.6051C8.79696 13.5903 8.79025 13.5688 8.79025 13.5554C8.74728 13.3124 8.71909 13.068 8.71909 12.8102C8.71909 12.739 8.7258 12.6746 8.7258 12.6102C8.73251 12.539 8.73251 12.4598 8.74057 12.3886C8.74728 12.3242 8.76205 12.2597 8.76876 12.1953C8.78353 12.1093 8.79696 12.0234 8.81844 11.9375C8.83321 11.8878 8.84663 11.8301 8.8614 11.7804C8.8896 11.6878 8.91914 11.5871 8.94733 11.4944C8.9621 11.4515 8.97552 11.4085 8.99029 11.3722C9.03326 11.2648 9.08293 11.1507 9.13395 11.05C9.14872 11.0285 9.15543 11.007 9.1702 10.9788C9.3058 10.7143 9.47765 10.4633 9.67098 10.2417C9.69246 10.2203 9.71394 10.1988 9.72871 10.1773C9.80792 10.0914 9.88579 10.0054 9.97172 9.92622C9.99991 9.89803 10.0362 9.86849 10.0644 9.84029C10.1436 9.76913 10.2362 9.69663 10.3221 9.63218C10.9814 9.13809 11.7977 8.84404 12.6851 8.84404C13.0785 8.84404 13.4651 8.90178 13.8303 9.00919C14.2452 9.13137 14.6251 9.32471 14.9688 9.56773C14.9756 9.56773 14.9756 9.57444 14.9756 9.5825C15.0185 9.61875 15.0615 9.65366 15.1044 9.68991C15.2051 9.76912 15.3045 9.847 15.3985 9.93292C15.4481 9.97589 15.4911 10.0256 15.5341 10.0766C15.6267 10.1773 15.7207 10.2766 15.7986 10.3841C15.8268 10.427 15.863 10.4633 15.8912 10.5062C16.1208 10.8218 16.2994 11.1655 16.4282 11.5307C16.435 11.5589 16.4497 11.5951 16.4564 11.6233C16.5061 11.7804 16.5491 11.9456 16.5786 12.1107C16.5853 12.147 16.5934 12.1819 16.6001 12.2181C16.6283 12.4115 16.6498 12.6115 16.6498 12.8196C16.6498 12.9982 16.635 13.17 16.6068 13.3419C16.5706 13.5782 16.5276 13.8145 16.4497 14.0508C16.435 14.1153 16.4068 14.1864 16.3786 14.2589C16.3719 14.2804 16.3638 14.3086 16.3504 14.3301C15.7489 15.8177 14.3096 16.7844 12.6917 16.7844ZM24.4783 14.322H17.1316C17.1316 14.3153 17.1316 14.3153 17.1383 14.3072C17.1451 14.2925 17.1531 14.271 17.1598 14.2576C17.239 14.0213 17.2887 13.785 17.3317 13.542C17.3679 13.2989 17.3894 13.0626 17.3894 12.8183C17.3894 12.582 17.3679 12.3456 17.3317 12.116C17.325 12.0798 17.3169 12.0449 17.3169 12.0153C17.2377 11.5575 17.0873 11.1131 16.8725 10.6982C16.8577 10.67 16.8443 10.6486 16.8362 10.619C16.6214 10.2256 16.357 9.86043 16.0347 9.53012L15.8051 9.30053C16.6711 8.73529 17.674 8.42646 18.7481 8.38349H18.8126H18.8555C20.3525 8.34724 21.7837 8.96351 22.8511 10.0309C23.5022 10.6821 23.9829 11.485 24.2474 12.3443C24.4125 12.8814 24.4984 13.4399 24.4984 13.9984L24.4998 14.322H24.4783Z" stroke="currentColor" stroke-width="0.4" mask="url(#path-1-outside-1_190_1185)"/>
</svg>
