<svg width="32" height="32" viewBox="0 0 32 32" fill="none" xmlns="http://www.w3.org/2000/svg"><g clip-path="url(#clip0_353_867)"><path d="M14.359 9.02564H18.4616V6.5641H20.9231V2.46154H18.4616V0H14.359V2.46154H11.8975V6.5641H14.359V9.02564ZM12.718 5.74359V3.28205H15.1795V0.820513H17.6411V3.28205H20.1026V5.74359H17.6411V8.20513H15.1795V5.74359H12.718Z" fill="currentColor"/><path d="M8.14772 12.3076C7.01541 12.3076 6.09644 13.2266 6.09644 14.3589C6.09644 15.4912 7.01541 16.4102 8.14772 16.4102C9.28003 16.4102 10.199 15.4912 10.199 14.3589C10.199 13.2266 9.28003 12.3076 8.14772 12.3076ZM8.14772 15.5897C7.46669 15.5897 6.91695 15.0399 6.91695 14.3589C6.91695 13.6779 7.46669 13.1281 8.14772 13.1281C8.82874 13.1281 9.37849 13.6779 9.37849 14.3589C9.37849 15.0399 8.82874 15.5897 8.14772 15.5897Z" fill="currentColor"/><path d="M24.6729 16.4102C25.8052 16.4102 26.7241 15.4912 26.7241 14.3589C26.7241 13.2266 25.8052 12.3076 24.6729 12.3076C23.5406 12.3076 22.6216 13.2266 22.6216 14.3589C22.6216 15.4912 23.5406 16.4102 24.6729 16.4102ZM24.6729 13.1281C25.3539 13.1281 25.9036 13.6779 25.9036 14.3589C25.9036 15.0399 25.3539 15.5897 24.6729 15.5897C23.9918 15.5897 23.4421 15.0399 23.4421 14.3589C23.4421 13.6779 23.9918 13.1281 24.6729 13.1281Z" fill="currentColor"/><path d="M19.6924 32.0001H29.5385V28.718H19.6924V32.0001ZM20.5129 29.5385H28.718V31.1796H20.5129V29.5385Z" fill="currentColor"/><path d="M7.77019 23.7786C7.77019 23.8196 7.61429 27.8811 6.88403 32.0001H7.71275C7.90147 30.9088 8.06557 29.8175 8.18044 28.8083C8.29532 29.8175 8.45942 30.9088 8.64814 32.0001H9.47685C8.7466 27.8811 8.5907 23.8196 8.5907 23.7786H7.77019Z" fill="currentColor"/><path d="M21.8092 16.2707C22.0308 16.4184 22.1539 16.6563 22.1539 16.9271C22.1374 18.4533 22.0472 23.0974 21.4318 27.9056H22.2605C22.8759 23.0974 22.9662 18.4615 22.9826 16.9353C22.9826 16.402 22.72 15.9015 22.2769 15.5979C21.3416 14.9661 19.1672 13.2184 19.1672 10.6748H18.3467C18.3467 13.6122 20.7672 15.5733 21.8092 16.2789V16.2707Z" fill="currentColor"/><path d="M23.5815 27.8974H24.4103C24.4841 27.3722 24.558 26.8471 24.6154 26.3548C24.6728 26.8471 24.7467 27.3722 24.8205 27.8974H25.6492C25.1487 24.4102 25.0256 21.3661 25.0256 21.3333H24.2051C24.2051 21.3333 24.0903 24.4184 23.5815 27.8974Z" fill="currentColor"/><path d="M27.9057 16.6565C27.4954 16.5744 27.077 16.6811 26.757 16.9437C26.437 17.2062 26.2565 17.6001 26.2647 18.0185C26.2975 19.7498 26.4206 23.6637 26.9703 27.8975H27.799C27.2411 23.6637 27.118 19.7334 27.0852 18.0021C27.0852 17.8298 27.1508 17.6739 27.2821 17.5673C27.4134 17.4606 27.5775 17.4196 27.7416 17.4524C28.7754 17.6657 30.3344 18.0185 31.8688 18.5437L32.0001 18.5929V17.7314C30.4657 17.2144 28.9313 16.8616 27.9057 16.6565Z" fill="currentColor"/><path d="M4.91487 16.6565C3.63487 16.9191 1.7559 17.3621 0 18.0267V18.9047L0.147692 18.8473C1.89538 18.1744 3.79077 17.7232 5.07077 17.4606C5.23487 17.4278 5.40718 17.4688 5.53026 17.5755C5.66154 17.6821 5.73538 17.838 5.72718 18.0103C5.68615 20.3242 5.08718 26.6093 4.10256 31.9262L4.08615 32.0001H4.92308C5.90769 26.6503 6.50667 20.3488 6.54769 18.0267C6.54769 17.6083 6.37538 17.2144 6.05538 16.9437C5.73538 16.6729 5.31692 16.5744 4.90667 16.6565H4.91487Z" fill="currentColor"/><path d="M10.6257 15.5652C10.1334 15.877 9.84618 16.4267 9.87901 17.0011C9.98567 19.0524 10.4041 26.1662 11.479 32.0001H12.3159L12.2995 31.9262C11.2246 26.1334 10.8062 19.0114 10.6995 16.9601C10.6831 16.6729 10.8226 16.4103 11.0687 16.2626C12.1846 15.557 14.7693 13.596 14.7693 10.6667H13.9487C13.9487 13.1857 11.6267 14.9334 10.6257 15.5652Z" fill="currentColor"/></g><defs><clipPath id="clip0_353_867"><rect width="32" height="32" fill="white"/></clipPath></defs></svg>