<svg xmlns="http://www.w3.org/2000/svg" width="29" height="29" fill="none" viewBox="0 0 29 29"><path fill="currentColor" stroke="currentColor" stroke-width=".3" d="M22.346 13.664c1.653.014 3.137.591 4.242 1.685l.22.227c1.071 1.169 1.642 2.744 1.642 4.476v.001c-.013 3.28-2.527 6.085-5.61 6.361v2.156l-.23-.142-3.213-1.987h-2.65c-3.228 0-5.733-2.828-5.747-6.388v-.001a6.28 6.28 0 0 1 1.861-4.545c1.21-1.198 2.841-1.843 4.59-1.843zm-4.922.996c-1.474 0-2.842.55-3.86 1.559s-1.56 2.36-1.56 3.833c0 2.645 1.687 5.393 4.743 5.393h2.934l.037.022 2.132 1.316v-1.338h.495c2.748 0 5.09-2.46 5.103-5.393l-.007-.296c-.065-1.472-.614-2.777-1.554-3.708-.912-.902-2.133-1.387-3.516-1.388zM11.176.15c1.736 0 3.354.658 4.55 1.842C16.936 3.19 17.6 4.805 17.6 6.538v.001c-.014 3.56-2.533 6.388-5.747 6.388H9.19l-3.214 1.986-.229.142V12.9C2.663 12.624.163 9.819.15 6.539c0-1.848.65-3.517 1.848-4.704C3.102.742 4.601.15 6.216.15zm-4.96.996c-1.382 0-2.591.486-3.517 1.39-1.001.992-1.546 2.408-1.546 4.002 0 2.933 2.355 5.393 5.09 5.393h.507v1.338l2.12-1.316.035-.022h2.948c1.527 0 2.706-.692 3.508-1.71.804-1.021 1.23-2.373 1.236-3.683l-.006-.274c-.065-1.367-.613-2.626-1.566-3.559h-.001c-1.02-1.008-2.387-1.56-3.848-1.56z"/></svg>