
<svg width="28" height="28" viewBox="0 0 28 28" fill="none" xmlns="http://www.w3.org/2000/svg">
<mask id="path-1-outside-1_194_1610" maskUnits="userSpaceOnUse" x="-0.800049" y="-0.800049" width="29" height="29" fill="black">
<rect fill="white" x="-0.800049" y="-0.800049" width="29" height="29"/>
<path d="M22.9619 8.76072C24.5953 8.76072 25.9253 7.43079 25.9253 5.79733C25.9253 4.16388 24.5953 2.83394 22.9619 2.83394C21.3284 2.83394 19.9985 4.16388 19.9985 5.79733C19.9985 7.43079 21.3258 8.76072 22.9619 8.76072ZM22.9619 3.49247C24.2327 3.49247 25.2668 4.52657 25.2668 5.79733C25.2668 7.0681 24.2327 8.10219 22.9619 8.10219C21.6911 8.10219 20.657 7.0681 20.657 5.79733C20.657 4.52657 21.6911 3.49247 22.9619 3.49247ZM24.9015 9.41925H20.9374C19.6692 9.41925 18.639 10.4495 18.639 11.7177V11.9351C18.4113 11.899 18.1875 11.8527 17.9637 11.8C17.9701 11.773 17.9804 11.7498 17.9804 11.7241V9.08358C17.9804 7.81538 16.9502 6.78514 15.682 6.78514H11.7179C10.4497 6.78514 9.41945 7.81538 9.41945 9.08358V11.7241C9.41945 11.7498 9.42974 11.773 9.43617 11.8C9.21495 11.8566 8.98857 11.899 8.76091 11.9351V11.7177C8.76091 10.4495 7.73067 9.41925 6.46246 9.41925H2.4984C1.2302 9.41925 0.199951 10.4495 0.199951 11.7177V18.3096C0.199951 18.7507 0.371016 19.1623 0.68358 19.4749C0.917669 19.7051 1.2032 19.8608 1.51702 19.9225V25.5536C1.51702 26.4629 2.25402 27.1999 3.16336 27.1999H5.7975C6.70684 27.1999 7.44384 26.4629 7.44384 25.5536V22.8564C8.1191 23.8545 9.02716 24.697 10.1243 25.2964L13.5417 27.1601C13.5919 27.1871 13.6434 27.2 13.7 27.2C13.7565 27.2 13.808 27.1871 13.8582 27.1601L17.2756 25.2964C18.3715 24.697 19.2847 23.8546 19.9561 22.8564V25.5536C19.9561 26.4629 20.6931 27.1999 21.6024 27.1999H24.2365C25.1459 27.1999 25.8829 26.4629 25.8829 25.5536V19.9225C26.634 19.7707 27.2 19.1058 27.2 18.3096V11.7177C27.2 10.4495 26.1697 9.41925 24.9015 9.41925ZM10.0778 9.08357C10.0778 8.18194 10.8123 7.44366 11.7177 7.44366H15.6858C16.5874 7.44366 17.3257 8.17809 17.3257 9.08357V11.6122C16.0614 11.1942 14.905 10.4855 13.9378 9.5183C13.8092 9.38968 13.6021 9.38968 13.4735 9.5183C12.505 10.4868 11.3461 11.1942 10.0857 11.6122L10.0844 9.08357H10.0778ZM6.78515 25.5534C6.78515 26.0962 6.34012 26.5412 5.79735 26.5412H3.16321C2.62044 26.5412 2.17541 26.0962 2.17541 25.5534V19.6266C2.17541 19.4453 2.02749 19.2974 1.84614 19.2974C1.58247 19.2974 1.33551 19.1958 1.14773 19.008C0.959943 18.8228 0.858331 18.5733 0.858331 18.3096V11.7177C0.858331 10.8122 1.59276 10.0778 2.49825 10.0778H6.4623C7.36779 10.0778 8.10222 10.8122 8.10222 11.7177V12.0174C7.84884 12.0405 7.59545 12.0534 7.34207 12.0534H6.45588C6.27453 12.0534 6.12661 12.2013 6.12661 12.3827V18.5603C6.12661 19.6497 6.3607 20.7044 6.78515 21.6652L6.78515 25.5534ZM16.9589 24.7174L13.6996 26.4949L10.4404 24.7174C8.18441 23.4891 6.78489 21.1277 6.78489 18.5605V12.712H7.34181C9.72258 12.712 11.9684 11.8259 13.6996 10.2065C15.4322 11.8259 17.6765 12.712 20.0575 12.712H20.6144V18.5605C20.6144 21.1277 19.215 23.4892 16.9589 24.7174ZM26.5412 18.3096C26.5412 18.8523 26.0962 19.2973 25.5534 19.2973C25.3721 19.2973 25.2241 19.4453 25.2241 19.6266V25.5534C25.2241 26.0962 24.7791 26.5412 24.2363 26.5412H21.6022C21.0594 26.5412 20.6144 26.0962 20.6144 25.5534V21.6651C21.0389 20.703 21.2729 19.6496 21.2729 18.5602V12.3825C21.2729 12.2012 21.125 12.0533 20.9437 12.0533H20.0575C19.8002 12.0533 19.5468 12.0404 19.2973 12.0173V11.7176C19.2973 10.8121 20.0318 10.0777 20.9372 10.0777H24.9013C25.8068 10.0777 26.5412 10.8121 26.5412 11.7176V18.3096ZM17.651 16.6632H15.3461V14.3584C15.3461 14.177 15.1982 14.0291 15.0168 14.0291H12.3827C12.2014 14.0291 12.0534 14.177 12.0534 14.3584V16.6632H9.74856C9.56721 16.6632 9.4193 16.8111 9.4193 16.9925V19.6266C9.4193 19.808 9.56721 19.9559 9.74856 19.9559H12.0534V22.2607C12.0534 22.4421 12.2014 22.59 12.3827 22.59H15.0168C15.1982 22.59 15.3461 22.4421 15.3461 22.2607V19.9559H17.651C17.8323 19.9559 17.9803 19.808 17.9803 19.6266V16.9925C17.9803 16.8111 17.8323 16.6632 17.651 16.6632ZM17.3217 19.2973H15.0168C14.8355 19.2973 14.6876 19.4453 14.6876 19.6266V21.9315H12.712V19.6266C12.712 19.4453 12.5641 19.2973 12.3827 19.2973H10.0778V17.3218H12.3827C12.5641 17.3218 12.712 17.1738 12.712 16.9925V14.6876H14.6876V16.9925C14.6876 17.1738 14.8355 17.3218 15.0168 17.3218H17.3217V19.2973ZM4.52276 8.76085C6.15622 8.76085 7.48616 7.43092 7.48616 5.79746C7.48616 4.16401 6.15622 2.83408 4.52276 2.83408C2.88929 2.83408 1.55935 4.16401 1.55935 5.79746C1.55935 7.43092 2.88669 8.76085 4.52276 8.76085ZM4.52276 3.49261C5.79353 3.49261 6.82763 4.5267 6.82763 5.79746C6.82763 7.06823 5.79353 8.10232 4.52276 8.10232C3.25198 8.10232 2.21788 7.06823 2.21788 5.79746C2.21788 4.5267 3.25198 3.49261 4.52276 3.49261ZM13.7423 6.12673C15.3757 6.12673 16.7057 4.79679 16.7057 3.16334C16.7057 1.52989 15.3757 0.199951 13.7423 0.199951C12.1088 0.199951 10.7788 1.52989 10.7788 3.16334C10.7788 4.79679 12.1062 6.12673 13.7423 6.12673ZM13.7423 0.858482C15.013 0.858482 16.0471 1.89257 16.0471 3.16334C16.0471 4.43411 15.013 5.4682 13.7423 5.4682C12.4715 5.4682 11.4374 4.43411 11.4374 3.16334C11.4374 1.89257 12.4715 0.858482 13.7423 0.858482Z"/>
</mask>
<path d="M22.9619 8.76072C24.5953 8.76072 25.9253 7.43079 25.9253 5.79733C25.9253 4.16388 24.5953 2.83394 22.9619 2.83394C21.3284 2.83394 19.9985 4.16388 19.9985 5.79733C19.9985 7.43079 21.3258 8.76072 22.9619 8.76072ZM22.9619 3.49247C24.2327 3.49247 25.2668 4.52657 25.2668 5.79733C25.2668 7.0681 24.2327 8.10219 22.9619 8.10219C21.6911 8.10219 20.657 7.0681 20.657 5.79733C20.657 4.52657 21.6911 3.49247 22.9619 3.49247ZM24.9015 9.41925H20.9374C19.6692 9.41925 18.639 10.4495 18.639 11.7177V11.9351C18.4113 11.899 18.1875 11.8527 17.9637 11.8C17.9701 11.773 17.9804 11.7498 17.9804 11.7241V9.08358C17.9804 7.81538 16.9502 6.78514 15.682 6.78514H11.7179C10.4497 6.78514 9.41945 7.81538 9.41945 9.08358V11.7241C9.41945 11.7498 9.42974 11.773 9.43617 11.8C9.21495 11.8566 8.98857 11.899 8.76091 11.9351V11.7177C8.76091 10.4495 7.73067 9.41925 6.46246 9.41925H2.4984C1.2302 9.41925 0.199951 10.4495 0.199951 11.7177V18.3096C0.199951 18.7507 0.371016 19.1623 0.68358 19.4749C0.917669 19.7051 1.2032 19.8608 1.51702 19.9225V25.5536C1.51702 26.4629 2.25402 27.1999 3.16336 27.1999H5.7975C6.70684 27.1999 7.44384 26.4629 7.44384 25.5536V22.8564C8.1191 23.8545 9.02716 24.697 10.1243 25.2964L13.5417 27.1601C13.5919 27.1871 13.6434 27.2 13.7 27.2C13.7565 27.2 13.808 27.1871 13.8582 27.1601L17.2756 25.2964C18.3715 24.697 19.2847 23.8546 19.9561 22.8564V25.5536C19.9561 26.4629 20.6931 27.1999 21.6024 27.1999H24.2365C25.1459 27.1999 25.8829 26.4629 25.8829 25.5536V19.9225C26.634 19.7707 27.2 19.1058 27.2 18.3096V11.7177C27.2 10.4495 26.1697 9.41925 24.9015 9.41925ZM10.0778 9.08357C10.0778 8.18194 10.8123 7.44366 11.7177 7.44366H15.6858C16.5874 7.44366 17.3257 8.17809 17.3257 9.08357V11.6122C16.0614 11.1942 14.905 10.4855 13.9378 9.5183C13.8092 9.38968 13.6021 9.38968 13.4735 9.5183C12.505 10.4868 11.3461 11.1942 10.0857 11.6122L10.0844 9.08357H10.0778ZM6.78515 25.5534C6.78515 26.0962 6.34012 26.5412 5.79735 26.5412H3.16321C2.62044 26.5412 2.17541 26.0962 2.17541 25.5534V19.6266C2.17541 19.4453 2.02749 19.2974 1.84614 19.2974C1.58247 19.2974 1.33551 19.1958 1.14773 19.008C0.959943 18.8228 0.858331 18.5733 0.858331 18.3096V11.7177C0.858331 10.8122 1.59276 10.0778 2.49825 10.0778H6.4623C7.36779 10.0778 8.10222 10.8122 8.10222 11.7177V12.0174C7.84884 12.0405 7.59545 12.0534 7.34207 12.0534H6.45588C6.27453 12.0534 6.12661 12.2013 6.12661 12.3827V18.5603C6.12661 19.6497 6.3607 20.7044 6.78515 21.6652L6.78515 25.5534ZM16.9589 24.7174L13.6996 26.4949L10.4404 24.7174C8.18441 23.4891 6.78489 21.1277 6.78489 18.5605V12.712H7.34181C9.72258 12.712 11.9684 11.8259 13.6996 10.2065C15.4322 11.8259 17.6765 12.712 20.0575 12.712H20.6144V18.5605C20.6144 21.1277 19.215 23.4892 16.9589 24.7174ZM26.5412 18.3096C26.5412 18.8523 26.0962 19.2973 25.5534 19.2973C25.3721 19.2973 25.2241 19.4453 25.2241 19.6266V25.5534C25.2241 26.0962 24.7791 26.5412 24.2363 26.5412H21.6022C21.0594 26.5412 20.6144 26.0962 20.6144 25.5534V21.6651C21.0389 20.703 21.2729 19.6496 21.2729 18.5602V12.3825C21.2729 12.2012 21.125 12.0533 20.9437 12.0533H20.0575C19.8002 12.0533 19.5468 12.0404 19.2973 12.0173V11.7176C19.2973 10.8121 20.0318 10.0777 20.9372 10.0777H24.9013C25.8068 10.0777 26.5412 10.8121 26.5412 11.7176V18.3096ZM17.651 16.6632H15.3461V14.3584C15.3461 14.177 15.1982 14.0291 15.0168 14.0291H12.3827C12.2014 14.0291 12.0534 14.177 12.0534 14.3584V16.6632H9.74856C9.56721 16.6632 9.4193 16.8111 9.4193 16.9925V19.6266C9.4193 19.808 9.56721 19.9559 9.74856 19.9559H12.0534V22.2607C12.0534 22.4421 12.2014 22.59 12.3827 22.59H15.0168C15.1982 22.59 15.3461 22.4421 15.3461 22.2607V19.9559H17.651C17.8323 19.9559 17.9803 19.808 17.9803 19.6266V16.9925C17.9803 16.8111 17.8323 16.6632 17.651 16.6632ZM17.3217 19.2973H15.0168C14.8355 19.2973 14.6876 19.4453 14.6876 19.6266V21.9315H12.712V19.6266C12.712 19.4453 12.5641 19.2973 12.3827 19.2973H10.0778V17.3218H12.3827C12.5641 17.3218 12.712 17.1738 12.712 16.9925V14.6876H14.6876V16.9925C14.6876 17.1738 14.8355 17.3218 15.0168 17.3218H17.3217V19.2973ZM4.52276 8.76085C6.15622 8.76085 7.48616 7.43092 7.48616 5.79746C7.48616 4.16401 6.15622 2.83408 4.52276 2.83408C2.88929 2.83408 1.55935 4.16401 1.55935 5.79746C1.55935 7.43092 2.88669 8.76085 4.52276 8.76085ZM4.52276 3.49261C5.79353 3.49261 6.82763 4.5267 6.82763 5.79746C6.82763 7.06823 5.79353 8.10232 4.52276 8.10232C3.25198 8.10232 2.21788 7.06823 2.21788 5.79746C2.21788 4.5267 3.25198 3.49261 4.52276 3.49261ZM13.7423 6.12673C15.3757 6.12673 16.7057 4.79679 16.7057 3.16334C16.7057 1.52989 15.3757 0.199951 13.7423 0.199951C12.1088 0.199951 10.7788 1.52989 10.7788 3.16334C10.7788 4.79679 12.1062 6.12673 13.7423 6.12673ZM13.7423 0.858482C15.013 0.858482 16.0471 1.89257 16.0471 3.16334C16.0471 4.43411 15.013 5.4682 13.7423 5.4682C12.4715 5.4682 11.4374 4.43411 11.4374 3.16334C11.4374 1.89257 12.4715 0.858482 13.7423 0.858482Z" fill="currentColor"/>
<path d="M22.9619 8.76072C24.5953 8.76072 25.9253 7.43079 25.9253 5.79733C25.9253 4.16388 24.5953 2.83394 22.9619 2.83394C21.3284 2.83394 19.9985 4.16388 19.9985 5.79733C19.9985 7.43079 21.3258 8.76072 22.9619 8.76072ZM22.9619 3.49247C24.2327 3.49247 25.2668 4.52657 25.2668 5.79733C25.2668 7.0681 24.2327 8.10219 22.9619 8.10219C21.6911 8.10219 20.657 7.0681 20.657 5.79733C20.657 4.52657 21.6911 3.49247 22.9619 3.49247ZM24.9015 9.41925H20.9374C19.6692 9.41925 18.639 10.4495 18.639 11.7177V11.9351C18.4113 11.899 18.1875 11.8527 17.9637 11.8C17.9701 11.773 17.9804 11.7498 17.9804 11.7241V9.08358C17.9804 7.81538 16.9502 6.78514 15.682 6.78514H11.7179C10.4497 6.78514 9.41945 7.81538 9.41945 9.08358V11.7241C9.41945 11.7498 9.42974 11.773 9.43617 11.8C9.21495 11.8566 8.98857 11.899 8.76091 11.9351V11.7177C8.76091 10.4495 7.73067 9.41925 6.46246 9.41925H2.4984C1.2302 9.41925 0.199951 10.4495 0.199951 11.7177V18.3096C0.199951 18.7507 0.371016 19.1623 0.68358 19.4749C0.917669 19.7051 1.2032 19.8608 1.51702 19.9225V25.5536C1.51702 26.4629 2.25402 27.1999 3.16336 27.1999H5.7975C6.70684 27.1999 7.44384 26.4629 7.44384 25.5536V22.8564C8.1191 23.8545 9.02716 24.697 10.1243 25.2964L13.5417 27.1601C13.5919 27.1871 13.6434 27.2 13.7 27.2C13.7565 27.2 13.808 27.1871 13.8582 27.1601L17.2756 25.2964C18.3715 24.697 19.2847 23.8546 19.9561 22.8564V25.5536C19.9561 26.4629 20.6931 27.1999 21.6024 27.1999H24.2365C25.1459 27.1999 25.8829 26.4629 25.8829 25.5536V19.9225C26.634 19.7707 27.2 19.1058 27.2 18.3096V11.7177C27.2 10.4495 26.1697 9.41925 24.9015 9.41925ZM10.0778 9.08357C10.0778 8.18194 10.8123 7.44366 11.7177 7.44366H15.6858C16.5874 7.44366 17.3257 8.17809 17.3257 9.08357V11.6122C16.0614 11.1942 14.905 10.4855 13.9378 9.5183C13.8092 9.38968 13.6021 9.38968 13.4735 9.5183C12.505 10.4868 11.3461 11.1942 10.0857 11.6122L10.0844 9.08357H10.0778ZM6.78515 25.5534C6.78515 26.0962 6.34012 26.5412 5.79735 26.5412H3.16321C2.62044 26.5412 2.17541 26.0962 2.17541 25.5534V19.6266C2.17541 19.4453 2.02749 19.2974 1.84614 19.2974C1.58247 19.2974 1.33551 19.1958 1.14773 19.008C0.959943 18.8228 0.858331 18.5733 0.858331 18.3096V11.7177C0.858331 10.8122 1.59276 10.0778 2.49825 10.0778H6.4623C7.36779 10.0778 8.10222 10.8122 8.10222 11.7177V12.0174C7.84884 12.0405 7.59545 12.0534 7.34207 12.0534H6.45588C6.27453 12.0534 6.12661 12.2013 6.12661 12.3827V18.5603C6.12661 19.6497 6.3607 20.7044 6.78515 21.6652L6.78515 25.5534ZM16.9589 24.7174L13.6996 26.4949L10.4404 24.7174C8.18441 23.4891 6.78489 21.1277 6.78489 18.5605V12.712H7.34181C9.72258 12.712 11.9684 11.8259 13.6996 10.2065C15.4322 11.8259 17.6765 12.712 20.0575 12.712H20.6144V18.5605C20.6144 21.1277 19.215 23.4892 16.9589 24.7174ZM26.5412 18.3096C26.5412 18.8523 26.0962 19.2973 25.5534 19.2973C25.3721 19.2973 25.2241 19.4453 25.2241 19.6266V25.5534C25.2241 26.0962 24.7791 26.5412 24.2363 26.5412H21.6022C21.0594 26.5412 20.6144 26.0962 20.6144 25.5534V21.6651C21.0389 20.703 21.2729 19.6496 21.2729 18.5602V12.3825C21.2729 12.2012 21.125 12.0533 20.9437 12.0533H20.0575C19.8002 12.0533 19.5468 12.0404 19.2973 12.0173V11.7176C19.2973 10.8121 20.0318 10.0777 20.9372 10.0777H24.9013C25.8068 10.0777 26.5412 10.8121 26.5412 11.7176V18.3096ZM17.651 16.6632H15.3461V14.3584C15.3461 14.177 15.1982 14.0291 15.0168 14.0291H12.3827C12.2014 14.0291 12.0534 14.177 12.0534 14.3584V16.6632H9.74856C9.56721 16.6632 9.4193 16.8111 9.4193 16.9925V19.6266C9.4193 19.808 9.56721 19.9559 9.74856 19.9559H12.0534V22.2607C12.0534 22.4421 12.2014 22.59 12.3827 22.59H15.0168C15.1982 22.59 15.3461 22.4421 15.3461 22.2607V19.9559H17.651C17.8323 19.9559 17.9803 19.808 17.9803 19.6266V16.9925C17.9803 16.8111 17.8323 16.6632 17.651 16.6632ZM17.3217 19.2973H15.0168C14.8355 19.2973 14.6876 19.4453 14.6876 19.6266V21.9315H12.712V19.6266C12.712 19.4453 12.5641 19.2973 12.3827 19.2973H10.0778V17.3218H12.3827C12.5641 17.3218 12.712 17.1738 12.712 16.9925V14.6876H14.6876V16.9925C14.6876 17.1738 14.8355 17.3218 15.0168 17.3218H17.3217V19.2973ZM4.52276 8.76085C6.15622 8.76085 7.48616 7.43092 7.48616 5.79746C7.48616 4.16401 6.15622 2.83408 4.52276 2.83408C2.88929 2.83408 1.55935 4.16401 1.55935 5.79746C1.55935 7.43092 2.88669 8.76085 4.52276 8.76085ZM4.52276 3.49261C5.79353 3.49261 6.82763 4.5267 6.82763 5.79746C6.82763 7.06823 5.79353 8.10232 4.52276 8.10232C3.25198 8.10232 2.21788 7.06823 2.21788 5.79746C2.21788 4.5267 3.25198 3.49261 4.52276 3.49261ZM13.7423 6.12673C15.3757 6.12673 16.7057 4.79679 16.7057 3.16334C16.7057 1.52989 15.3757 0.199951 13.7423 0.199951C12.1088 0.199951 10.7788 1.52989 10.7788 3.16334C10.7788 4.79679 12.1062 6.12673 13.7423 6.12673ZM13.7423 0.858482C15.013 0.858482 16.0471 1.89257 16.0471 3.16334C16.0471 4.43411 15.013 5.4682 13.7423 5.4682C12.4715 5.4682 11.4374 4.43411 11.4374 3.16334C11.4374 1.89257 12.4715 0.858482 13.7423 0.858482Z" stroke="currentColor" stroke-width="0.4" mask="url(#path-1-outside-1_194_1610)"/>
</svg>