<svg xmlns="http://www.w3.org/2000/svg" width="27" height="27" fill="none" viewBox="0 0 27 27"><g fill="currentColor" clip-path="url(#a)"><path d="M27 22.34c0-1.748-.79-3.313-2.025-4.365v-2.462H24.3v1.97a5.7 5.7 0 0 0-3.03-.877 5.76 5.76 0 0 0-5.488 4.06 6.7 6.7 0 0 0-2.282-.404c-.999 0-1.944.222-2.801.613A5.4 5.4 0 0 0 9.51 18.71v-5.078a4.073 4.073 0 0 0-4.07-4.068c-.115 0-.237.007-.352.02.932-.97 2.343-1.625 3.632-1.625a4.78 4.78 0 0 1 4.779 4.775v.122a3.37 3.37 0 0 0-3.355 3.365 3.37 3.37 0 0 0 3.369 3.366 3.37 3.37 0 0 0 3.368-3.366 3.366 3.366 0 0 0-2.707-3.298v-.182c0-.344-.034-.674-.095-.998a4.79 4.79 0 0 1 4.091-2.314c.931 0 1.823.27 2.592.762-1.438.243-2.545 1.484-2.545 2.989a3.044 3.044 0 0 0 6.089 0 3.046 3.046 0 0 0-2.437-2.982 5.45 5.45 0 0 0-3.699-1.45c-1.701 0-3.3.803-4.327 2.132a5.6 5.6 0 0 0-1.114-1.828h.027c0-.29.068-.419.156-.594.101-.202.23-.445.23-.904 0-.458-.129-.701-.23-.904-.088-.175-.155-.303-.155-.593s.067-.418.155-.594c.101-.202.23-.445.23-.903 0-.46-.237-.803-.44-1.12a3 3 0 0 1-.256-.445c-.06-.149-.095-.33-.135-.52-.074-.37-.162-.782-.452-1.086-.297-.303-.702-.39-1.067-.472a3 3 0 0 1-.506-.141 3 3 0 0 1-.432-.257c-.31-.209-.668-.452-1.1-.452s-.79.243-1.1.452c-.156.101-.298.203-.433.257-.141.06-.317.1-.506.141-.364.081-.77.169-1.066.466-.29.296-.378.715-.453 1.086-.04.188-.074.37-.135.526-.054.141-.155.29-.256.445-.203.317-.439.674-.439 1.12 0 .445.128.708.23.903.087.176.155.304.155.594s-.068.418-.155.593c-.102.203-.23.446-.23.904 0 .459.128.702.23.904.08.162.141.29.155.54a4.8 4.8 0 0 0-.702.836c-1.546.573-2.66 2.064-2.66 3.804v5.093a5.42 5.42 0 0 0-1.383 3.615h.675c0-2.63 2.14-4.776 4.779-4.776a4.77 4.77 0 0 1 4.637 3.636c-1.985 1.174-3.328 3.332-3.328 5.8h.675a6.07 6.07 0 0 1 6.069-6.063 6.07 6.07 0 0 1 6.068 6.064h.675c0-2.671-1.573-4.978-3.834-6.07a5.07 5.07 0 0 1 4.86-3.65c1.14 0 2.187.385 3.03 1.019v4.006h.675v-3.4a5.02 5.02 0 0 1 1.35 3.427h.675zm-3.361-9.16a2.367 2.367 0 0 1-2.37 2.367 2.367 2.367 0 1 1 0-4.735c1.31 0 2.37 1.059 2.37 2.368m-10.112 5.733a2.695 2.695 0 0 1-2.693-2.692c0-.074.013-.134.02-.209.48-.053 1.12-.242 1.85-.762 1.295.958 2.281 1.113 3.496 1.127a2.69 2.69 0 0 1-2.68 2.536zm2.64-3.21c-1.25-.028-2.06-.203-3.254-1.14l-.21-.163-.209.162c-.492.392-1.012.641-1.498.749a2.7 2.7 0 0 1 2.524-1.78c1.31 0 2.396.937 2.64 2.171zM5.19 5.145c-.088-.175-.156-.303-.156-.593 0-.243.162-.493.331-.749.115-.175.23-.357.31-.56.082-.209.129-.425.176-.64.061-.304.122-.594.277-.75.155-.154.432-.215.729-.283.21-.047.425-.094.628-.175a2.8 2.8 0 0 0 .546-.324c.257-.175.493-.337.723-.337s.472.162.722.337c.175.115.351.236.547.324.202.088.418.135.628.176.297.06.573.12.729.283.155.162.216.445.276.748.04.216.088.432.176.641.08.196.195.378.31.56.169.263.331.513.331.749 0 .29-.068.418-.155.593-.102.203-.23.445-.23.904s.128.702.23.904c.087.175.155.303.155.594 0 .29-.068.418-.155.593a2 2 0 0 0-.155.364 5.43 5.43 0 0 0-3.43-1.22c-1.16 0-2.403.465-3.395 1.2-.047-.135-.101-.243-.148-.344-.088-.175-.156-.303-.156-.593s.068-.419.156-.594c.101-.202.23-.445.23-.904s-.129-.708-.23-.904m.263 11.75a5.4 5.4 0 0 0-3.395 1.194v-4.452a3.397 3.397 0 0 1 3.395-3.392 3.39 3.39 0 0 1 3.395 3.392v4.445a5.46 5.46 0 0 0-3.395-1.187"/><path d="M20.81 12.175h-1.1c-.142 0-.27.06-.358.168a.43.43 0 0 0-.087.358l.053.256c.068.324.385.566.75.566h.384c.365 0 .682-.236.75-.566l.054-.256a.4.4 0 0 0-.088-.358.46.46 0 0 0-.358-.168"/><path d="M22.08 13.524h.384c.364 0 .682-.236.75-.567l.053-.256a.4.4 0 0 0-.087-.358.46.46 0 0 0-.358-.168h-1.1c-.142 0-.27.06-.358.168a.43.43 0 0 0-.088.358l.054.256c.068.33.385.566.75.566M15.903 6.934a2.74 2.74 0 0 0 2.275 1.22c.945 0 1.748-.465 2.24-1.173 1.223-.614 1.877-1.76 1.85-3.244.02-1.08-.317-1.997-.972-2.651C20.581.35 19.494-.014 18.212 0c-1.29-.027-2.376.35-3.105 1.08-.655.653-.993 1.57-.973 2.643-.027 1.457.601 2.59 1.769 3.217zm2.275.546a2.065 2.065 0 0 1-1.627-3.339 3.11 3.11 0 0 0 3.24 0 2.065 2.065 0 0 1-1.627 3.339zm-2.592-5.922C16.18.964 17.07.654 18.212.681c1.14-.02 2.024.29 2.612.884.526.526.79 1.275.776 2.178.013.864-.236 1.565-.722 2.085.02-.135.04-.264.04-.398 0-.742-.29-1.437-.823-1.956l-.203-.203-.23.169a2.46 2.46 0 0 1-2.949 0l-.23-.169-.202.203a2.7 2.7 0 0 0-.823 1.956c0 .114.02.222.033.337-.445-.513-.675-1.194-.661-2.037-.02-.89.25-1.64.776-2.165zM8.741 6.819c1.492 0 2.7-1.214 2.7-2.698 0-.607-.202-1.187-.594-1.673l-.27-.337-.263.344c-.587.762-1.964 1.66-3.908 1.666H6.02l.054.385a2.706 2.706 0 0 0 2.666 2.313m1.803-3.615c.148.283.222.593.222.91 0 1.12-.911 2.024-2.025 2.024-.87 0-1.633-.567-1.91-1.37 1.701-.114 2.97-.816 3.712-1.564M7.823 12.384l-.088-.196h-4.67l-.088.196a2.7 2.7 0 0 0-.257 1.133A2.69 2.69 0 0 0 5.407 16.2c1.485 0 2.686-1.2 2.686-2.684 0-.385-.088-.77-.256-1.133zM5.4 15.527a2.016 2.016 0 0 1-2.012-2.01c0-.223.041-.439.115-.654H7.29c.074.215.115.431.115.654 0 1.106-.905 2.01-2.012 2.01z"/></g><defs><clipPath id="a"><path fill="#fff" d="M0 0h27v27H0z"/></clipPath></defs></svg>