<svg xmlns="http://www.w3.org/2000/svg" width="27" height="28" fill="none" viewBox="0 0 27 28"><g clip-path="url(#a)"><path fill="currentColor" d="M13.5 14.737C6.053 14.737 0 20.69 0 28h.75c0-4.775 2.738-8.938 6.75-11.045v5.924A1.85 1.85 0 0 0 6 24.684c0 1.017.84 1.842 1.875 1.842s1.875-.825 1.875-1.842a1.85 1.85 0 0 0-1.5-1.805V16.6q.576-.256 1.185-.457c.217.848 1.17 3.854 3.9 5.195l.165.081.165-.081c2.73-1.341 3.675-4.34 3.9-5.195.405.133.802.288 1.185.457v4.804c-1.267.184-2.25 1.245-2.25 2.542v1.909a1.11 1.11 0 0 0-.75 1.039c0 .611.503 1.105 1.125 1.105S18 27.506 18 26.895a1.11 1.11 0 0 0-.75-1.04v-1.908c0-1.017.84-1.842 1.875-1.842S21 22.93 21 23.947v1.909a1.11 1.11 0 0 0-.75 1.039c0 .611.503 1.105 1.125 1.105s1.125-.494 1.125-1.105a1.11 1.11 0 0 0-.75-1.04v-1.908c0-1.296-.983-2.357-2.25-2.542v-4.45c4.012 2.115 6.75 6.27 6.75 11.045H27c0-7.31-6.052-13.263-13.5-13.263M9 24.684c0 .612-.502 1.105-1.125 1.105a1.114 1.114 0 0 1-1.125-1.105c0-.611.503-1.105 1.125-1.105.623 0 1.125.494 1.125 1.105m7.875 2.58a.368.368 0 1 1 0-.738.368.368 0 1 1 0 .737m4.5 0a.368.368 0 1 1 0-.738.368.368 0 1 1 0 .737M13.5 20.586c-2.325-1.252-3.165-3.979-3.345-4.656a12.8 12.8 0 0 1 3.345-.45c1.162 0 2.28.17 3.345.45-.18.677-1.012 3.411-3.345 4.656m0-7.324a6.79 6.79 0 0 0 5.61-2.947h1.973l-.84-4.156h-.015C19.98 2.726 17.062 0 13.5 0S7.005 2.741 6.773 6.197h-.015l-.84 4.119H7.89a6.78 6.78 0 0 0 5.61 2.947m6.038-3.684c.165-.332.314-.67.42-1.032l.21 1.032zM13.5 12.526c-3.307 0-6-2.645-6-5.894 0-.501.067-.98.188-1.445.292.037.81.089 1.47.089 1.477 0 3.637-.258 5.482-1.525.63.353 2.49 1.23 4.425.685a5.8 5.8 0 0 1 .435 2.188c0 3.25-2.692 5.895-6 5.895zm0-11.79a6.03 6.03 0 0 1 5.243 3.037c-1.958.479-3.893-.752-3.908-.767l-.218-.147-.21.155c-2.34 1.724-5.444 1.562-6.48 1.451A6.01 6.01 0 0 1 13.508.73zM6.833 9.58l.21-1.024c.112.353.255.7.42 1.024z"/></g><defs><clipPath id="a"><path fill="#fff" d="M0 0h27v28H0z"/></clipPath></defs></svg>