
<svg width="28" height="28" viewBox="0 0 28 28" fill="none" xmlns="http://www.w3.org/2000/svg">
<path d="M13.6836 5.41919C16.1813 5.41941 18.2207 7.45854 18.2207 9.9563C18.2207 11.4955 17.4571 12.8345 16.2939 13.6575C17.4564 13.8657 18.5751 14.3054 19.5693 14.9924C20.8484 15.8777 21.623 17.3306 21.623 18.8948V20.1165C21.623 21.1292 20.8063 21.964 19.7764 21.9641H7.60645C6.5936 21.9641 5.75977 21.1465 5.75977 20.1165V18.8948C5.75979 17.3307 6.53434 15.8782 7.81348 14.9944C8.80817 14.3056 9.91333 13.8673 11.0879 13.6594C9.92455 12.8348 9.16211 11.4813 9.16211 9.95728C9.16233 7.45857 11.1853 5.41919 13.6836 5.41919ZM12.5391 14.4954C11.1383 14.4954 9.77634 14.8971 8.60645 15.6389L8.375 15.7922C7.35117 16.4997 6.74807 17.659 6.74805 18.8948V20.1165C6.74805 20.5884 7.13759 20.9914 7.62207 20.9915H19.792C20.2775 20.9915 20.666 20.6019 20.666 20.1165V18.8948C20.666 17.6448 20.0631 16.4998 19.0391 15.7922C17.8037 14.9372 16.3533 14.4954 14.8584 14.4954H12.5391ZM13.6992 6.39282C11.7294 6.39282 10.135 7.98753 10.1348 9.95728C10.1348 11.9272 11.7293 13.5227 13.6992 13.5227C15.6691 13.5227 17.2637 11.9272 17.2637 9.95728C17.2634 7.98755 15.669 6.39286 13.6992 6.39282Z" fill="currentColor" stroke="currentColor" stroke-width="0.2"/>
<path d="M9.36304 0.585693C9.36297 0.858574 9.14667 1.073 8.87573 1.073H4.40698C2.57635 1.073 1.0742 2.57445 1.07397 4.40503V9.19995C1.07373 9.47267 0.857498 9.68628 0.58667 9.68628C0.314055 9.68609 0.100583 9.4706 0.100342 9.19995V4.40503C0.100569 2.03066 2.03066 0.100549 4.40503 0.100342H8.87476C9.14553 0.100355 9.36112 0.313726 9.36304 0.584717V0.585693Z" fill="currentColor" stroke="currentColor" stroke-width="0.2"/>
<path d="M22.993 0.100342C25.3678 0.100371 27.2982 2.03095 27.2997 4.40698V9.20093C27.2997 9.47386 27.0834 9.68823 26.8124 9.68823C26.5397 9.68798 26.326 9.47175 26.326 9.20093V4.40698C26.326 2.57623 24.8238 1.074 22.993 1.07397H18.5233C18.2505 1.07379 18.037 0.857533 18.037 0.58667C18.0372 0.31402 18.2526 0.100527 18.5233 0.100342H22.993Z" fill="currentColor" stroke="currentColor" stroke-width="0.2"/>
<path d="M26.8109 17.7123C27.0838 17.7123 27.2988 17.928 27.2972 18.2006V22.9945C27.2972 25.3692 25.3662 27.3001 22.9916 27.3002H18.5219C18.2491 27.3 18.0355 27.0837 18.0355 26.8129C18.0355 26.5401 18.251 26.3257 18.5219 26.3256H22.9916C24.8223 26.3255 26.3246 24.8233 26.3246 22.9926V18.1986C26.3248 17.926 26.5403 17.7125 26.8109 17.7123Z" fill="currentColor" stroke="currentColor" stroke-width="0.2"/>
<path d="M0.58667 17.7123C0.858287 17.7123 1.07281 17.928 1.073 18.1986V22.9926C1.073 24.8232 2.57443 26.3254 4.40503 26.3256L8.87476 26.3246C9.14768 26.3246 9.36206 26.5409 9.36206 26.8119C9.36182 27.0846 9.14557 27.2982 8.87476 27.2982H4.40503C2.03052 27.298 0.100342 25.3671 0.100342 22.9926V18.1986C0.100546 17.926 0.315984 17.7125 0.58667 17.7123Z" fill="currentColor" stroke="currentColor" stroke-width="0.2"/>
<path d="M2.93726 13.2126C3.20991 13.2128 3.4234 13.4283 3.42358 13.699C3.42358 13.9718 3.20808 14.1861 2.93726 14.1863H0.58667C0.313901 14.1861 0.100342 13.9698 0.100342 13.699C0.100528 13.4263 0.315972 13.2128 0.58667 13.2126H2.93726Z" fill="currentColor" stroke="currentColor" stroke-width="0.2"/>
<path d="M26.8118 13.2126C27.0844 13.2128 27.2979 13.4283 27.2981 13.699C27.2981 13.9718 27.0826 14.1861 26.8118 14.1863H24.4612C24.1884 14.1861 23.9749 13.9698 23.9749 13.699C23.975 13.4263 24.1905 13.2128 24.4612 13.2126H26.8118Z" fill="currentColor" stroke="currentColor" stroke-width="0.2"/>
<path d="M13.6989 0.100342C13.9717 0.100342 14.186 0.315855 14.1862 0.58667V2.93726C14.186 3.19144 13.9724 3.42358 13.6989 3.42358C13.4262 3.4234 13.2127 3.20796 13.2125 2.93726V0.58667C13.2127 0.31402 13.4282 0.100527 13.6989 0.100342Z" fill="currentColor" stroke="currentColor" stroke-width="0.2"/>
<path d="M13.6989 23.9749C13.9724 23.9749 14.186 24.207 14.1862 24.4612V26.8118C14.186 27.0845 13.9697 27.2981 13.6989 27.2981C13.4262 27.2979 13.2127 27.0825 13.2125 26.8118V24.4612C13.2127 24.1885 13.4282 23.975 13.6989 23.9749Z" fill="currentColor" stroke="currentColor" stroke-width="0.2"/>
</svg>