
<svg width="29" height="28" viewBox="0 0 29 28" fill="none" xmlns="http://www.w3.org/2000/svg">
<mask id="path-1-outside-1_194_1613" maskUnits="userSpaceOnUse" x="-0.800049" y="-0.800049" width="30" height="29" fill="black">
<rect fill="white" x="-0.800049" y="-0.800049" width="30" height="29"/>
<path fill-rule="evenodd" clip-rule="evenodd" d="M12.3849 22.0328L7.62475 13.9449C7.6211 13.9389 7.61867 13.9342 7.61624 13.9282C7.21156 13.2188 7.46191 12.3211 8.1789 11.9134C8.90439 11.5044 9.83042 11.7476 10.2509 12.4582C10.2533 12.463 10.257 12.4677 10.2594 12.4725L11.962 15.366C12.0786 15.0393 12.3095 14.7627 12.6134 14.5851C12.6267 14.5768 12.6401 14.5684 12.6547 14.5625C13.193 14.2716 13.8566 14.3276 14.3378 14.7031L14.3427 14.6852L14.3414 14.6864C14.4447 14.3049 14.6987 13.9795 15.0475 13.7828C15.6685 13.4323 16.4559 13.5562 16.9348 14.0796C17.0466 13.7363 17.2835 13.4454 17.5995 13.2618C17.6129 13.2522 17.6262 13.2451 17.642 13.2379C18.3639 12.8469 19.2741 13.0949 19.6873 13.7959L21.848 17.4666C23.158 19.2668 23.8082 20.8763 23.7547 22.2805C23.7 23.7171 22.9222 24.9249 21.3765 25.8856C17.9083 28.2116 15.305 27.0552 11.7056 25.4552C10.8221 25.063 9.87782 24.6433 8.84851 24.2439C8.83879 24.2403 8.83028 24.2368 8.82056 24.232C8.37578 24.0234 8.05009 23.6311 7.931 23.1614C7.87388 22.9087 7.89454 22.6464 7.98811 22.4055C8.08655 22.154 8.25425 21.9334 8.47178 21.7689C9.05146 21.3755 9.77331 21.2384 10.4599 21.3922C10.4757 21.3945 10.4903 21.3981 10.5037 21.4029L12.3849 22.0328ZM24.0195 3.93388C24.124 3.83135 24.2942 3.83254 24.3974 3.93507C24.502 4.0376 24.502 4.20332 24.3962 4.30584L22.7253 5.94274L24.395 7.58202H24.3962C24.4971 7.68574 24.4947 7.84907 24.3914 7.9504C24.2881 8.05054 24.1216 8.05174 24.0171 7.95278L22.3473 6.31469L20.6764 7.95278C20.5719 8.05412 20.4017 8.05412 20.2972 7.95159C20.1939 7.84787 20.1939 7.68215 20.2996 7.57961L21.9706 5.94271L20.2996 4.30343C20.2449 4.25454 20.2146 4.18659 20.2134 4.11506C20.2121 4.04352 20.2401 3.97438 20.2923 3.92311C20.3446 3.87304 20.4151 3.84562 20.488 3.848C20.5609 3.8492 20.6302 3.88019 20.6788 3.93384L22.3473 5.57312L24.0195 3.93388ZM22.3473 0.200014C20.5281 0.200014 18.811 1.0298 17.7026 2.44613C16.5941 3.86246 16.2212 5.70449 16.6915 7.42828C17.163 9.15339 18.4244 10.5649 20.1052 11.2482C21.7871 11.9325 23.6963 11.8097 25.2723 10.9168C26.8485 10.0238 27.9118 8.46323 28.15 6.69277C28.387 4.92235 27.7721 3.14478 26.4851 1.88215C25.389 0.80441 23.9005 0.198824 22.3473 0.200014ZM26.1073 2.25538C24.9383 1.10848 23.2928 0.561253 21.6536 0.772272C20.0154 0.984483 18.5705 1.9311 17.7443 3.3355C16.9179 4.73992 16.8037 6.44125 17.4368 7.93981C18.0687 9.43842 19.3764 10.5627 20.9719 10.9823C22.5687 11.402 24.2736 11.0694 25.5849 10.0822C26.8962 9.09508 27.6654 7.56547 27.6654 5.94395C27.6666 4.55979 27.1062 3.23301 26.1073 2.25538ZM3.04812 5.90837C2.94604 5.80465 2.94604 5.64012 3.05055 5.53761C3.15385 5.43508 3.32277 5.43508 3.42727 5.53522L5.26594 7.33904L8.68309 3.9879C8.7876 3.88537 8.95773 3.88537 9.06226 3.98909C9.16798 4.09162 9.16677 4.25853 9.06226 4.36107L5.45659 7.89839C5.40555 7.94727 5.33749 7.97469 5.26701 7.97469C5.19531 7.97469 5.12725 7.94727 5.07743 7.89839L3.0492 5.90861L3.04812 5.90837ZM6.05586 0.200165C4.23542 0.200165 2.51832 1.02995 1.41111 2.44628C0.302806 3.86261 -0.0714807 5.70464 0.398812 7.42844C0.870319 9.15354 2.13174 10.565 3.81254 11.2484C5.49442 11.9327 7.40359 11.8099 8.98087 10.9169C10.557 10.024 11.6204 8.46338 11.8574 6.69292C12.0955 4.9225 11.4794 3.14493 10.1925 1.8823C9.09632 0.80456 7.60776 0.198974 6.05586 0.200165ZM9.81463 2.25553C8.64678 1.10864 7.00012 0.560216 5.36089 0.771234C3.72154 0.983445 2.27659 1.93006 1.44909 3.33565C0.622742 4.74008 0.509719 6.44141 1.14164 7.93996C1.77479 9.43857 3.08117 10.5628 4.67793 10.9825C6.27476 11.4033 7.97966 11.0707 9.2922 10.0824C10.6034 9.09522 11.3727 7.56563 11.3727 5.94411C11.3739 4.55995 10.8135 3.23316 9.81463 2.25553ZM21.4094 17.7648C21.4033 17.7564 21.3972 17.7481 21.3912 17.7386L19.2256 14.0593C18.9571 13.6075 18.3725 13.4465 17.9034 13.6957L17.8998 13.6981L17.8852 13.7064H17.8864C17.4295 13.9687 17.2642 14.5374 17.5121 14.9964L17.5182 15.0059C17.5255 15.0155 17.5316 15.0262 17.5364 15.0369L18.3762 16.4676V16.4664C18.4503 16.5928 18.4065 16.7525 18.2789 16.8253C18.1513 16.898 17.9873 16.8551 17.9132 16.7299L17.071 15.2992C17.0649 15.2885 17.0588 15.279 17.0528 15.2682L16.6542 14.591L16.6469 14.5779C16.3747 14.1356 15.7962 13.9818 15.3332 14.2274C15.3223 14.2346 15.3113 14.2406 15.3004 14.2465C14.8434 14.5183 14.6904 15.0978 14.954 15.5532L16.1851 17.6443C16.2227 17.7039 16.2349 17.7766 16.2167 17.8458C16.1997 17.9149 16.1535 17.9733 16.0915 18.0091C16.0283 18.0449 15.953 18.0532 15.8837 18.0341C15.8144 18.0139 15.7561 17.9674 15.7221 17.9042L14.4923 15.8142L14.2468 15.397C14.2431 15.3922 14.2407 15.3886 14.2383 15.3839C13.9685 14.9296 13.3791 14.7699 12.91 15.0238L12.8979 15.031C12.4312 15.298 12.2696 15.8846 12.5369 16.3448L13.6878 18.3036H13.689C13.7619 18.4288 13.7181 18.5897 13.5905 18.6612C13.4617 18.734 13.2989 18.6899 13.226 18.5647L9.79667 12.7347C9.79303 12.7299 9.7906 12.7251 9.78817 12.7204C9.51595 12.2625 8.91805 12.1052 8.44775 12.3675H8.44532C7.98473 12.6333 7.82433 13.2104 8.08074 13.6694L8.08803 13.6813L13.2007 22.3677C13.259 22.4619 13.2517 22.5835 13.1825 22.6693C13.112 22.7564 12.9941 22.7909 12.8872 22.7552L10.3534 21.9087H10.3522C9.8199 21.7859 9.25845 21.8861 8.80272 22.1829C8.66175 22.289 8.5536 22.4297 8.48919 22.5906C8.43208 22.7385 8.41992 22.8982 8.45516 23.052C8.54144 23.3644 8.76384 23.6243 9.06278 23.7626C10.1006 24.1643 11.0436 24.584 11.9259 24.9762C15.3673 26.5058 17.8552 27.611 21.0754 25.4519L21.0839 25.4472C22.4754 24.584 23.1729 23.5182 23.2215 22.2614C23.2701 20.9751 22.6526 19.4719 21.4094 17.7648ZM14.9553 15.5532L14.8568 15.9121V15.9109C14.9857 15.8394 15.0294 15.6784 14.9565 15.5532L14.9553 15.5532Z"/>
</mask>
<path fill-rule="evenodd" clip-rule="evenodd" d="M12.3849 22.0328L7.62475 13.9449C7.6211 13.9389 7.61867 13.9342 7.61624 13.9282C7.21156 13.2188 7.46191 12.3211 8.1789 11.9134C8.90439 11.5044 9.83042 11.7476 10.2509 12.4582C10.2533 12.463 10.257 12.4677 10.2594 12.4725L11.962 15.366C12.0786 15.0393 12.3095 14.7627 12.6134 14.5851C12.6267 14.5768 12.6401 14.5684 12.6547 14.5625C13.193 14.2716 13.8566 14.3276 14.3378 14.7031L14.3427 14.6852L14.3414 14.6864C14.4447 14.3049 14.6987 13.9795 15.0475 13.7828C15.6685 13.4323 16.4559 13.5562 16.9348 14.0796C17.0466 13.7363 17.2835 13.4454 17.5995 13.2618C17.6129 13.2522 17.6262 13.2451 17.642 13.2379C18.3639 12.8469 19.2741 13.0949 19.6873 13.7959L21.848 17.4666C23.158 19.2668 23.8082 20.8763 23.7547 22.2805C23.7 23.7171 22.9222 24.9249 21.3765 25.8856C17.9083 28.2116 15.305 27.0552 11.7056 25.4552C10.8221 25.063 9.87782 24.6433 8.84851 24.2439C8.83879 24.2403 8.83028 24.2368 8.82056 24.232C8.37578 24.0234 8.05009 23.6311 7.931 23.1614C7.87388 22.9087 7.89454 22.6464 7.98811 22.4055C8.08655 22.154 8.25425 21.9334 8.47178 21.7689C9.05146 21.3755 9.77331 21.2384 10.4599 21.3922C10.4757 21.3945 10.4903 21.3981 10.5037 21.4029L12.3849 22.0328ZM24.0195 3.93388C24.124 3.83135 24.2942 3.83254 24.3974 3.93507C24.502 4.0376 24.502 4.20332 24.3962 4.30584L22.7253 5.94274L24.395 7.58202H24.3962C24.4971 7.68574 24.4947 7.84907 24.3914 7.9504C24.2881 8.05054 24.1216 8.05174 24.0171 7.95278L22.3473 6.31469L20.6764 7.95278C20.5719 8.05412 20.4017 8.05412 20.2972 7.95159C20.1939 7.84787 20.1939 7.68215 20.2996 7.57961L21.9706 5.94271L20.2996 4.30343C20.2449 4.25454 20.2146 4.18659 20.2134 4.11506C20.2121 4.04352 20.2401 3.97438 20.2923 3.92311C20.3446 3.87304 20.4151 3.84562 20.488 3.848C20.5609 3.8492 20.6302 3.88019 20.6788 3.93384L22.3473 5.57312L24.0195 3.93388ZM22.3473 0.200014C20.5281 0.200014 18.811 1.0298 17.7026 2.44613C16.5941 3.86246 16.2212 5.70449 16.6915 7.42828C17.163 9.15339 18.4244 10.5649 20.1052 11.2482C21.7871 11.9325 23.6963 11.8097 25.2723 10.9168C26.8485 10.0238 27.9118 8.46323 28.15 6.69277C28.387 4.92235 27.7721 3.14478 26.4851 1.88215C25.389 0.80441 23.9005 0.198824 22.3473 0.200014ZM26.1073 2.25538C24.9383 1.10848 23.2928 0.561253 21.6536 0.772272C20.0154 0.984483 18.5705 1.9311 17.7443 3.3355C16.9179 4.73992 16.8037 6.44125 17.4368 7.93981C18.0687 9.43842 19.3764 10.5627 20.9719 10.9823C22.5687 11.402 24.2736 11.0694 25.5849 10.0822C26.8962 9.09508 27.6654 7.56547 27.6654 5.94395C27.6666 4.55979 27.1062 3.23301 26.1073 2.25538ZM3.04812 5.90837C2.94604 5.80465 2.94604 5.64012 3.05055 5.53761C3.15385 5.43508 3.32277 5.43508 3.42727 5.53522L5.26594 7.33904L8.68309 3.9879C8.7876 3.88537 8.95773 3.88537 9.06226 3.98909C9.16798 4.09162 9.16677 4.25853 9.06226 4.36107L5.45659 7.89839C5.40555 7.94727 5.33749 7.97469 5.26701 7.97469C5.19531 7.97469 5.12725 7.94727 5.07743 7.89839L3.0492 5.90861L3.04812 5.90837ZM6.05586 0.200165C4.23542 0.200165 2.51832 1.02995 1.41111 2.44628C0.302806 3.86261 -0.0714807 5.70464 0.398812 7.42844C0.870319 9.15354 2.13174 10.565 3.81254 11.2484C5.49442 11.9327 7.40359 11.8099 8.98087 10.9169C10.557 10.024 11.6204 8.46338 11.8574 6.69292C12.0955 4.9225 11.4794 3.14493 10.1925 1.8823C9.09632 0.80456 7.60776 0.198974 6.05586 0.200165ZM9.81463 2.25553C8.64678 1.10864 7.00012 0.560216 5.36089 0.771234C3.72154 0.983445 2.27659 1.93006 1.44909 3.33565C0.622742 4.74008 0.509719 6.44141 1.14164 7.93996C1.77479 9.43857 3.08117 10.5628 4.67793 10.9825C6.27476 11.4033 7.97966 11.0707 9.2922 10.0824C10.6034 9.09522 11.3727 7.56563 11.3727 5.94411C11.3739 4.55995 10.8135 3.23316 9.81463 2.25553ZM21.4094 17.7648C21.4033 17.7564 21.3972 17.7481 21.3912 17.7386L19.2256 14.0593C18.9571 13.6075 18.3725 13.4465 17.9034 13.6957L17.8998 13.6981L17.8852 13.7064H17.8864C17.4295 13.9687 17.2642 14.5374 17.5121 14.9964L17.5182 15.0059C17.5255 15.0155 17.5316 15.0262 17.5364 15.0369L18.3762 16.4676V16.4664C18.4503 16.5928 18.4065 16.7525 18.2789 16.8253C18.1513 16.898 17.9873 16.8551 17.9132 16.7299L17.071 15.2992C17.0649 15.2885 17.0588 15.279 17.0528 15.2682L16.6542 14.591L16.6469 14.5779C16.3747 14.1356 15.7962 13.9818 15.3332 14.2274C15.3223 14.2346 15.3113 14.2406 15.3004 14.2465C14.8434 14.5183 14.6904 15.0978 14.954 15.5532L16.1851 17.6443C16.2227 17.7039 16.2349 17.7766 16.2167 17.8458C16.1997 17.9149 16.1535 17.9733 16.0915 18.0091C16.0283 18.0449 15.953 18.0532 15.8837 18.0341C15.8144 18.0139 15.7561 17.9674 15.7221 17.9042L14.4923 15.8142L14.2468 15.397C14.2431 15.3922 14.2407 15.3886 14.2383 15.3839C13.9685 14.9296 13.3791 14.7699 12.91 15.0238L12.8979 15.031C12.4312 15.298 12.2696 15.8846 12.5369 16.3448L13.6878 18.3036H13.689C13.7619 18.4288 13.7181 18.5897 13.5905 18.6612C13.4617 18.734 13.2989 18.6899 13.226 18.5647L9.79667 12.7347C9.79303 12.7299 9.7906 12.7251 9.78817 12.7204C9.51595 12.2625 8.91805 12.1052 8.44775 12.3675H8.44532C7.98473 12.6333 7.82433 13.2104 8.08074 13.6694L8.08803 13.6813L13.2007 22.3677C13.259 22.4619 13.2517 22.5835 13.1825 22.6693C13.112 22.7564 12.9941 22.7909 12.8872 22.7552L10.3534 21.9087H10.3522C9.8199 21.7859 9.25845 21.8861 8.80272 22.1829C8.66175 22.289 8.5536 22.4297 8.48919 22.5906C8.43208 22.7385 8.41992 22.8982 8.45516 23.052C8.54144 23.3644 8.76384 23.6243 9.06278 23.7626C10.1006 24.1643 11.0436 24.584 11.9259 24.9762C15.3673 26.5058 17.8552 27.611 21.0754 25.4519L21.0839 25.4472C22.4754 24.584 23.1729 23.5182 23.2215 22.2614C23.2701 20.9751 22.6526 19.4719 21.4094 17.7648ZM14.9553 15.5532L14.8568 15.9121V15.9109C14.9857 15.8394 15.0294 15.6784 14.9565 15.5532L14.9553 15.5532Z" fill="currentColor"/>
<path d="M6.05465 0.201357L6.12468 0.272741L6.12589 0.271549L6.05586 0.200165L5.98583 0.128781L5.98461 0.129973L6.05465 0.201357ZM12.3849 22.0328L12.3214 22.2224L12.8285 22.3922L12.5573 21.9313L12.3849 22.0328ZM7.62475 13.9449L7.79713 13.8434L7.79536 13.8405L7.62475 13.9449ZM7.61624 13.9282L7.80144 13.8527L7.79647 13.8405L7.78996 13.8291L7.61624 13.9282ZM8.1789 11.9134L8.0807 11.7391L8.08003 11.7395L8.1789 11.9134ZM10.2509 12.4582L10.4294 12.3672L10.423 12.3564L10.2509 12.4582ZM10.2594 12.4725L10.0809 12.5635L10.087 12.5739L10.2594 12.4725ZM11.962 15.366L11.7896 15.4674L12.0065 15.836L12.1503 15.4333L11.962 15.366ZM12.6134 14.5851L12.7143 14.7578L12.7193 14.7548L12.6134 14.5851ZM12.6547 14.5625L12.7304 14.7476L12.7403 14.7435L12.7498 14.7384L12.6547 14.5625ZM14.3378 14.7031L14.2148 14.8608L14.4519 15.0459L14.5308 14.7556L14.3378 14.7031ZM14.3427 14.6852L14.5357 14.7377L14.7291 14.0259L14.2026 14.5425L14.3427 14.6852ZM14.3414 14.6864L14.1484 14.6342L13.956 15.3448L14.4815 14.8292L14.3414 14.6864ZM15.0475 13.7828L15.1457 13.957L15.1458 13.9569L15.0475 13.7828ZM16.9348 14.0796L16.7872 14.2146L17.0187 14.4677L17.1249 14.1415L16.9348 14.0796ZM17.5995 13.2618L17.7 13.4347L17.7081 13.43L17.7157 13.4246L17.5995 13.2618ZM17.642 13.2379L17.7245 13.4201L17.731 13.4172L17.7373 13.4138L17.642 13.2379ZM19.6873 13.7959L19.8596 13.6944L19.8596 13.6943L19.6873 13.7959ZM21.848 17.4666L21.6756 17.568L21.6805 17.5764L21.6863 17.5842L21.848 17.4666ZM23.7547 22.2805L23.5548 22.2729V22.2729L23.7547 22.2805ZM21.3765 25.8856L21.2708 25.7156L21.2651 25.7195L21.3765 25.8856ZM11.7056 25.4552L11.7868 25.2725L11.7867 25.2724L11.7056 25.4552ZM8.84851 24.2439L8.92087 24.0574L8.91757 24.0562L8.84851 24.2439ZM8.82056 24.232L8.90866 24.0524L8.9055 24.0509L8.82056 24.232ZM7.931 23.1614L7.73585 23.2055L7.73713 23.2106L7.931 23.1614ZM7.98811 22.4055L7.80186 22.3327L7.80169 22.3331L7.98811 22.4055ZM8.47178 21.7689L8.35932 21.6032L8.35115 21.6094L8.47178 21.7689ZM10.4599 21.3922L10.4161 21.5878L10.4301 21.5899L10.4599 21.3922ZM10.5037 21.4029L10.4364 21.5913L10.4402 21.5925L10.5037 21.4029ZM24.0195 3.93388L24.1595 4.0767L24.1596 4.07665L24.0195 3.93388ZM24.3974 3.93507L24.2565 4.07701L24.2574 4.07784L24.3974 3.93507ZM24.3962 4.30584L24.257 4.16225L24.2563 4.16297L24.3962 4.30584ZM22.7253 5.94274L22.5853 5.79987L22.4396 5.94258L22.5852 6.08545L22.7253 5.94274ZM24.395 7.58202L24.2549 7.72473L24.3132 7.78202H24.395V7.58202ZM24.3962 7.58202L24.5396 7.44258L24.4807 7.38202H24.3962V7.58202ZM24.3914 7.9504L24.5306 8.094L24.5314 8.09317L24.3914 7.9504ZM24.0171 7.95278L23.877 8.09557L23.8796 8.09801L24.0171 7.95278ZM22.3473 6.31469L22.4874 6.17192L22.3474 6.03457L22.2073 6.17187L22.3473 6.31469ZM20.6764 7.95278L20.8156 8.09637L20.8164 8.0956L20.6764 7.95278ZM20.2972 7.95159L20.1555 8.09273L20.1572 8.09437L20.2972 7.95159ZM20.2996 7.57961L20.4389 7.72317L20.4396 7.72248L20.2996 7.57961ZM21.9706 5.94271L22.1105 6.08558L22.2563 5.94281L22.1107 5.79994L21.9706 5.94271ZM20.2996 4.30343L20.4398 4.1605L20.4329 4.15431L20.2996 4.30343ZM20.2134 4.11506L20.4133 4.11167V4.11166L20.2134 4.11506ZM20.2923 3.92311L20.154 3.77869L20.1523 3.78034L20.2923 3.92311ZM20.488 3.848L20.4815 4.04792L20.4847 4.04798L20.488 3.848ZM20.6788 3.93384L20.5303 4.06836L20.5386 4.07651L20.6788 3.93384ZM22.3473 5.57312L22.2072 5.71579L22.3472 5.85335L22.4873 5.71594L22.3473 5.57312ZM22.3473 0.200014V0.400014L22.3475 0.400014L22.3473 0.200014ZM16.6915 7.42828L16.4986 7.48093L16.4986 7.48101L16.6915 7.42828ZM20.1052 11.2482L20.1806 11.063L20.1806 11.0629L20.1052 11.2482ZM25.2723 10.9168L25.1737 10.7428L25.1737 10.7428L25.2723 10.9168ZM28.15 6.69277L28.3482 6.71944L28.3482 6.71931L28.15 6.69277ZM26.4851 1.88215L26.3449 2.02476L26.3451 2.02491L26.4851 1.88215ZM26.1073 2.25538L25.9673 2.39815L25.9674 2.39832L26.1073 2.25538ZM21.6536 0.772272L21.628 0.573908L21.6279 0.573929L21.6536 0.772272ZM17.7443 3.3355L17.9167 3.43692L17.9167 3.43691L17.7443 3.3355ZM17.4368 7.93981L17.6211 7.8621L17.6211 7.86197L17.4368 7.93981ZM20.9719 10.9823L20.921 11.1757L20.921 11.1758L20.9719 10.9823ZM27.6654 5.94395L27.4654 5.94378V5.94395H27.6654ZM3.04812 5.90837L2.90558 6.04866L2.94677 6.0905L3.00403 6.10345L3.04812 5.90837ZM3.05055 5.53761L3.19061 5.68039L3.19145 5.67955L3.05055 5.53761ZM3.42727 5.53522L3.56734 5.39244L3.56565 5.39082L3.42727 5.53522ZM5.26594 7.33904L5.12588 7.48181L5.26592 7.61919L5.40598 7.48183L5.26594 7.33904ZM8.68309 3.9879L8.82312 4.13069L8.82315 4.13067L8.68309 3.9879ZM9.06226 3.98909L8.92138 4.13107L8.92303 4.13266L9.06226 3.98909ZM9.06226 4.36107L9.20232 4.50384L9.20233 4.50383L9.06226 4.36107ZM5.45659 7.89839L5.59493 8.04284L5.59665 8.04116L5.45659 7.89839ZM5.07743 7.89839L4.93737 8.04116L4.93737 8.04116L5.07743 7.89839ZM3.0492 5.90861L3.18926 5.76584L3.14871 5.72606L3.09329 5.71353L3.0492 5.90861ZM6.05586 0.200165V0.400165L6.05601 0.400165L6.05586 0.200165ZM1.41111 2.44628L1.56862 2.56954L1.56867 2.56946L1.41111 2.44628ZM0.398812 7.42844L0.205864 7.48108L0.205889 7.48116L0.398812 7.42844ZM3.81254 11.2484L3.88791 11.0631L3.88786 11.0631L3.81254 11.2484ZM8.98087 10.9169L9.0794 11.091L9.07946 11.091L8.98087 10.9169ZM11.8574 6.69292L11.6591 6.66626L11.6591 6.66639L11.8574 6.69292ZM10.1925 1.8823L10.0522 2.02491L10.0524 2.02506L10.1925 1.8823ZM9.81463 2.25553L9.67449 2.39823L9.67474 2.39847L9.81463 2.25553ZM5.36089 0.771234L5.33535 0.572871L5.33521 0.572889L5.36089 0.771234ZM1.44909 3.33565L1.27674 3.23418L1.27672 3.23423L1.44909 3.33565ZM1.14164 7.93996L0.95735 8.01767L0.957403 8.0178L1.14164 7.93996ZM4.67793 10.9825L4.7289 10.7891L4.72877 10.789L4.67793 10.9825ZM9.2922 10.0824L9.17191 9.92259L9.17189 9.9226L9.2922 10.0824ZM11.3727 5.94411L11.1727 5.94393V5.94411H11.3727ZM21.4094 17.7648L21.2477 17.8825L21.2477 17.8825L21.4094 17.7648ZM21.3912 17.7386L21.2187 17.8401L21.2225 17.846L21.3912 17.7386ZM19.2256 14.0593L19.398 13.9579L19.3975 13.9571L19.2256 14.0593ZM17.9034 13.6957L17.8096 13.5191L17.8016 13.5233L17.794 13.5283L17.9034 13.6957ZM17.8998 13.6981L17.9993 13.872L18.0093 13.8655L17.8998 13.6981ZM17.8852 13.7064L17.7859 13.5328L17.1331 13.9064H17.8852V13.7064ZM17.8864 13.7064L17.986 13.8799L18.6366 13.5064H17.8864V13.7064ZM17.5121 14.9964L17.3362 15.0915L17.3396 15.0978L17.3435 15.1039L17.5121 14.9964ZM17.5182 15.0059L17.3495 15.1134L17.3541 15.1206L17.3593 15.1274L17.5182 15.0059ZM17.5364 15.0369L17.3543 15.1195L17.3586 15.1291L17.364 15.1382L17.5364 15.0369ZM18.3762 16.4676L18.2037 16.5688L18.5762 17.2034V16.4676H18.3762ZM18.3762 16.4664L18.5487 16.3652L18.1762 15.7302V16.4664H18.3762ZM18.2789 16.8253L18.378 16.999L18.378 16.999L18.2789 16.8253ZM17.9132 16.7299L17.7408 16.8313L17.7411 16.8318L17.9132 16.7299ZM17.071 15.2992L16.8969 15.3978L16.8986 15.4007L17.071 15.2992ZM17.0528 15.2682L17.2268 15.1697L17.2251 15.1668L17.0528 15.2682ZM16.6542 14.591L16.4793 14.6883L16.4818 14.6925L16.6542 14.591ZM16.6469 14.5779L16.8219 14.4807L16.8172 14.4731L16.6469 14.5779ZM15.3332 14.2274L15.2395 14.0508L15.2314 14.055L15.2237 14.0601L15.3332 14.2274ZM15.3004 14.2465L15.2046 14.0708L15.1981 14.0746L15.3004 14.2465ZM14.954 15.5532L14.781 15.6534L14.7817 15.6546L14.954 15.5532ZM16.1851 17.6443L16.0126 17.7458L16.016 17.7511L16.1851 17.6443ZM16.2167 17.8458L16.0233 17.7948L16.0225 17.798L16.2167 17.8458ZM16.0915 18.0091L16.19 18.1832L16.1915 18.1823L16.0915 18.0091ZM15.8837 18.0341L15.8275 18.2261L15.8306 18.227L15.8837 18.0341ZM15.7221 17.9042L15.8983 17.8093L15.8944 17.8028L15.7221 17.9042ZM14.4923 15.8142L14.3199 15.9157L14.3199 15.9157L14.4923 15.8142ZM14.2468 15.397L14.4192 15.2956L14.413 15.2851L14.4057 15.2755L14.2468 15.397ZM14.2383 15.3839L14.4168 15.2929L14.4102 15.2817L14.2383 15.3839ZM12.91 15.0238L12.8147 14.8478L12.8086 14.8514L12.91 15.0238ZM12.8979 15.031L12.9972 15.2046L12.9993 15.2033L12.8979 15.031ZM12.5369 16.3448L12.364 16.4452L12.3645 16.4461L12.5369 16.3448ZM13.6878 18.3036L13.5153 18.4049L13.5733 18.5036H13.6878V18.3036ZM13.689 18.3036L13.8618 18.2029L13.8039 18.1036H13.689V18.3036ZM13.5905 18.6612L13.4927 18.4868L13.4922 18.4871L13.5905 18.6612ZM13.226 18.5647L13.3988 18.464L13.3983 18.4633L13.226 18.5647ZM9.79667 12.7347L9.96906 12.6333L9.96292 12.6228L9.95556 12.6132L9.79667 12.7347ZM9.78817 12.7204L9.96674 12.6294L9.96007 12.6181L9.78817 12.7204ZM8.44775 12.3675V12.5675H8.49975L8.54517 12.5421L8.44775 12.3675ZM8.44532 12.3675V12.1675H8.39174L8.34534 12.1943L8.44532 12.3675ZM8.08074 13.6694L7.906 13.767L7.91012 13.7737L8.08074 13.6694ZM8.08803 13.6813L8.26042 13.5798L8.25865 13.5769L8.08803 13.6813ZM13.2007 22.3677L13.0283 22.4692L13.0307 22.473L13.2007 22.3677ZM13.1825 22.6693L13.3379 22.7952L13.3381 22.7949L13.1825 22.6693ZM12.8872 22.7552L12.9506 22.5655L12.9505 22.5655L12.8872 22.7552ZM10.3534 21.9087L10.4168 21.719L10.3859 21.7087H10.3534V21.9087ZM10.3522 21.9087L10.3072 22.1036L10.3294 22.1087H10.3522V21.9087ZM8.80272 22.1829L8.69331 22.0149L8.68244 22.0231L8.80272 22.1829ZM8.48919 22.5906L8.30349 22.5163L8.30263 22.5186L8.48919 22.5906ZM8.45516 23.052L8.26003 23.0967L8.26238 23.1053L8.45516 23.052ZM9.06278 23.7626L8.97864 23.9444L8.99057 23.9491L9.06278 23.7626ZM11.9259 24.9762L11.8446 25.159L11.8447 25.159L11.9259 24.9762ZM21.0754 25.4519L20.9776 25.2775L20.9706 25.2814L20.964 25.2858L21.0754 25.4519ZM21.0839 25.4472L21.1818 25.6218L21.1893 25.6171L21.0839 25.4472ZM23.2215 22.2614L23.4214 22.2692L23.4214 22.269L23.2215 22.2614ZM14.9553 15.5532L14.9549 15.3532L14.8027 15.3535L14.7624 15.5003L14.9553 15.5532ZM14.8568 15.9121H14.6568L15.0497 15.965L14.8568 15.9121ZM14.8568 15.9109L14.7597 15.7361L14.6568 15.7932V15.9109H14.8568ZM14.9565 15.5532L15.1293 15.4526L15.0713 15.353L14.9561 15.3532L14.9565 15.5532ZM12.3849 22.0328L12.5573 21.9313L7.79711 13.8434L7.62475 13.9449L7.45238 14.0463L12.2126 22.1342L12.3849 22.0328ZM7.62475 13.9449L7.79536 13.8405C7.79566 13.841 7.79679 13.8429 7.79823 13.8457C7.79972 13.8486 7.8008 13.8511 7.80144 13.8527L7.61624 13.9282L7.43104 14.0037C7.43787 14.0205 7.44532 14.0348 7.45413 14.0492L7.62475 13.9449ZM7.61624 13.9282L7.78996 13.8291C7.44092 13.2173 7.65538 12.4412 8.27777 12.0872L8.1789 11.9134L8.08003 11.7395C7.26843 12.2011 6.9822 13.2204 7.44252 14.0273L7.61624 13.9282ZM8.1789 11.9134L8.2771 12.0876C8.90929 11.7313 9.71458 11.9446 10.0788 12.5601L10.2509 12.4582L10.423 12.3564C9.94626 11.5507 8.89949 11.2776 8.0807 11.7391L8.1789 11.9134ZM10.2509 12.4582L10.0727 12.549C10.0763 12.556 10.0796 12.5617 10.0818 12.5653C10.0839 12.5688 10.0859 12.572 10.0865 12.5728C10.0875 12.5744 10.087 12.5736 10.0863 12.5725C10.0855 12.5712 10.0836 12.5679 10.0812 12.5633L10.2594 12.4725L10.4376 12.3817C10.434 12.3747 10.4307 12.369 10.4285 12.3654C10.4264 12.3619 10.4244 12.3588 10.4238 12.3579C10.4229 12.3564 10.4233 12.3571 10.424 12.3582C10.4248 12.3595 10.4267 12.3628 10.4291 12.3674L10.2509 12.4582ZM10.2594 12.4725L10.087 12.5739L11.7896 15.4674L11.962 15.366L12.1343 15.2646L10.4318 12.3711L10.2594 12.4725ZM11.962 15.366L12.1503 15.4333C12.2509 15.1517 12.4504 14.9121 12.7143 14.7578L12.6134 14.5851L12.5124 14.4124C12.1687 14.6134 11.9064 14.927 11.7736 15.2987L11.962 15.366ZM12.6134 14.5851L12.7193 14.7548C12.7266 14.7502 12.7297 14.7483 12.7322 14.7469C12.7343 14.7457 12.7333 14.7464 12.7304 14.7476L12.6547 14.5625L12.579 14.3773C12.546 14.3908 12.5184 14.4086 12.5074 14.4155L12.6134 14.5851ZM12.6547 14.5625L12.7498 14.7384C13.2182 14.4853 13.7961 14.5341 14.2148 14.8608L14.3378 14.7031L14.4608 14.5455C13.917 14.121 13.1679 14.0578 12.5596 14.3865L12.6547 14.5625ZM14.3378 14.7031L14.5308 14.7556L14.5357 14.7377L14.3427 14.6852L14.1497 14.6328L14.1448 14.6507L14.3378 14.7031ZM14.3427 14.6852L14.2026 14.5425L14.2014 14.5437L14.3414 14.6864L14.4815 14.8292L14.4827 14.828L14.3427 14.6852ZM14.3414 14.6864L14.5345 14.7387C14.6236 14.4095 14.8431 14.1277 15.1457 13.957L15.0475 13.7828L14.9492 13.6086C14.5544 13.8313 14.2659 14.2003 14.1484 14.6342L14.3414 14.6864ZM15.0475 13.7828L15.1458 13.9569C15.6863 13.6519 16.3717 13.7604 16.7872 14.2146L16.9348 14.0796L17.0823 13.9446C16.5402 13.3521 15.6507 13.2127 14.9492 13.6086L15.0475 13.7828ZM16.9348 14.0796L17.1249 14.1415C17.2212 13.8458 17.4258 13.594 17.7 13.4347L17.5995 13.2618L17.499 13.0888C17.1413 13.2967 16.8719 13.6267 16.7446 14.0177L16.9348 14.0796ZM17.5995 13.2618L17.7157 13.4246C17.7158 13.4245 17.716 13.4243 17.7168 13.4239C17.7179 13.4233 17.7201 13.4221 17.7245 13.4201L17.642 13.2379L17.5595 13.0557C17.5362 13.0663 17.5105 13.0796 17.4833 13.099L17.5995 13.2618ZM17.642 13.2379L17.7373 13.4138C18.366 13.0732 19.1573 13.2906 19.515 13.8974L19.6873 13.7959L19.8596 13.6943C19.3909 12.8991 18.3617 12.6206 17.5468 13.0621L17.642 13.2379ZM19.6873 13.7959L19.5149 13.8973L21.6756 17.568L21.848 17.4666L22.0203 17.3651L19.8596 13.6944L19.6873 13.7959ZM21.848 17.4666L21.6863 17.5842C22.9853 19.3694 23.6058 20.9342 23.5548 22.2729L23.7547 22.2805L23.9545 22.2882C24.0105 20.8184 23.3306 19.1641 22.0097 17.3489L21.848 17.4666ZM23.7547 22.2805L23.5548 22.2729C23.5033 23.6277 22.7748 24.781 21.2709 25.7157L21.3765 25.8856L21.482 26.0555C23.0697 25.0687 23.8967 23.8066 23.9545 22.2881L23.7547 22.2805ZM21.3765 25.8856L21.2651 25.7195C19.5689 26.8571 18.0993 27.1361 16.6159 26.9443C15.1163 26.7504 13.594 26.0758 11.7868 25.2725L11.7056 25.4552L11.6243 25.638C13.4165 26.4346 14.9956 27.1381 16.5646 27.341C18.1497 27.5459 19.7159 27.2401 21.4879 26.0517L21.3765 25.8856ZM11.7056 25.4552L11.7867 25.2724C10.9037 24.8804 9.95528 24.4588 8.92086 24.0575L8.84851 24.2439L8.77617 24.4304C9.80037 24.8278 10.7404 25.2455 11.6244 25.638L11.7056 25.4552ZM8.84851 24.2439L8.91757 24.0562C8.91373 24.0548 8.91162 24.0539 8.90865 24.0524L8.82056 24.232L8.73248 24.4116C8.74895 24.4196 8.76385 24.4259 8.77946 24.4316L8.84851 24.2439ZM8.82056 24.232L8.9055 24.0509C8.51416 23.8674 8.22902 23.523 8.12486 23.1122L7.931 23.1614L7.73713 23.2106C7.87116 23.7392 8.2374 24.1794 8.73563 24.4131L8.82056 24.232ZM7.931 23.1614L8.12608 23.1173C8.07787 22.904 8.09517 22.6822 8.17454 22.478L7.98811 22.4055L7.80169 22.3331C7.69391 22.6105 7.6699 22.9133 7.73592 23.2055L7.931 23.1614ZM7.98811 22.4055L8.17436 22.4784C8.25918 22.2617 8.40397 22.0709 8.59242 21.9284L8.47178 21.7689L8.35115 21.6094C8.10453 21.7959 7.91392 22.0463 7.80186 22.3327L7.98811 22.4055ZM8.47178 21.7689L8.5841 21.9344C9.11795 21.5721 9.78331 21.4456 10.4162 21.5873L10.4599 21.3922L10.5036 21.197C9.76331 21.0312 8.98497 21.1789 8.35947 21.6034L8.47178 21.7689ZM10.4599 21.3922L10.4301 21.5899C10.4347 21.5906 10.4366 21.5913 10.4365 21.5913L10.5037 21.4029L10.5709 21.2145C10.544 21.2049 10.5167 21.1985 10.4898 21.1944L10.4599 21.3922ZM10.5037 21.4029L10.4402 21.5925L12.3214 22.2224L12.3849 22.0328L12.4484 21.8431L10.5672 21.2132L10.5037 21.4029ZM24.0195 3.93388L24.1596 4.07665C24.1856 4.05112 24.2305 4.0512 24.2565 4.07701L24.3974 3.93507L24.5383 3.79313C24.3578 3.61388 24.0625 3.61158 23.8795 3.79111L24.0195 3.93388ZM24.3974 3.93507L24.2574 4.07784C24.2818 4.10182 24.2818 4.13816 24.257 4.16225L24.3962 4.30584L24.5354 4.44942C24.7221 4.26848 24.7221 3.97338 24.5375 3.7923L24.3974 3.93507ZM24.3962 4.30584L24.2563 4.16297L22.5853 5.79987L22.7253 5.94274L22.8652 6.08561L24.5362 4.4487L24.3962 4.30584ZM22.7253 5.94274L22.5852 6.08545L24.2549 7.72473L24.395 7.58202L24.5351 7.4393L22.8654 5.80002L22.7253 5.94274ZM24.395 7.58202V7.78202H24.3962V7.58202V7.38202H24.395V7.58202ZM24.3962 7.58202L24.2528 7.72145C24.2764 7.74571 24.2765 7.7829 24.2513 7.80762L24.3914 7.9504L24.5314 8.09317C24.7128 7.91524 24.7178 7.62577 24.5396 7.44258L24.3962 7.58202ZM24.3914 7.9504L24.2522 7.8068C24.2256 7.83256 24.1811 7.83267 24.1546 7.80756L24.0171 7.95278L23.8796 8.09801C24.0621 8.2708 24.3506 8.26852 24.5306 8.09399L24.3914 7.9504ZM24.0171 7.95278L24.1571 7.81002L22.4874 6.17192L22.3473 6.31469L22.2073 6.45746L23.877 8.09555L24.0171 7.95278ZM22.3473 6.31469L22.2073 6.17187L20.5364 7.80996L20.6764 7.95278L20.8164 8.0956L22.4873 6.45751L22.3473 6.31469ZM20.6764 7.95278L20.5371 7.8092C20.5103 7.83519 20.4641 7.83517 20.4373 7.80881L20.2972 7.95159L20.1572 8.09437C20.3393 8.27307 20.6334 8.27305 20.8156 8.09637L20.6764 7.95278ZM20.2972 7.95159L20.4389 7.81046C20.4132 7.78462 20.4143 7.747 20.4389 7.72317L20.2996 7.57961L20.1604 7.43604C19.9735 7.6173 19.9746 7.91112 20.1555 8.09272L20.2972 7.95159ZM20.2996 7.57961L20.4396 7.72248L22.1105 6.08558L21.9706 5.94271L21.8306 5.79984L20.1597 7.43674L20.2996 7.57961ZM21.9706 5.94271L22.1107 5.79994L20.4397 4.16066L20.2996 4.30343L20.1596 4.44619L21.8305 6.08547L21.9706 5.94271ZM20.2996 4.30343L20.4329 4.15431C20.4202 4.14298 20.4136 4.12805 20.4133 4.11167L20.2134 4.11506L20.0134 4.11845C20.0155 4.24513 20.0696 4.3661 20.1663 4.45254L20.2996 4.30343ZM20.2134 4.11506L20.4133 4.11166C20.413 4.09493 20.4194 4.07866 20.4324 4.06588L20.2923 3.92311L20.1523 3.78034C20.0608 3.8701 20.0112 3.99211 20.0134 4.11845L20.2134 4.11506ZM20.2923 3.92311L20.4307 4.06752C20.4445 4.05428 20.4629 4.04729 20.4815 4.0479L20.488 3.848L20.4945 3.64811C20.3672 3.64394 20.2447 3.6918 20.154 3.7787L20.2923 3.92311ZM20.488 3.848L20.4847 4.04798C20.5033 4.04828 20.5198 4.05618 20.5306 4.06813L20.6788 3.93384L20.827 3.79955C20.7406 3.70421 20.6186 3.65011 20.4913 3.64803L20.488 3.848ZM20.6788 3.93384L20.5386 4.07651L22.2072 5.71579L22.3473 5.57312L22.4875 5.43046L20.819 3.79118L20.6788 3.93384ZM22.3473 5.57312L22.4873 5.71594L24.1595 4.0767L24.0195 3.93388L23.8795 3.79106L22.2073 5.4303L22.3473 5.57312ZM22.3473 0.200014V1.39028e-05C20.4675 1.39028e-05 18.692 0.857401 17.5451 2.32287L17.7026 2.44613L17.8601 2.5694C18.9301 1.2022 20.5887 0.400014 22.3473 0.400014V0.200014ZM17.7026 2.44613L17.5451 2.32287C16.3979 3.78865 16.0115 5.69583 16.4986 7.48093L16.6915 7.42828L16.8845 7.37564C16.4309 5.71315 16.7903 3.93627 17.8601 2.5694L17.7026 2.44613ZM16.6915 7.42828L16.4986 7.48101C16.9868 9.26723 18.2924 10.7271 20.0299 11.4335L20.1052 11.2482L20.1806 11.0629C18.5565 10.4027 17.3392 9.03955 16.8844 7.37555L16.6915 7.42828ZM20.1052 11.2482L20.0299 11.4335C21.7683 12.1408 23.7415 12.014 25.3709 11.0908L25.2723 10.9168L25.1737 10.7428C23.651 11.6055 21.8059 11.7243 20.1806 11.063L20.1052 11.2482ZM25.2723 10.9168L25.3709 11.0908C27.0006 10.1675 28.1016 8.55293 28.3482 6.71944L28.15 6.69277L27.9518 6.66611C27.7221 8.37354 26.6964 9.88013 25.1737 10.7428L25.2723 10.9168ZM28.15 6.69277L28.3482 6.71931C28.5937 4.88578 27.9567 3.04567 26.6252 1.73938L26.4851 1.88215L26.3451 2.02491C27.5875 3.24388 28.1803 4.95891 27.9518 6.66624L28.15 6.69277ZM26.4851 1.88215L26.6253 1.73953C25.4914 0.624601 23.9523 -0.00121616 22.3472 1.39624e-05L22.3473 0.200014L22.3475 0.400014C23.8487 0.398863 25.2866 0.984218 26.3449 2.02476L26.4851 1.88215ZM26.1073 2.25538L26.2474 2.11261C25.034 0.922256 23.3273 0.35516 21.628 0.573908L21.6536 0.772272L21.6791 0.970635C23.2583 0.767347 24.8425 1.29471 25.9673 2.39815L26.1073 2.25538ZM21.6536 0.772272L21.6279 0.573929C19.9296 0.793933 18.43 1.77553 17.5719 3.23408L17.7443 3.3355L17.9167 3.43691C18.711 2.08667 20.1013 1.17503 21.6793 0.970614L21.6536 0.772272ZM17.7443 3.3355L17.5719 3.23407C16.7136 4.69283 16.5948 6.46062 17.2526 8.01764L17.4368 7.93981L17.6211 7.86197C17.0126 6.42189 17.1223 4.78702 17.9167 3.43692L17.7443 3.3355ZM17.4368 7.93981L17.2525 8.01751C17.909 9.57439 19.2666 10.7406 20.921 11.1757L20.9719 10.9823L21.0227 10.7889C19.4861 10.3847 18.2285 9.30245 17.6211 7.8621L17.4368 7.93981ZM20.9719 10.9823L20.921 11.1758C22.5766 11.6109 24.3447 11.2662 25.7052 10.242L25.5849 10.0822L25.4646 9.92243C24.2025 10.8725 22.5608 11.1931 21.0227 10.7889L20.9719 10.9823ZM25.5849 10.0822L25.7052 10.242C27.0659 9.21764 27.8654 7.62923 27.8654 5.94395H27.6654H27.4654C27.4654 7.50172 26.7265 8.97252 25.4646 9.92243L25.5849 10.0822ZM27.6654 5.94395L27.8654 5.94413C27.8667 4.50554 27.2842 3.12733 26.2472 2.11244L26.1073 2.25538L25.9674 2.39832C26.9283 3.33869 27.4666 4.61405 27.4654 5.94378L27.6654 5.94395ZM3.04812 5.90837L3.19067 5.76808C3.16503 5.74203 3.16619 5.70434 3.19061 5.68039L3.05055 5.53761L2.9105 5.39483C2.7259 5.57591 2.72706 5.86727 2.90558 6.04866L3.04812 5.90837ZM3.05055 5.53761L3.19145 5.67955C3.21657 5.65462 3.26154 5.65341 3.28889 5.67962L3.42727 5.53522L3.56565 5.39082C3.384 5.21674 3.09113 5.21553 2.90966 5.39566L3.05055 5.53761ZM3.42727 5.53522L3.28721 5.67799L5.12588 7.48181L5.26594 7.33904L5.40601 7.19627L3.56733 5.39245L3.42727 5.53522ZM5.26594 7.33904L5.40598 7.48183L8.82312 4.13069L8.68309 3.9879L8.54305 3.8451L5.12591 7.19625L5.26594 7.33904ZM8.68309 3.9879L8.82315 4.13067C8.84974 4.10458 8.8947 4.10458 8.92139 4.13106L9.06226 3.98909L9.20313 3.84712C9.02076 3.66616 8.72546 3.66616 8.54303 3.84513L8.68309 3.9879ZM9.06226 3.98909L8.92303 4.13266C8.94665 4.15557 8.94788 4.1931 8.92219 4.21832L9.06226 4.36107L9.20233 4.50383C9.38566 4.32395 9.38933 4.02767 9.2015 3.84552L9.06226 3.98909ZM9.06226 4.36107L8.9222 4.21831L5.31652 7.75562L5.45659 7.89839L5.59665 8.04116L9.20232 4.50384L9.06226 4.36107ZM5.45659 7.89839L5.31825 7.75395C5.30427 7.76734 5.28571 7.77469 5.26701 7.77469V7.97469V8.17469C5.38928 8.17469 5.50683 8.1272 5.59492 8.04283L5.45659 7.89839ZM5.26701 7.97469V7.77469C5.24619 7.77469 5.22887 7.76678 5.21749 7.75562L5.07743 7.89839L4.93737 8.04116C5.02564 8.12776 5.14443 8.17469 5.26701 8.17469V7.97469ZM5.07743 7.89839L5.21749 7.75562L3.18926 5.76584L3.0492 5.90861L2.90914 6.05138L4.93737 8.04116L5.07743 7.89839ZM3.0492 5.90861L3.09329 5.71353L3.09222 5.71329L3.04812 5.90837L3.00403 6.10345L3.00511 6.10369L3.0492 5.90861ZM6.05586 0.200165V0.000164673C4.17485 0.000164673 2.39926 0.857523 1.25354 2.32311L1.41111 2.44628L1.56867 2.56946C2.63738 1.20238 4.29598 0.400165 6.05586 0.400165V0.200165ZM1.41111 2.44628L1.2536 2.32303C0.106673 3.78872 -0.281182 5.69588 0.205864 7.48108L0.398812 7.42844L0.59176 7.37579C0.138221 5.71341 0.49894 3.93651 1.56862 2.56954L1.41111 2.44628ZM0.398812 7.42844L0.205889 7.48116C0.694097 9.26738 1.99971 10.7272 3.73721 11.4336L3.81254 11.2484L3.88786 11.0631C2.26378 10.4028 1.04654 9.0397 0.591736 7.37571L0.398812 7.42844ZM3.81254 11.2484L3.73716 11.4336C5.4756 12.141 7.44884 12.0141 9.0794 11.091L8.98087 10.9169L8.88234 10.7429C7.35833 11.6057 5.51323 11.7244 3.88791 11.0631L3.81254 11.2484ZM8.98087 10.9169L9.07946 11.091C10.7091 10.1677 11.8102 8.55305 12.0556 6.71946L11.8574 6.69292L11.6591 6.66639C11.4306 8.37371 10.405 9.88028 8.88229 10.7429L8.98087 10.9169ZM11.8574 6.69292L12.0556 6.71959C12.3023 4.88588 11.6639 3.04575 10.3325 1.73953L10.1925 1.8823L10.0524 2.02506C11.2949 3.2441 11.8888 4.95911 11.6591 6.66626L11.8574 6.69292ZM10.1925 1.8823L10.3327 1.73968C9.19873 0.624766 7.65959 -0.00106543 6.05571 0.000164732L6.05586 0.200165L6.05601 0.400165C7.55593 0.399014 8.99392 0.984355 10.0522 2.02491L10.1925 1.8823ZM9.81463 2.25553L9.95476 2.11284C8.74262 0.92244 7.03468 0.354117 5.33535 0.572871L5.36089 0.771234L5.38642 0.969597C6.96556 0.766315 8.55094 1.29483 9.67449 2.39823L9.81463 2.25553ZM5.36089 0.771234L5.33521 0.572889C3.63568 0.79289 2.13609 1.7745 1.27674 3.23418L1.44909 3.33565L1.62144 3.43712C2.41709 2.08563 3.80739 1.174 5.38656 0.969579L5.36089 0.771234ZM1.44909 3.33565L1.27672 3.23423C0.418344 4.69308 0.300852 6.46082 0.95735 8.01767L1.14164 7.93996L1.32592 7.86225C0.718585 6.42199 0.82714 4.78708 1.62147 3.43707L1.44909 3.33565ZM1.14164 7.93996L0.957403 8.0178C1.6151 9.5745 2.97136 10.7408 4.6271 11.1759L4.67793 10.9825L4.72877 10.789C3.19098 10.3849 1.93448 9.30265 1.32587 7.86212L1.14164 7.93996ZM4.67793 10.9825L4.62696 11.1759C6.28267 11.6122 8.05075 11.2675 9.4125 10.2421L9.2922 10.0824L9.17189 9.9226C7.90857 10.8739 6.26684 11.1944 4.7289 10.7891L4.67793 10.9825ZM9.2922 10.0824L9.41249 10.2422C10.7732 9.21778 11.5727 7.62938 11.5727 5.94411H11.3727H11.1727C11.1727 7.50187 10.4337 8.97266 9.17191 9.92259L9.2922 10.0824ZM11.3727 5.94411L11.5727 5.94428C11.574 4.50569 10.9915 3.12748 9.95452 2.1126L9.81463 2.25553L9.67474 2.39847C10.6356 3.33884 11.1739 4.6142 11.1727 5.94393L11.3727 5.94411ZM21.4094 17.7648L21.5711 17.6471C21.5646 17.6382 21.5621 17.6346 21.5598 17.6311L21.3912 17.7386L21.2225 17.846C21.2324 17.8615 21.242 17.8747 21.2477 17.8825L21.4094 17.7648ZM21.3912 17.7386L21.5635 17.6371L19.398 13.9579L19.2256 14.0593L19.0533 14.1608L21.2188 17.84L21.3912 17.7386ZM19.2256 14.0593L19.3975 13.9571C19.0736 13.4121 18.3714 13.2206 17.8096 13.5191L17.9034 13.6957L17.9973 13.8723C18.3736 13.6724 18.8405 13.8029 19.0537 14.1615L19.2256 14.0593ZM17.9034 13.6957L17.794 13.5283L17.7903 13.5307L17.8998 13.6981L18.0093 13.8655L18.0129 13.8631L17.9034 13.6957ZM17.8998 13.6981L17.8005 13.5245L17.7859 13.5328L17.8852 13.7064L17.9845 13.88L17.9991 13.8717L17.8998 13.6981ZM17.8852 13.7064V13.9064H17.8864V13.7064V13.5064H17.8852V13.7064ZM17.8864 13.7064L17.7869 13.533C17.2376 13.8483 17.0358 14.5353 17.3362 15.0915L17.5121 14.9964L17.6881 14.9014C17.4927 14.5395 17.6214 14.0892 17.986 13.8799L17.8864 13.7064ZM17.5121 14.9964L17.3435 15.1039L17.3495 15.1134L17.5182 15.0059L17.6869 14.8985L17.6808 14.8889L17.5121 14.9964ZM17.5182 15.0059L17.3593 15.1274C17.3556 15.1225 17.3543 15.1196 17.3543 15.1195L17.5364 15.0369L17.7186 14.9544C17.7088 14.9328 17.6954 14.9084 17.6771 14.8845L17.5182 15.0059ZM17.5364 15.0369L17.364 15.1382L18.2037 16.5688L18.3762 16.4676L18.5487 16.3663L17.7089 14.9357L17.5364 15.0369ZM18.3762 16.4676H18.5762V16.4664H18.3762H18.1762V16.4676H18.3762ZM18.3762 16.4664L18.2037 16.5676C18.2206 16.5964 18.2121 16.6331 18.1799 16.6515L18.2789 16.8253L18.378 16.999C18.601 16.8719 18.68 16.5891 18.5487 16.3652L18.3762 16.4664ZM18.2789 16.8253L18.1799 16.6515C18.1459 16.6709 18.103 16.658 18.0852 16.628L17.9132 16.7299L17.7411 16.8318C17.8715 17.0521 18.1568 17.1251 18.378 16.999L18.2789 16.8253ZM17.9132 16.7299L18.0855 16.6284L17.2434 15.1978L17.071 15.2992L16.8986 15.4007L17.7408 16.8313L17.9132 16.7299ZM17.071 15.2992L17.245 15.2007C17.2406 15.1928 17.2363 15.1857 17.2334 15.1809C17.2302 15.1755 17.2284 15.1725 17.2268 15.1697L17.0528 15.2682L16.8787 15.3668C16.8832 15.3747 16.8875 15.3818 16.8904 15.3866C16.8936 15.3919 16.8953 15.3949 16.897 15.3978L17.071 15.2992ZM17.0528 15.2682L17.2251 15.1668L16.8265 14.4896L16.6542 14.591L16.4818 14.6925L16.8804 15.3697L17.0528 15.2682ZM16.6542 14.591L16.829 14.4939L16.8217 14.4807L16.6469 14.5779L16.4721 14.6751L16.4794 14.6882L16.6542 14.591ZM16.6469 14.5779L16.8172 14.4731C16.4887 13.9393 15.794 13.7566 15.2395 14.0508L15.3332 14.2274L15.4269 14.4041C15.7984 14.2071 16.2606 14.3319 16.4766 14.6828L16.6469 14.5779ZM15.3332 14.2274L15.2237 14.0601C15.2206 14.0621 15.2165 14.0644 15.2047 14.0709L15.3004 14.2465L15.3961 14.4221C15.4061 14.4167 15.424 14.407 15.4427 14.3948L15.3332 14.2274ZM15.3004 14.2465L15.1981 14.0746C14.6484 14.4016 14.4616 15.1018 14.781 15.6534L14.954 15.5532L15.1271 15.4529C14.9191 15.0937 15.0385 14.635 15.4026 14.4184L15.3004 14.2465ZM14.954 15.5532L14.7817 15.6546L16.0127 17.7458L16.1851 17.6443L16.3574 17.5428L15.1264 15.4517L14.954 15.5532ZM16.1851 17.6443L16.016 17.7511C16.0248 17.7651 16.027 17.7808 16.0233 17.7948L16.2167 17.8458L16.4101 17.8968C16.4428 17.7724 16.4207 17.6427 16.3541 17.5374L16.1851 17.6443ZM16.2167 17.8458L16.0225 17.798C16.0194 17.8105 16.0098 17.8254 15.9915 17.8359L16.0915 18.0091L16.1915 18.1823C16.2972 18.1213 16.3799 18.0194 16.4109 17.8936L16.2167 17.8458ZM16.0915 18.0091L15.993 17.8351C15.9773 17.8439 15.9567 17.8468 15.9368 17.8413L15.8837 18.0341L15.8306 18.227C15.9493 18.2596 16.0793 18.2458 16.19 18.1832L16.0915 18.0091ZM15.8837 18.0341L15.9399 17.8422C15.9206 17.8366 15.9062 17.8243 15.8982 17.8094L15.7221 17.9042L15.546 17.999C15.606 18.1105 15.7082 18.1912 15.8275 18.2261L15.8837 18.0341ZM15.7221 17.9042L15.8944 17.8028L14.6646 15.7128L14.4923 15.8142L14.3199 15.9157L15.5497 18.0056L15.7221 17.9042ZM14.4923 15.8142L14.6646 15.7128L14.4192 15.2956L14.2468 15.397L14.0744 15.4984L14.3199 15.9157L14.4923 15.8142ZM14.2468 15.397L14.4057 15.2755C14.4053 15.2751 14.407 15.2772 14.4093 15.2808C14.412 15.2848 14.4144 15.289 14.4165 15.293L14.2383 15.3839L14.0601 15.4747C14.07 15.4941 14.0801 15.5083 14.0879 15.5184L14.2468 15.397ZM14.2383 15.3839L14.4102 15.2817C14.0847 14.7337 13.3768 14.5437 12.8148 14.8479L12.91 15.0238L13.0052 15.1997C13.3814 14.9961 13.8522 15.1255 14.0663 15.486L14.2383 15.3839ZM12.91 15.0238L12.8086 14.8514L12.7964 14.8586L12.8979 15.031L12.9993 15.2033L13.0115 15.1962L12.91 15.0238ZM12.8979 15.031L12.7985 14.8574C12.2375 15.1784 12.0398 15.8872 12.364 16.4452L12.5369 16.3448L12.7099 16.2443C12.4994 15.882 12.6249 15.4176 12.9972 15.2045L12.8979 15.031ZM12.5369 16.3448L12.3645 16.4461L13.5153 18.4049L13.6878 18.3036L13.8602 18.2023L12.7094 16.2435L12.5369 16.3448ZM13.6878 18.3036V18.5036H13.689V18.3036V18.1036H13.6878V18.3036ZM13.689 18.3036L13.5161 18.4042C13.5326 18.4324 13.5233 18.4696 13.4927 18.4868L13.5905 18.6612L13.6883 18.8357C13.9129 18.7098 13.9912 18.4251 13.8618 18.2029L13.689 18.3036ZM13.5905 18.6612L13.4922 18.4871C13.4573 18.5068 13.4159 18.4934 13.3988 18.464L13.226 18.5647L13.0531 18.6653C13.1819 18.8864 13.4661 18.9612 13.6889 18.8354L13.5905 18.6612ZM13.226 18.5647L13.3983 18.4633L9.96906 12.6333L9.79667 12.7347L9.62428 12.8361L13.0536 18.6661L13.226 18.5647ZM9.79667 12.7347L9.95556 12.6132C9.96033 12.6194 9.9636 12.6248 9.96547 12.628C9.96694 12.6306 9.9679 12.6326 9.96636 12.6295L9.78817 12.7204L9.60997 12.8112C9.61172 12.8146 9.62159 12.8349 9.63778 12.8561L9.79667 12.7347ZM9.78817 12.7204L9.96007 12.6181C9.63148 12.0655 8.91345 11.8787 8.35033 12.1928L8.44775 12.3675L8.54517 12.5421C8.92264 12.3316 9.40042 12.4596 9.61626 12.8226L9.78817 12.7204ZM8.44775 12.3675V12.1675H8.44532V12.3675V12.5675H8.44775V12.3675ZM8.44532 12.3675L8.34534 12.1943C7.79119 12.5141 7.59575 13.2113 7.90614 13.7669L8.08074 13.6694L8.25534 13.5718C8.05291 13.2094 8.17828 12.7525 8.5453 12.5407L8.44532 12.3675ZM8.08074 13.6694L7.91012 13.7737L7.91741 13.7856L8.08803 13.6813L8.25865 13.5769L8.25136 13.565L8.08074 13.6694ZM8.08803 13.6813L7.91567 13.7827L13.0283 22.4691L13.2007 22.3677L13.373 22.2662L8.26039 13.5798L8.08803 13.6813ZM13.2007 22.3677L13.0307 22.473C13.0446 22.4955 13.0423 22.5245 13.0268 22.5437L13.1825 22.6693L13.3381 22.7949C13.4611 22.6425 13.4734 22.4282 13.3707 22.2624L13.2007 22.3677ZM13.1825 22.6693L13.027 22.5434C13.0091 22.5656 12.9784 22.5748 12.9506 22.5655L12.8872 22.7552L12.8237 22.9448C13.0097 23.0071 13.2149 22.9471 13.3379 22.7952L13.1825 22.6693ZM12.8872 22.7552L12.9505 22.5655L10.4168 21.719L10.3534 21.9087L10.29 22.0984L12.8238 22.9449L12.8872 22.7552ZM10.3534 21.9087V21.7087H10.3522V21.9087V22.1087H10.3534V21.9087ZM10.3522 21.9087L10.3971 21.7138C9.81185 21.5788 9.19477 21.6888 8.69356 22.0153L8.80272 22.1829L8.91188 22.3505C9.32213 22.0833 9.82795 21.993 10.3072 22.1036L10.3522 21.9087ZM8.80272 22.1829L8.68244 22.0231C8.51281 22.1508 8.38174 22.3208 8.30351 22.5163L8.48919 22.5906L8.67488 22.6649C8.72545 22.5386 8.8107 22.4272 8.923 22.3427L8.80272 22.1829ZM8.48919 22.5906L8.30263 22.5186C8.23139 22.7029 8.21591 22.9033 8.26022 23.0967L8.45516 23.052L8.65011 23.0073C8.62393 22.8931 8.63276 22.774 8.67575 22.6627L8.48919 22.5906ZM8.45516 23.052L8.26238 23.1053C8.36463 23.4754 8.62759 23.7816 8.97881 23.9441L9.06278 23.7626L9.14675 23.581C8.90009 23.4669 8.71826 23.2533 8.64794 22.9988L8.45516 23.052ZM9.06278 23.7626L8.99057 23.9491C10.0231 24.3488 10.9619 24.7665 11.8446 25.159L11.9259 24.9762L12.0071 24.7935C11.1254 24.4014 10.178 23.9798 9.13498 23.576L9.06278 23.7626ZM11.9259 24.9762L11.8447 25.159C13.5579 25.9205 15.068 26.5933 16.5567 26.7955C18.0615 26.9999 19.5374 26.7239 21.1868 25.618L21.0754 25.4519L20.964 25.2858C19.3931 26.339 18.0151 26.5899 16.6105 26.3991C15.1898 26.2062 13.7353 25.5616 12.0071 24.7935L11.9259 24.9762ZM21.0754 25.4519L21.1732 25.6264L21.1817 25.6216L21.0839 25.4472L20.9861 25.2727L20.9776 25.2775L21.0754 25.4519ZM21.0839 25.4472L21.1893 25.6171C22.6207 24.7292 23.3695 23.6096 23.4214 22.2692L23.2215 22.2614L23.0217 22.2537C22.9763 23.4267 22.33 24.4388 20.9785 25.2772L21.0839 25.4472ZM23.2215 22.2614L23.4214 22.269C23.4725 20.9159 22.824 19.3676 21.5711 17.647L21.4094 17.7648L21.2477 17.8825C22.4811 19.5762 23.0677 21.0342 23.0217 22.2539L23.2215 22.2614ZM14.9553 15.5532L14.7624 15.5003L14.664 15.8592L14.8568 15.9121L15.0497 15.965L15.1482 15.6062L14.9553 15.5532ZM14.8568 15.9121H15.0568V15.9109H14.8568H14.6568V15.9121H14.8568ZM14.8568 15.9109L14.9539 16.0858C15.1802 15.9601 15.2589 15.6751 15.1293 15.4526L14.9565 15.5532L14.7837 15.6539C14.7999 15.6818 14.7911 15.7187 14.7597 15.7361L14.8568 15.9109ZM14.9565 15.5532L14.9561 15.3532L14.9549 15.3532L14.9553 15.5532L14.9557 15.7532L14.9569 15.7532L14.9565 15.5532Z" fill="currentColor" mask="url(#path-1-outside-1_194_1613)"/>
</svg>