
<svg width="27" height="25" viewBox="0 0 27 25" fill="none" xmlns="http://www.w3.org/2000/svg">
<mask id="path-1-outside-1_194_1596" maskUnits="userSpaceOnUse" x="-0.800049" y="-0.800049" width="28" height="26" fill="black">
<rect fill="white" x="-0.800049" y="-0.800049" width="28" height="26"/>
<path d="M13.2007 5.10921C10.7757 5.10921 8.80275 7.08971 8.80275 9.5239V9.7587C8.80275 10.3327 9.26718 10.7988 9.83895 10.7988H16.5624C17.1342 10.7988 17.5986 10.3326 17.5986 9.7587V9.5239C17.5986 7.08968 15.6256 5.10921 13.2007 5.10921ZM17.0675 9.75882C17.0675 10.039 16.8403 10.267 16.5612 10.267H9.83895C9.55984 10.267 9.33271 10.039 9.33271 9.75882V9.52402C9.33271 7.38358 11.0673 5.64247 13.1995 5.64247C15.3318 5.64247 17.0663 7.38364 17.0663 9.52402L17.0675 9.75882ZM13.2007 4.73491C14.4459 4.73491 15.4595 3.71744 15.4595 2.46743C15.4595 1.21742 14.4459 0.199951 13.2007 0.199951C11.9554 0.199951 10.9418 1.21742 10.9418 2.46743C10.9418 3.71744 11.9554 4.73491 13.2007 4.73491ZM13.2007 0.733151C14.1533 0.733151 14.9284 1.51129 14.9284 2.46752C14.9284 3.42375 14.1533 4.20188 13.2007 4.20188C12.2481 4.20188 11.4729 3.42375 11.4729 2.46752C11.4729 1.51129 12.2481 0.733151 13.2007 0.733151ZM13.2007 19.5287C11.2254 19.5287 9.61851 21.1417 9.61851 23.1245V23.3128C9.61851 23.8017 10.0151 24.1999 10.5022 24.1999H15.8978C16.3849 24.1999 16.7815 23.8017 16.7815 23.3128V23.1245C16.7826 21.1418 15.1759 19.5287 13.2007 19.5287ZM16.2517 23.3127C16.2517 23.5078 16.0935 23.6678 15.898 23.6678L10.5035 23.6666C10.3091 23.6666 10.1498 23.5078 10.1498 23.3116V23.1233C10.1498 21.4343 11.5182 20.0606 13.2008 20.0606C14.8834 20.0606 16.2519 21.4343 16.2519 23.1233L16.2517 23.3127ZM11.3363 17.4609C11.3363 18.4931 12.1725 19.3325 13.2008 19.3325C14.2291 19.3325 15.0652 18.4931 15.0652 17.4609C15.0652 16.4287 14.2291 15.5893 13.2008 15.5893C12.1725 15.5893 11.3363 16.4287 11.3363 17.4609ZM13.2008 16.1213C13.9364 16.1213 14.5353 16.7225 14.5353 17.4609C14.5353 18.1994 13.9364 18.8005 13.2008 18.8005C12.4651 18.8005 11.8662 18.1994 11.8662 17.4609C11.8662 16.7225 12.4651 16.1213 13.2008 16.1213ZM12.9352 14.6501V12.3804L12.4798 12.8375C12.3759 12.9418 12.2086 12.9418 12.1047 12.8375C12.0007 12.7331 12.0007 12.5652 12.1047 12.4609L13.0132 11.5489C13.1171 11.4446 13.2844 11.4446 13.3883 11.5489L14.2968 12.4609C14.4008 12.5652 14.4008 12.7331 14.2968 12.8375C14.1929 12.9418 14.0256 12.9418 13.9217 12.8375L13.4663 12.3804V14.6501C13.4663 14.7976 13.3476 14.9167 13.2007 14.9167C13.0538 14.9167 12.9352 14.7976 12.9352 14.6501ZM3.7821 19.5288C1.80687 19.5288 0.199951 21.1418 0.199951 23.1246V23.3129C0.199951 23.8018 0.596583 24.2 1.08361 24.2H6.48042C6.96745 24.2 7.36408 23.8018 7.36408 23.3129V23.1246C7.36408 21.1419 5.75739 19.5288 3.7821 19.5288ZM6.83429 23.3128C6.83429 23.5079 6.67609 23.6678 6.48059 23.6678L1.08494 23.6667C0.890583 23.6667 0.731242 23.5079 0.731242 23.3117V23.1234C0.731242 21.4344 2.09968 20.0607 3.78228 20.0607C5.46487 20.0607 6.83331 21.4344 6.83331 23.1234L6.83429 23.3128ZM3.7821 19.3325C4.8104 19.3325 5.6466 18.4931 5.6466 17.4609C5.6466 16.4287 4.8104 15.5893 3.7821 15.5893C2.7538 15.5893 1.91761 16.4287 1.91761 17.4609C1.91761 18.4931 2.7538 19.3325 3.7821 19.3325ZM3.7821 16.1212C4.51774 16.1212 5.11664 16.7224 5.11664 17.4608C5.11664 18.1992 4.51774 18.8004 3.7821 18.8004C3.04646 18.8004 2.44757 18.1992 2.44757 17.4608C2.4487 16.7224 3.04646 16.1212 3.7821 16.1212ZM8.14733 7.76601C8.19705 7.81592 8.2253 7.88398 8.2253 7.95431C8.2253 8.02463 8.19705 8.09269 8.14733 8.1426L7.23882 9.05458C7.13486 9.15893 6.96762 9.15893 6.86365 9.05458C6.75969 8.95022 6.75969 8.78234 6.86365 8.67798L7.31904 8.22086H4.04757V14.6502C4.04757 14.7977 3.92892 14.9168 3.78202 14.9168C3.63512 14.9168 3.51647 14.7977 3.51647 14.6502L3.5176 7.95429C3.5176 7.80683 3.63625 7.68773 3.78315 7.68773H7.32018L6.86479 7.2306C6.76083 7.12625 6.76083 6.95837 6.86479 6.85401C6.96875 6.74964 7.13599 6.74965 7.23996 6.85401L8.14733 7.76601ZM22.6191 19.5288C20.6439 19.5288 19.037 21.1418 19.037 23.1246V23.3129C19.037 23.8018 19.4336 24.2 19.9206 24.2H25.3163C25.8033 24.2 26.2 23.8018 26.2 23.3129V23.1246C26.2 21.1419 24.5933 19.5288 22.6191 19.5288ZM25.6702 23.3128C25.6702 23.5079 25.512 23.6678 25.3165 23.6678L19.9208 23.6667C19.7265 23.6667 19.5671 23.5079 19.5671 23.3117V23.1234C19.5671 21.4344 20.9356 20.0607 22.6181 20.0607C24.3007 20.0607 25.6692 21.4344 25.6692 23.1234L25.6702 23.3128ZM20.7536 17.461C20.7536 18.4932 21.5898 19.3326 22.6181 19.3326C23.6464 19.3326 24.4826 18.4932 24.4826 17.461C24.4826 16.4288 23.6464 15.5894 22.6181 15.5894C21.5898 15.5894 20.7536 16.4288 20.7536 17.461ZM23.9527 17.461C23.9527 18.1994 23.3538 18.8006 22.6182 18.8006C21.8825 18.8006 21.2836 18.1994 21.2836 17.461C21.2836 16.7226 21.8825 16.1214 22.6182 16.1214C23.3549 16.1214 23.9527 16.7226 23.9527 17.461ZM19.1617 9.05473L18.2531 8.14275C18.1492 8.03839 18.1492 7.87052 18.2531 7.76615L19.1617 6.85418C19.2656 6.74982 19.4329 6.74982 19.5368 6.85418C19.6408 6.95854 19.6408 7.12641 19.5368 7.23078L19.0814 7.6879H22.6185C22.7654 7.6879 22.884 7.807 22.884 7.95446V14.6504C22.884 14.7978 22.7654 14.9169 22.6185 14.9169C22.4716 14.9169 22.3529 14.7978 22.3529 14.6504L22.354 8.22103H19.0817L19.5382 8.67815C19.6422 8.78251 19.6422 8.95038 19.5382 9.05475C19.4343 9.15911 19.2656 9.15908 19.1617 9.05473Z"/>
</mask>
<path d="M13.2007 5.10921C10.7757 5.10921 8.80275 7.08971 8.80275 9.5239V9.7587C8.80275 10.3327 9.26718 10.7988 9.83895 10.7988H16.5624C17.1342 10.7988 17.5986 10.3326 17.5986 9.7587V9.5239C17.5986 7.08968 15.6256 5.10921 13.2007 5.10921ZM17.0675 9.75882C17.0675 10.039 16.8403 10.267 16.5612 10.267H9.83895C9.55984 10.267 9.33271 10.039 9.33271 9.75882V9.52402C9.33271 7.38358 11.0673 5.64247 13.1995 5.64247C15.3318 5.64247 17.0663 7.38364 17.0663 9.52402L17.0675 9.75882ZM13.2007 4.73491C14.4459 4.73491 15.4595 3.71744 15.4595 2.46743C15.4595 1.21742 14.4459 0.199951 13.2007 0.199951C11.9554 0.199951 10.9418 1.21742 10.9418 2.46743C10.9418 3.71744 11.9554 4.73491 13.2007 4.73491ZM13.2007 0.733151C14.1533 0.733151 14.9284 1.51129 14.9284 2.46752C14.9284 3.42375 14.1533 4.20188 13.2007 4.20188C12.2481 4.20188 11.4729 3.42375 11.4729 2.46752C11.4729 1.51129 12.2481 0.733151 13.2007 0.733151ZM13.2007 19.5287C11.2254 19.5287 9.61851 21.1417 9.61851 23.1245V23.3128C9.61851 23.8017 10.0151 24.1999 10.5022 24.1999H15.8978C16.3849 24.1999 16.7815 23.8017 16.7815 23.3128V23.1245C16.7826 21.1418 15.1759 19.5287 13.2007 19.5287ZM16.2517 23.3127C16.2517 23.5078 16.0935 23.6678 15.898 23.6678L10.5035 23.6666C10.3091 23.6666 10.1498 23.5078 10.1498 23.3116V23.1233C10.1498 21.4343 11.5182 20.0606 13.2008 20.0606C14.8834 20.0606 16.2519 21.4343 16.2519 23.1233L16.2517 23.3127ZM11.3363 17.4609C11.3363 18.4931 12.1725 19.3325 13.2008 19.3325C14.2291 19.3325 15.0652 18.4931 15.0652 17.4609C15.0652 16.4287 14.2291 15.5893 13.2008 15.5893C12.1725 15.5893 11.3363 16.4287 11.3363 17.4609ZM13.2008 16.1213C13.9364 16.1213 14.5353 16.7225 14.5353 17.4609C14.5353 18.1994 13.9364 18.8005 13.2008 18.8005C12.4651 18.8005 11.8662 18.1994 11.8662 17.4609C11.8662 16.7225 12.4651 16.1213 13.2008 16.1213ZM12.9352 14.6501V12.3804L12.4798 12.8375C12.3759 12.9418 12.2086 12.9418 12.1047 12.8375C12.0007 12.7331 12.0007 12.5652 12.1047 12.4609L13.0132 11.5489C13.1171 11.4446 13.2844 11.4446 13.3883 11.5489L14.2968 12.4609C14.4008 12.5652 14.4008 12.7331 14.2968 12.8375C14.1929 12.9418 14.0256 12.9418 13.9217 12.8375L13.4663 12.3804V14.6501C13.4663 14.7976 13.3476 14.9167 13.2007 14.9167C13.0538 14.9167 12.9352 14.7976 12.9352 14.6501ZM3.7821 19.5288C1.80687 19.5288 0.199951 21.1418 0.199951 23.1246V23.3129C0.199951 23.8018 0.596583 24.2 1.08361 24.2H6.48042C6.96745 24.2 7.36408 23.8018 7.36408 23.3129V23.1246C7.36408 21.1419 5.75739 19.5288 3.7821 19.5288ZM6.83429 23.3128C6.83429 23.5079 6.67609 23.6678 6.48059 23.6678L1.08494 23.6667C0.890583 23.6667 0.731242 23.5079 0.731242 23.3117V23.1234C0.731242 21.4344 2.09968 20.0607 3.78228 20.0607C5.46487 20.0607 6.83331 21.4344 6.83331 23.1234L6.83429 23.3128ZM3.7821 19.3325C4.8104 19.3325 5.6466 18.4931 5.6466 17.4609C5.6466 16.4287 4.8104 15.5893 3.7821 15.5893C2.7538 15.5893 1.91761 16.4287 1.91761 17.4609C1.91761 18.4931 2.7538 19.3325 3.7821 19.3325ZM3.7821 16.1212C4.51774 16.1212 5.11664 16.7224 5.11664 17.4608C5.11664 18.1992 4.51774 18.8004 3.7821 18.8004C3.04646 18.8004 2.44757 18.1992 2.44757 17.4608C2.4487 16.7224 3.04646 16.1212 3.7821 16.1212ZM8.14733 7.76601C8.19705 7.81592 8.2253 7.88398 8.2253 7.95431C8.2253 8.02463 8.19705 8.09269 8.14733 8.1426L7.23882 9.05458C7.13486 9.15893 6.96762 9.15893 6.86365 9.05458C6.75969 8.95022 6.75969 8.78234 6.86365 8.67798L7.31904 8.22086H4.04757V14.6502C4.04757 14.7977 3.92892 14.9168 3.78202 14.9168C3.63512 14.9168 3.51647 14.7977 3.51647 14.6502L3.5176 7.95429C3.5176 7.80683 3.63625 7.68773 3.78315 7.68773H7.32018L6.86479 7.2306C6.76083 7.12625 6.76083 6.95837 6.86479 6.85401C6.96875 6.74964 7.13599 6.74965 7.23996 6.85401L8.14733 7.76601ZM22.6191 19.5288C20.6439 19.5288 19.037 21.1418 19.037 23.1246V23.3129C19.037 23.8018 19.4336 24.2 19.9206 24.2H25.3163C25.8033 24.2 26.2 23.8018 26.2 23.3129V23.1246C26.2 21.1419 24.5933 19.5288 22.6191 19.5288ZM25.6702 23.3128C25.6702 23.5079 25.512 23.6678 25.3165 23.6678L19.9208 23.6667C19.7265 23.6667 19.5671 23.5079 19.5671 23.3117V23.1234C19.5671 21.4344 20.9356 20.0607 22.6181 20.0607C24.3007 20.0607 25.6692 21.4344 25.6692 23.1234L25.6702 23.3128ZM20.7536 17.461C20.7536 18.4932 21.5898 19.3326 22.6181 19.3326C23.6464 19.3326 24.4826 18.4932 24.4826 17.461C24.4826 16.4288 23.6464 15.5894 22.6181 15.5894C21.5898 15.5894 20.7536 16.4288 20.7536 17.461ZM23.9527 17.461C23.9527 18.1994 23.3538 18.8006 22.6182 18.8006C21.8825 18.8006 21.2836 18.1994 21.2836 17.461C21.2836 16.7226 21.8825 16.1214 22.6182 16.1214C23.3549 16.1214 23.9527 16.7226 23.9527 17.461ZM19.1617 9.05473L18.2531 8.14275C18.1492 8.03839 18.1492 7.87052 18.2531 7.76615L19.1617 6.85418C19.2656 6.74982 19.4329 6.74982 19.5368 6.85418C19.6408 6.95854 19.6408 7.12641 19.5368 7.23078L19.0814 7.6879H22.6185C22.7654 7.6879 22.884 7.807 22.884 7.95446V14.6504C22.884 14.7978 22.7654 14.9169 22.6185 14.9169C22.4716 14.9169 22.3529 14.7978 22.3529 14.6504L22.354 8.22103H19.0817L19.5382 8.67815C19.6422 8.78251 19.6422 8.95038 19.5382 9.05475C19.4343 9.15911 19.2656 9.15908 19.1617 9.05473Z" fill="currentColor"/>
<path d="M13.2007 5.10921C10.7757 5.10921 8.80275 7.08971 8.80275 9.5239V9.7587C8.80275 10.3327 9.26718 10.7988 9.83895 10.7988H16.5624C17.1342 10.7988 17.5986 10.3326 17.5986 9.7587V9.5239C17.5986 7.08968 15.6256 5.10921 13.2007 5.10921ZM17.0675 9.75882C17.0675 10.039 16.8403 10.267 16.5612 10.267H9.83895C9.55984 10.267 9.33271 10.039 9.33271 9.75882V9.52402C9.33271 7.38358 11.0673 5.64247 13.1995 5.64247C15.3318 5.64247 17.0663 7.38364 17.0663 9.52402L17.0675 9.75882ZM13.2007 4.73491C14.4459 4.73491 15.4595 3.71744 15.4595 2.46743C15.4595 1.21742 14.4459 0.199951 13.2007 0.199951C11.9554 0.199951 10.9418 1.21742 10.9418 2.46743C10.9418 3.71744 11.9554 4.73491 13.2007 4.73491ZM13.2007 0.733151C14.1533 0.733151 14.9284 1.51129 14.9284 2.46752C14.9284 3.42375 14.1533 4.20188 13.2007 4.20188C12.2481 4.20188 11.4729 3.42375 11.4729 2.46752C11.4729 1.51129 12.2481 0.733151 13.2007 0.733151ZM13.2007 19.5287C11.2254 19.5287 9.61851 21.1417 9.61851 23.1245V23.3128C9.61851 23.8017 10.0151 24.1999 10.5022 24.1999H15.8978C16.3849 24.1999 16.7815 23.8017 16.7815 23.3128V23.1245C16.7826 21.1418 15.1759 19.5287 13.2007 19.5287ZM16.2517 23.3127C16.2517 23.5078 16.0935 23.6678 15.898 23.6678L10.5035 23.6666C10.3091 23.6666 10.1498 23.5078 10.1498 23.3116V23.1233C10.1498 21.4343 11.5182 20.0606 13.2008 20.0606C14.8834 20.0606 16.2519 21.4343 16.2519 23.1233L16.2517 23.3127ZM11.3363 17.4609C11.3363 18.4931 12.1725 19.3325 13.2008 19.3325C14.2291 19.3325 15.0652 18.4931 15.0652 17.4609C15.0652 16.4287 14.2291 15.5893 13.2008 15.5893C12.1725 15.5893 11.3363 16.4287 11.3363 17.4609ZM13.2008 16.1213C13.9364 16.1213 14.5353 16.7225 14.5353 17.4609C14.5353 18.1994 13.9364 18.8005 13.2008 18.8005C12.4651 18.8005 11.8662 18.1994 11.8662 17.4609C11.8662 16.7225 12.4651 16.1213 13.2008 16.1213ZM12.9352 14.6501V12.3804L12.4798 12.8375C12.3759 12.9418 12.2086 12.9418 12.1047 12.8375C12.0007 12.7331 12.0007 12.5652 12.1047 12.4609L13.0132 11.5489C13.1171 11.4446 13.2844 11.4446 13.3883 11.5489L14.2968 12.4609C14.4008 12.5652 14.4008 12.7331 14.2968 12.8375C14.1929 12.9418 14.0256 12.9418 13.9217 12.8375L13.4663 12.3804V14.6501C13.4663 14.7976 13.3476 14.9167 13.2007 14.9167C13.0538 14.9167 12.9352 14.7976 12.9352 14.6501ZM3.7821 19.5288C1.80687 19.5288 0.199951 21.1418 0.199951 23.1246V23.3129C0.199951 23.8018 0.596583 24.2 1.08361 24.2H6.48042C6.96745 24.2 7.36408 23.8018 7.36408 23.3129V23.1246C7.36408 21.1419 5.75739 19.5288 3.7821 19.5288ZM6.83429 23.3128C6.83429 23.5079 6.67609 23.6678 6.48059 23.6678L1.08494 23.6667C0.890583 23.6667 0.731242 23.5079 0.731242 23.3117V23.1234C0.731242 21.4344 2.09968 20.0607 3.78228 20.0607C5.46487 20.0607 6.83331 21.4344 6.83331 23.1234L6.83429 23.3128ZM3.7821 19.3325C4.8104 19.3325 5.6466 18.4931 5.6466 17.4609C5.6466 16.4287 4.8104 15.5893 3.7821 15.5893C2.7538 15.5893 1.91761 16.4287 1.91761 17.4609C1.91761 18.4931 2.7538 19.3325 3.7821 19.3325ZM3.7821 16.1212C4.51774 16.1212 5.11664 16.7224 5.11664 17.4608C5.11664 18.1992 4.51774 18.8004 3.7821 18.8004C3.04646 18.8004 2.44757 18.1992 2.44757 17.4608C2.4487 16.7224 3.04646 16.1212 3.7821 16.1212ZM8.14733 7.76601C8.19705 7.81592 8.2253 7.88398 8.2253 7.95431C8.2253 8.02463 8.19705 8.09269 8.14733 8.1426L7.23882 9.05458C7.13486 9.15893 6.96762 9.15893 6.86365 9.05458C6.75969 8.95022 6.75969 8.78234 6.86365 8.67798L7.31904 8.22086H4.04757V14.6502C4.04757 14.7977 3.92892 14.9168 3.78202 14.9168C3.63512 14.9168 3.51647 14.7977 3.51647 14.6502L3.5176 7.95429C3.5176 7.80683 3.63625 7.68773 3.78315 7.68773H7.32018L6.86479 7.2306C6.76083 7.12625 6.76083 6.95837 6.86479 6.85401C6.96875 6.74964 7.13599 6.74965 7.23996 6.85401L8.14733 7.76601ZM22.6191 19.5288C20.6439 19.5288 19.037 21.1418 19.037 23.1246V23.3129C19.037 23.8018 19.4336 24.2 19.9206 24.2H25.3163C25.8033 24.2 26.2 23.8018 26.2 23.3129V23.1246C26.2 21.1419 24.5933 19.5288 22.6191 19.5288ZM25.6702 23.3128C25.6702 23.5079 25.512 23.6678 25.3165 23.6678L19.9208 23.6667C19.7265 23.6667 19.5671 23.5079 19.5671 23.3117V23.1234C19.5671 21.4344 20.9356 20.0607 22.6181 20.0607C24.3007 20.0607 25.6692 21.4344 25.6692 23.1234L25.6702 23.3128ZM20.7536 17.461C20.7536 18.4932 21.5898 19.3326 22.6181 19.3326C23.6464 19.3326 24.4826 18.4932 24.4826 17.461C24.4826 16.4288 23.6464 15.5894 22.6181 15.5894C21.5898 15.5894 20.7536 16.4288 20.7536 17.461ZM23.9527 17.461C23.9527 18.1994 23.3538 18.8006 22.6182 18.8006C21.8825 18.8006 21.2836 18.1994 21.2836 17.461C21.2836 16.7226 21.8825 16.1214 22.6182 16.1214C23.3549 16.1214 23.9527 16.7226 23.9527 17.461ZM19.1617 9.05473L18.2531 8.14275C18.1492 8.03839 18.1492 7.87052 18.2531 7.76615L19.1617 6.85418C19.2656 6.74982 19.4329 6.74982 19.5368 6.85418C19.6408 6.95854 19.6408 7.12641 19.5368 7.23078L19.0814 7.6879H22.6185C22.7654 7.6879 22.884 7.807 22.884 7.95446V14.6504C22.884 14.7978 22.7654 14.9169 22.6185 14.9169C22.4716 14.9169 22.3529 14.7978 22.3529 14.6504L22.354 8.22103H19.0817L19.5382 8.67815C19.6422 8.78251 19.6422 8.95038 19.5382 9.05475C19.4343 9.15911 19.2656 9.15908 19.1617 9.05473Z" stroke="currentColor" stroke-width="0.4" mask="url(#path-1-outside-1_194_1596)"/>
</svg>