
<svg width="26" height="26" viewBox="0 0 26 26" fill="none" xmlns="http://www.w3.org/2000/svg">
<path d="M11.0089 0.100342C14.2696 0.1005 16.9161 2.74698 16.9161 6.00757C16.916 9.26123 14.2695 11.916 11.0089 11.9148C7.74815 11.9148 5.10184 9.26829 5.10168 6.00757C5.10168 2.74671 7.74805 0.100342 11.0089 0.100342ZM11.0089 1.0271C8.26636 1.0271 6.02844 3.26485 6.02844 6.00757C6.0286 8.75132 8.26645 10.988 11.0089 10.988C13.7512 10.9879 15.9892 8.74988 15.9894 6.00757C15.9894 3.26512 13.7513 1.02726 11.0089 1.0271Z" fill="currentColor" stroke="currentColor" stroke-width="0.2"/>
<path d="M11.7869 15.0659C13.8662 15.0659 15.8523 15.693 17.5525 16.8755C17.9636 16.6819 18.4101 16.563 18.8806 16.563C19.5595 16.563 20.2038 16.7821 20.7341 17.187C21.8657 16.3326 23.4546 16.3635 24.5681 17.2622L24.7878 17.4565L24.7888 17.4575C25.9903 18.6603 25.9904 20.6212 24.7888 21.8228L21.075 25.5366L21.071 25.5396C21.057 25.5524 21.0417 25.5597 21.0281 25.5679C21.0223 25.5733 21.0167 25.5781 21.0134 25.5806C21.0094 25.5835 21.005 25.5858 21.0027 25.5874L20.9949 25.5952L20.9851 25.6011C20.9137 25.6459 20.8295 25.6753 20.7419 25.6753H0.564209C0.304425 25.6753 0.100551 25.4693 0.100342 25.2114C0.100342 22.5098 1.15734 19.9611 3.073 18.0386C4.98179 16.1226 7.53733 15.0659 10.2458 15.0659H11.7869ZM10.238 16.0005C7.77838 16.0005 5.46922 16.9506 3.73022 18.6821L3.71655 18.6968C2.08814 20.3399 1.14447 22.4713 1.03394 24.7544H19.6111L18.7937 23.937L16.6941 21.8433H16.6931C15.4922 20.6337 15.4925 18.6728 16.6941 17.4712L16.6951 17.4702C16.7043 17.4613 16.7145 17.4514 16.7253 17.4409C15.2485 16.4944 13.5549 16.0005 11.7791 16.0005H10.238ZM18.8738 17.4897C18.4423 17.4898 18.0338 17.6152 17.6863 17.8442C17.6855 17.8448 17.685 17.8457 17.6843 17.8462C17.6802 17.8493 17.676 17.8524 17.6736 17.854C17.6719 17.8551 17.6705 17.8554 17.6697 17.856L17.6667 17.8599L17.6589 17.8647C17.5474 17.9409 17.4435 18.0245 17.3464 18.1216C16.5063 18.963 16.5065 20.3383 17.3464 21.1782L19.3591 23.1919L20.7332 24.5601L24.116 21.1782C24.9569 20.3382 24.9568 18.9629 24.1169 18.1216C23.2755 17.2815 21.8993 17.2816 21.0593 18.1216C20.8745 18.3061 20.5869 18.3061 20.4021 18.1216C19.9931 17.7125 19.4512 17.4897 18.8738 17.4897Z" fill="currentColor" stroke="currentColor" stroke-width="0.2"/>
</svg>