
<svg width="26" height="26" viewBox="0 0 26 26" fill="none" xmlns="http://www.w3.org/2000/svg">
<path d="M10.6211 0.100342C10.878 0.100342 11.08 0.303349 11.0801 0.55835V3.05151C11.0801 3.30745 10.8762 3.50876 10.6221 3.5105H10.6211C10.3643 3.51038 10.1631 3.30652 10.1631 3.05151V0.55835C10.1632 0.30158 10.3662 0.100464 10.6211 0.100342Z" fill="currentColor" stroke="currentColor" stroke-width="0.2"/>
<path d="M4.50195 2.64087C4.67266 2.45085 4.96701 2.45659 5.14746 2.63696L6.9248 4.39868H6.92383C7.11044 4.5696 7.10357 4.86077 6.9248 5.04028C6.82986 5.13702 6.70049 5.17114 6.5957 5.17114C6.47314 5.17107 6.36043 5.13411 6.26758 5.04126L4.50488 3.27954V3.27856C4.3151 3.10327 4.34707 2.8135 4.50195 2.64087Z" fill="currentColor" stroke="currentColor" stroke-width="0.2"/>
<path d="M16.0947 2.63647C16.27 2.44601 16.5606 2.4785 16.7334 2.63354C16.9236 2.80426 16.9178 3.09856 16.7373 3.27905L14.9756 5.04175C14.9329 5.08441 14.886 5.11802 14.832 5.14038C14.7782 5.16261 14.7214 5.17163 14.6611 5.17163C14.5402 5.17154 14.4291 5.13489 14.3369 5.04468V5.04565C14.1467 4.87497 14.1525 4.57969 14.333 4.39917L16.0947 2.63647Z" fill="currentColor" stroke="currentColor" stroke-width="0.2"/>
<mask id="path-4-outside-1_194_1576" maskUnits="userSpaceOnUse" x="-0.800049" y="-0.800049" width="27" height="27" fill="black">
<rect fill="white" x="-0.800049" y="-0.800049" width="27" height="27"/>
<path d="M3.94657 8.82461L4.95291 7.82183L3.95014 6.81906C3.83105 6.69996 3.83105 6.50823 3.95014 6.38912C4.06923 6.27 4.26096 6.27002 4.38008 6.38912L5.38285 7.39189L6.38563 6.38912C6.50472 6.27002 6.69645 6.27002 6.81557 6.38912C6.93468 6.50821 6.93466 6.69994 6.81557 6.81906L5.81279 7.82183L6.81557 8.82461C6.93466 8.9437 6.93466 9.13543 6.81557 9.25455C6.7584 9.31529 6.68218 9.34625 6.60239 9.34625C6.5226 9.34625 6.44638 9.31529 6.38564 9.25812L5.38287 8.25178L4.38009 9.25455C4.31935 9.31529 4.24313 9.34626 4.16334 9.34626C4.08355 9.34626 4.00733 9.31529 3.94659 9.25813C3.8275 9.13903 3.82748 8.94373 3.94657 8.82461ZM25.2 18.1877C25.2 22.0536 22.0536 25.2 18.1877 25.2H1.40754C0.739434 25.2 0.199951 24.6605 0.199951 23.9924V2.62706C0.199951 1.95895 0.739434 1.41947 1.40754 1.41947H6.29749V1.13245C6.29749 0.617971 6.71551 0.199951 7.22999 0.199951H13.2907C13.8063 0.199951 14.2244 0.617971 14.2244 1.13245V1.41947H19.1143C19.7788 1.41947 20.3219 1.95895 20.3219 2.62706V11.5115C23.148 12.4131 25.2 15.0664 25.2 18.1877ZM6.90725 2.92581C6.90725 3.10207 7.05016 3.24856 7.22999 3.24856H13.2907C13.4669 3.24856 13.6134 3.10565 13.6134 2.92581V1.13346C13.6134 0.957206 13.4705 0.810718 13.2907 0.810718L7.22999 0.809527C7.05016 0.809527 6.90725 0.952439 6.90725 1.13227V2.92581ZM15.3344 24.5902C13.523 23.7792 12.1176 22.2238 11.5079 20.3158C11.4983 20.3182 11.49 20.3218 11.4805 20.3218H9.6512C9.48328 20.3218 9.34632 20.1848 9.34632 20.0169C9.34632 19.8489 9.48328 19.712 9.6512 19.712H11.3435C11.2363 19.2213 11.1756 18.7116 11.1756 18.1876C11.1756 16.718 11.6293 15.352 12.407 14.2242H9.65121C9.48328 14.2242 9.34633 14.0872 9.34633 13.9193C9.34633 13.7514 9.48328 13.6144 9.65121 13.6144H12.8799C14.1661 12.1234 16.0692 11.1754 18.1878 11.1754C18.7118 11.1754 19.2215 11.2361 19.7122 11.3433V2.62316C19.7122 2.29447 19.4442 2.02533 19.1144 2.02533H14.2244V2.9221C14.2244 3.43777 13.8064 3.8546 13.2919 3.8546H7.23001C6.71553 3.85817 6.29751 3.44015 6.29751 2.92567V2.02889H1.40757C1.07769 2.02889 0.809731 2.29686 0.809731 2.62673V23.9957C0.809731 24.3244 1.07769 24.5935 1.40757 24.5935H15.3344L15.3344 24.5902ZM24.5902 18.1877C24.5902 14.6579 21.7177 11.7853 18.1877 11.7853C14.6578 11.7853 11.7853 14.6578 11.7853 18.1877C11.7853 21.7177 14.6578 24.5902 18.1877 24.5902C21.7177 24.5902 24.5902 21.7177 24.5902 18.1877ZM22.1512 16.9682V19.4073C22.1512 19.5752 22.0142 19.7121 21.8463 19.7121H19.7121V21.8463C19.7121 22.0142 19.5752 22.1512 19.4073 22.1512H16.9682C16.8003 22.1512 16.6634 22.0142 16.6634 21.8463V19.7121H14.5292C14.3613 19.7121 14.2243 19.5752 14.2243 19.4073V16.9682C14.2243 16.8003 14.3613 16.6633 14.5292 16.6633H16.6634V14.5292C16.6634 14.3613 16.8003 14.2243 16.9682 14.2243H19.4073C19.5752 14.2243 19.7121 14.3613 19.7121 14.5292V16.6633H21.8463C22.0142 16.6633 22.1512 16.8003 22.1512 16.9682ZM21.5414 17.2731H19.4073C19.2393 17.2731 19.1024 17.1361 19.1024 16.9682V14.8341H17.2731V16.9682C17.2731 17.1361 17.1362 17.2731 16.9682 17.2731H14.8341V19.1024H16.9682C17.1362 19.1024 17.2731 19.2393 17.2731 19.4073V21.5414H19.1024V19.4073C19.1024 19.2393 19.2393 19.1024 19.4073 19.1024H21.5414V17.2731ZM9.65115 8.12674H16.9682C17.1362 8.12674 17.2731 7.98978 17.2731 7.82186C17.2731 7.65394 17.1362 7.51698 16.9682 7.51698H9.65115C9.48323 7.51698 9.34627 7.65394 9.34627 7.82186C9.34627 7.98978 9.48323 8.12674 9.65115 8.12674ZM6.99539 12.4832L4.7731 14.709L3.77032 13.7062C3.65123 13.5871 3.4595 13.5871 3.34038 13.7062C3.22127 13.8253 3.22129 14.0171 3.34038 14.1362L4.5599 15.3557C4.61706 15.4129 4.69328 15.4438 4.77307 15.4438C4.85287 15.4438 4.92908 15.4129 4.98982 15.3557L7.42885 12.9167C7.54794 12.7976 7.54794 12.6058 7.42885 12.4867C7.30976 12.3676 7.1145 12.3641 6.99539 12.4832ZM6.99539 18.5807L4.7731 20.8066L3.77032 19.8038C3.65123 19.6847 3.4595 19.6847 3.34038 19.8038C3.22127 19.9229 3.22129 20.1146 3.34038 20.2338L4.5599 21.4533C4.61706 21.5104 4.69328 21.5414 4.77307 21.5414C4.85287 21.5414 4.92908 21.5104 4.98982 21.4533L7.42885 19.0142C7.54794 18.8951 7.54794 18.7034 7.42885 18.5843C7.30976 18.4652 7.1145 18.4616 6.99539 18.5807Z"/>
</mask>
<path d="M3.94657 8.82461L4.95291 7.82183L3.95014 6.81906C3.83105 6.69996 3.83105 6.50823 3.95014 6.38912C4.06923 6.27 4.26096 6.27002 4.38008 6.38912L5.38285 7.39189L6.38563 6.38912C6.50472 6.27002 6.69645 6.27002 6.81557 6.38912C6.93468 6.50821 6.93466 6.69994 6.81557 6.81906L5.81279 7.82183L6.81557 8.82461C6.93466 8.9437 6.93466 9.13543 6.81557 9.25455C6.7584 9.31529 6.68218 9.34625 6.60239 9.34625C6.5226 9.34625 6.44638 9.31529 6.38564 9.25812L5.38287 8.25178L4.38009 9.25455C4.31935 9.31529 4.24313 9.34626 4.16334 9.34626C4.08355 9.34626 4.00733 9.31529 3.94659 9.25813C3.8275 9.13903 3.82748 8.94373 3.94657 8.82461ZM25.2 18.1877C25.2 22.0536 22.0536 25.2 18.1877 25.2H1.40754C0.739434 25.2 0.199951 24.6605 0.199951 23.9924V2.62706C0.199951 1.95895 0.739434 1.41947 1.40754 1.41947H6.29749V1.13245C6.29749 0.617971 6.71551 0.199951 7.22999 0.199951H13.2907C13.8063 0.199951 14.2244 0.617971 14.2244 1.13245V1.41947H19.1143C19.7788 1.41947 20.3219 1.95895 20.3219 2.62706V11.5115C23.148 12.4131 25.2 15.0664 25.2 18.1877ZM6.90725 2.92581C6.90725 3.10207 7.05016 3.24856 7.22999 3.24856H13.2907C13.4669 3.24856 13.6134 3.10565 13.6134 2.92581V1.13346C13.6134 0.957206 13.4705 0.810718 13.2907 0.810718L7.22999 0.809527C7.05016 0.809527 6.90725 0.952439 6.90725 1.13227V2.92581ZM15.3344 24.5902C13.523 23.7792 12.1176 22.2238 11.5079 20.3158C11.4983 20.3182 11.49 20.3218 11.4805 20.3218H9.6512C9.48328 20.3218 9.34632 20.1848 9.34632 20.0169C9.34632 19.8489 9.48328 19.712 9.6512 19.712H11.3435C11.2363 19.2213 11.1756 18.7116 11.1756 18.1876C11.1756 16.718 11.6293 15.352 12.407 14.2242H9.65121C9.48328 14.2242 9.34633 14.0872 9.34633 13.9193C9.34633 13.7514 9.48328 13.6144 9.65121 13.6144H12.8799C14.1661 12.1234 16.0692 11.1754 18.1878 11.1754C18.7118 11.1754 19.2215 11.2361 19.7122 11.3433V2.62316C19.7122 2.29447 19.4442 2.02533 19.1144 2.02533H14.2244V2.9221C14.2244 3.43777 13.8064 3.8546 13.2919 3.8546H7.23001C6.71553 3.85817 6.29751 3.44015 6.29751 2.92567V2.02889H1.40757C1.07769 2.02889 0.809731 2.29686 0.809731 2.62673V23.9957C0.809731 24.3244 1.07769 24.5935 1.40757 24.5935H15.3344L15.3344 24.5902ZM24.5902 18.1877C24.5902 14.6579 21.7177 11.7853 18.1877 11.7853C14.6578 11.7853 11.7853 14.6578 11.7853 18.1877C11.7853 21.7177 14.6578 24.5902 18.1877 24.5902C21.7177 24.5902 24.5902 21.7177 24.5902 18.1877ZM22.1512 16.9682V19.4073C22.1512 19.5752 22.0142 19.7121 21.8463 19.7121H19.7121V21.8463C19.7121 22.0142 19.5752 22.1512 19.4073 22.1512H16.9682C16.8003 22.1512 16.6634 22.0142 16.6634 21.8463V19.7121H14.5292C14.3613 19.7121 14.2243 19.5752 14.2243 19.4073V16.9682C14.2243 16.8003 14.3613 16.6633 14.5292 16.6633H16.6634V14.5292C16.6634 14.3613 16.8003 14.2243 16.9682 14.2243H19.4073C19.5752 14.2243 19.7121 14.3613 19.7121 14.5292V16.6633H21.8463C22.0142 16.6633 22.1512 16.8003 22.1512 16.9682ZM21.5414 17.2731H19.4073C19.2393 17.2731 19.1024 17.1361 19.1024 16.9682V14.8341H17.2731V16.9682C17.2731 17.1361 17.1362 17.2731 16.9682 17.2731H14.8341V19.1024H16.9682C17.1362 19.1024 17.2731 19.2393 17.2731 19.4073V21.5414H19.1024V19.4073C19.1024 19.2393 19.2393 19.1024 19.4073 19.1024H21.5414V17.2731ZM9.65115 8.12674H16.9682C17.1362 8.12674 17.2731 7.98978 17.2731 7.82186C17.2731 7.65394 17.1362 7.51698 16.9682 7.51698H9.65115C9.48323 7.51698 9.34627 7.65394 9.34627 7.82186C9.34627 7.98978 9.48323 8.12674 9.65115 8.12674ZM6.99539 12.4832L4.7731 14.709L3.77032 13.7062C3.65123 13.5871 3.4595 13.5871 3.34038 13.7062C3.22127 13.8253 3.22129 14.0171 3.34038 14.1362L4.5599 15.3557C4.61706 15.4129 4.69328 15.4438 4.77307 15.4438C4.85287 15.4438 4.92908 15.4129 4.98982 15.3557L7.42885 12.9167C7.54794 12.7976 7.54794 12.6058 7.42885 12.4867C7.30976 12.3676 7.1145 12.3641 6.99539 12.4832ZM6.99539 18.5807L4.7731 20.8066L3.77032 19.8038C3.65123 19.6847 3.4595 19.6847 3.34038 19.8038C3.22127 19.9229 3.22129 20.1146 3.34038 20.2338L4.5599 21.4533C4.61706 21.5104 4.69328 21.5414 4.77307 21.5414C4.85287 21.5414 4.92908 21.5104 4.98982 21.4533L7.42885 19.0142C7.54794 18.8951 7.54794 18.7034 7.42885 18.5843C7.30976 18.4652 7.1145 18.4616 6.99539 18.5807Z" fill="currentColor"/>
<path d="M3.94657 8.82461L4.95291 7.82183L3.95014 6.81906C3.83105 6.69996 3.83105 6.50823 3.95014 6.38912C4.06923 6.27 4.26096 6.27002 4.38008 6.38912L5.38285 7.39189L6.38563 6.38912C6.50472 6.27002 6.69645 6.27002 6.81557 6.38912C6.93468 6.50821 6.93466 6.69994 6.81557 6.81906L5.81279 7.82183L6.81557 8.82461C6.93466 8.9437 6.93466 9.13543 6.81557 9.25455C6.7584 9.31529 6.68218 9.34625 6.60239 9.34625C6.5226 9.34625 6.44638 9.31529 6.38564 9.25812L5.38287 8.25178L4.38009 9.25455C4.31935 9.31529 4.24313 9.34626 4.16334 9.34626C4.08355 9.34626 4.00733 9.31529 3.94659 9.25813C3.8275 9.13903 3.82748 8.94373 3.94657 8.82461ZM25.2 18.1877C25.2 22.0536 22.0536 25.2 18.1877 25.2H1.40754C0.739434 25.2 0.199951 24.6605 0.199951 23.9924V2.62706C0.199951 1.95895 0.739434 1.41947 1.40754 1.41947H6.29749V1.13245C6.29749 0.617971 6.71551 0.199951 7.22999 0.199951H13.2907C13.8063 0.199951 14.2244 0.617971 14.2244 1.13245V1.41947H19.1143C19.7788 1.41947 20.3219 1.95895 20.3219 2.62706V11.5115C23.148 12.4131 25.2 15.0664 25.2 18.1877ZM6.90725 2.92581C6.90725 3.10207 7.05016 3.24856 7.22999 3.24856H13.2907C13.4669 3.24856 13.6134 3.10565 13.6134 2.92581V1.13346C13.6134 0.957206 13.4705 0.810718 13.2907 0.810718L7.22999 0.809527C7.05016 0.809527 6.90725 0.952439 6.90725 1.13227V2.92581ZM15.3344 24.5902C13.523 23.7792 12.1176 22.2238 11.5079 20.3158C11.4983 20.3182 11.49 20.3218 11.4805 20.3218H9.6512C9.48328 20.3218 9.34632 20.1848 9.34632 20.0169C9.34632 19.8489 9.48328 19.712 9.6512 19.712H11.3435C11.2363 19.2213 11.1756 18.7116 11.1756 18.1876C11.1756 16.718 11.6293 15.352 12.407 14.2242H9.65121C9.48328 14.2242 9.34633 14.0872 9.34633 13.9193C9.34633 13.7514 9.48328 13.6144 9.65121 13.6144H12.8799C14.1661 12.1234 16.0692 11.1754 18.1878 11.1754C18.7118 11.1754 19.2215 11.2361 19.7122 11.3433V2.62316C19.7122 2.29447 19.4442 2.02533 19.1144 2.02533H14.2244V2.9221C14.2244 3.43777 13.8064 3.8546 13.2919 3.8546H7.23001C6.71553 3.85817 6.29751 3.44015 6.29751 2.92567V2.02889H1.40757C1.07769 2.02889 0.809731 2.29686 0.809731 2.62673V23.9957C0.809731 24.3244 1.07769 24.5935 1.40757 24.5935H15.3344L15.3344 24.5902ZM24.5902 18.1877C24.5902 14.6579 21.7177 11.7853 18.1877 11.7853C14.6578 11.7853 11.7853 14.6578 11.7853 18.1877C11.7853 21.7177 14.6578 24.5902 18.1877 24.5902C21.7177 24.5902 24.5902 21.7177 24.5902 18.1877ZM22.1512 16.9682V19.4073C22.1512 19.5752 22.0142 19.7121 21.8463 19.7121H19.7121V21.8463C19.7121 22.0142 19.5752 22.1512 19.4073 22.1512H16.9682C16.8003 22.1512 16.6634 22.0142 16.6634 21.8463V19.7121H14.5292C14.3613 19.7121 14.2243 19.5752 14.2243 19.4073V16.9682C14.2243 16.8003 14.3613 16.6633 14.5292 16.6633H16.6634V14.5292C16.6634 14.3613 16.8003 14.2243 16.9682 14.2243H19.4073C19.5752 14.2243 19.7121 14.3613 19.7121 14.5292V16.6633H21.8463C22.0142 16.6633 22.1512 16.8003 22.1512 16.9682ZM21.5414 17.2731H19.4073C19.2393 17.2731 19.1024 17.1361 19.1024 16.9682V14.8341H17.2731V16.9682C17.2731 17.1361 17.1362 17.2731 16.9682 17.2731H14.8341V19.1024H16.9682C17.1362 19.1024 17.2731 19.2393 17.2731 19.4073V21.5414H19.1024V19.4073C19.1024 19.2393 19.2393 19.1024 19.4073 19.1024H21.5414V17.2731ZM9.65115 8.12674H16.9682C17.1362 8.12674 17.2731 7.98978 17.2731 7.82186C17.2731 7.65394 17.1362 7.51698 16.9682 7.51698H9.65115C9.48323 7.51698 9.34627 7.65394 9.34627 7.82186C9.34627 7.98978 9.48323 8.12674 9.65115 8.12674ZM6.99539 12.4832L4.7731 14.709L3.77032 13.7062C3.65123 13.5871 3.4595 13.5871 3.34038 13.7062C3.22127 13.8253 3.22129 14.0171 3.34038 14.1362L4.5599 15.3557C4.61706 15.4129 4.69328 15.4438 4.77307 15.4438C4.85287 15.4438 4.92908 15.4129 4.98982 15.3557L7.42885 12.9167C7.54794 12.7976 7.54794 12.6058 7.42885 12.4867C7.30976 12.3676 7.1145 12.3641 6.99539 12.4832ZM6.99539 18.5807L4.7731 20.8066L3.77032 19.8038C3.65123 19.6847 3.4595 19.6847 3.34038 19.8038C3.22127 19.9229 3.22129 20.1146 3.34038 20.2338L4.5599 21.4533C4.61706 21.5104 4.69328 21.5414 4.77307 21.5414C4.85287 21.5414 4.92908 21.5104 4.98982 21.4533L7.42885 19.0142C7.54794 18.8951 7.54794 18.7034 7.42885 18.5843C7.30976 18.4652 7.1145 18.4616 6.99539 18.5807Z" stroke="currentColor" stroke-width="0.4" mask="url(#path-4-outside-1_194_1576)"/>
</svg>