<svg width="29" height="27" viewBox="0 0 29 27" fill="none" xmlns="http://www.w3.org/2000/svg"><g clip-path="url(#clip0_353_896)"><path d="M26.8251 19.8948C26.8251 18.7224 25.8463 17.7632 24.6501 17.7632C23.4538 17.7632 22.4751 18.7224 22.4751 19.8948C22.4751 21.0671 23.4538 22.0263 24.6501 22.0263C25.8463 22.0263 26.8251 21.0671 26.8251 19.8948ZM23.2001 19.8948C23.2001 19.1132 23.8526 18.4737 24.6501 18.4737C25.4476 18.4737 26.1001 19.1132 26.1001 19.8948C26.1001 20.6763 25.4476 21.3158 24.6501 21.3158C23.8526 21.3158 23.2001 20.6763 23.2001 19.8948Z" fill="currentColor"/><path d="M24.65 22.7368C22.2503 22.7368 20.3 24.6481 20.3 27H21.025C21.025 25.0389 22.649 23.4473 24.65 23.4473C26.651 23.4473 28.275 25.0389 28.275 27H29C29 24.6481 27.0498 22.7368 24.65 22.7368Z" fill="currentColor"/><path d="M17.4 19.8948C17.4 18.7224 16.4213 17.7632 15.225 17.7632C14.0288 17.7632 13.05 18.7224 13.05 19.8948C13.05 21.0671 14.0288 22.0263 15.225 22.0263C16.4213 22.0263 17.4 21.0671 17.4 19.8948ZM13.775 19.8948C13.775 19.1132 14.4275 18.4737 15.225 18.4737C16.0225 18.4737 16.675 19.1132 16.675 19.8948C16.675 20.6763 16.0225 21.3158 15.225 21.3158C14.4275 21.3158 13.775 20.6763 13.775 19.8948Z" fill="currentColor"/><path d="M15.225 22.7368C12.8252 22.7368 10.875 24.6481 10.875 27H11.6C11.6 25.0389 13.224 23.4473 15.225 23.4473C17.226 23.4473 18.85 25.0389 18.85 27H19.575C19.575 24.6481 17.6247 22.7368 15.225 22.7368Z" fill="currentColor"/><path d="M3.62507 0V13.6279C2.78407 13.9192 2.17507 14.7008 2.17507 15.6316C2.17507 16.8039 3.15382 17.7632 4.35007 17.7632C5.29257 17.7632 6.09007 17.1663 6.39457 16.3421H10.9113L7.44582 19.7384C6.65557 18.9568 5.56082 18.4737 4.35732 18.4737C1.95757 18.4737 0.00732422 20.385 0.00732422 22.7368H0.732324C0.732324 20.7758 2.35632 19.1842 4.35732 19.1842C6.35832 19.1842 7.98232 20.7758 7.98232 22.7368H8.70732C8.70732 21.8274 8.41007 20.9818 7.90982 20.2855L11.9336 16.3421H29.0001V0H3.62507ZM4.35007 17.0526C3.55257 17.0526 2.90007 16.4132 2.90007 15.6316C2.90007 14.85 3.55257 14.2105 4.35007 14.2105C5.14757 14.2105 5.80007 14.85 5.80007 15.6316C5.80007 16.4132 5.14757 17.0526 4.35007 17.0526ZM28.2751 15.6316H12.6586L13.5793 14.7292L13.0646 14.2247L11.6291 15.6316H6.52507C6.52507 14.4592 5.54632 13.5 4.35007 13.5V2.84211H28.2751V15.6316ZM4.35007 2.13158V0.710526H28.2751V2.13158H4.35007Z" fill="currentColor"/><path d="M13.7678 13.5H18.8501V11.3684H21.0251V6.39476H18.8501V4.26318H13.7678V6.39476H11.6001V11.3684H13.7678V13.5ZM12.3251 10.6579V7.10529H14.4928V4.97371H18.1251V7.10529H20.3001V10.6579H18.1251V12.7895H14.4928V10.6579H12.3251Z" fill="currentColor"/></g><defs><clipPath id="clip0_353_896"><rect width="29" height="27" fill="white"/></clipPath></defs></svg>