
<svg width="27" height="27" viewBox="0 0 27 27" fill="none" xmlns="http://www.w3.org/2000/svg">
<path d="M25.5837 0.10022C25.8461 0.100446 26.0525 0.306442 26.0525 0.56897V25.5846C26.0525 25.7454 25.9674 25.8937 25.8279 25.9781C25.7557 26.0234 25.672 26.0533 25.5837 26.0533C25.5152 26.0533 25.4414 26.0343 25.3816 26.0084L25.3767 26.0065L17.8474 22.2623H0.569092C0.306343 22.2623 0.100531 22.0544 0.100342 21.7936V0.56897C0.100471 0.306208 0.308193 0.100256 0.569092 0.10022H25.5837ZM1.03687 21.3239H17.9587C17.9931 21.3239 18.0288 21.3283 18.0632 21.3365L18.1599 21.3698L18.1648 21.3717L25.114 24.8307V1.03674H1.03687V21.3239Z" fill="currentColor" stroke="currentColor" stroke-width="0.2"/>
<path d="M16.2845 7.97253C16.2845 8.94618 15.8419 9.85939 15.0814 10.4686V10.4696C14.1063 11.2429 13.5551 12.3135 13.5551 13.4003V13.8358C13.5548 14.0984 13.347 14.3044 13.0863 14.3046C12.8235 14.3046 12.6168 14.0966 12.6166 13.8358V13.4003C12.6166 12.0164 13.3044 10.683 14.4906 9.73035C15.0269 9.29988 15.3382 8.65819 15.3383 7.9657C15.3383 6.73791 14.2988 5.70496 13.0775 5.70496C11.8277 5.70505 10.8177 6.72237 10.8177 7.9657C10.8176 8.22847 10.6089 8.43445 10.348 8.43445C10.0852 8.43441 9.87941 8.22656 9.87927 7.9657C9.87927 6.19986 11.3179 4.76843 13.0765 4.76843C14.8062 4.76858 16.273 6.22886 16.2845 7.97156V7.97253Z" fill="currentColor" stroke="currentColor" stroke-width="0.2"/>
<path d="M13.0758 15.5651C14.1486 15.5651 15.0189 16.4347 15.0192 17.5074C15.0192 18.5804 14.1487 19.4508 13.0758 19.4508C12.0031 19.4506 11.1334 18.5802 11.1334 17.5074C11.1337 16.4349 12.0032 15.5653 13.0758 15.5651ZM13.0758 16.5016C12.5188 16.5018 12.0702 16.9504 12.0699 17.5074C12.0699 18.0646 12.5187 18.514 13.0758 18.5143C13.6332 18.5143 14.0826 18.0648 14.0826 17.5074C14.0824 16.9503 13.633 16.5016 13.0758 16.5016Z" fill="currentColor" stroke="currentColor" stroke-width="0.2"/>
</svg>