
<svg width="23" height="31" viewBox="0 0 23 31" fill="none" xmlns="http://www.w3.org/2000/svg">
<path d="M17.7556 0.100342C17.7955 0.100342 17.8331 0.105547 17.8728 0.121826H17.8826L17.9031 0.132568C17.9375 0.149781 17.9777 0.172975 18.0105 0.205811L22.1912 4.38745L22.2205 4.41577V4.42358C22.2808 4.49877 22.3055 4.59294 22.2966 4.6853L22.2986 26.7712C22.2984 27.1576 21.9866 27.4695 21.6023 27.4695H18.6941V29.865C18.6941 30.249 18.3827 30.5611 17.9988 30.5613H0.795654C0.411724 30.561 0.100342 30.249 0.100342 29.865V3.89233C0.100342 3.50835 0.411716 3.19629 0.795654 3.19604H3.69995V0.800537C3.69995 0.413366 4.01532 0.101318 4.39917 0.101318L17.741 0.100342H17.7556ZM0.848389 29.8093H17.949V8.12183H14.1462C13.9417 8.12183 13.7724 7.95226 13.7722 7.7478V3.94019H0.848389V29.8093ZM4.44702 3.18823H14.157C14.1914 3.18828 14.2322 3.19359 14.2722 3.20972H14.2791L14.2996 3.22046C14.3326 3.23697 14.3694 3.25612 14.407 3.2937L18.5857 7.47339H18.5867C18.6071 7.49285 18.6225 7.51511 18.6345 7.53491L18.6609 7.58276L18.6619 7.58472C18.6656 7.59216 18.6706 7.60287 18.6736 7.61597V7.6189C18.6856 7.65381 18.694 7.6919 18.6941 7.73608V7.76929L18.6931 26.7175H21.5476V5.02319H17.7449C17.5404 5.02319 17.3711 4.85361 17.3708 4.64917V0.841553H4.44702V3.18823ZM14.5203 7.37085H17.4236L14.5203 4.46655V7.37085ZM18.1248 4.27808H21.0281L18.1248 1.37476V4.27808Z" fill="currentColor" stroke="currentColor" stroke-width="0.2"/>
<path d="M16.1277 8.76294C16.3322 8.7631 16.5017 8.93245 16.5017 9.13696C16.5015 9.34133 16.3321 9.51082 16.1277 9.51099H6.99487C6.79037 9.51099 6.62102 9.34143 6.62085 9.13696C6.62085 8.93235 6.79026 8.76294 6.99487 8.76294H16.1277Z" fill="currentColor" stroke="currentColor" stroke-width="0.2"/>
<path d="M16.1272 11.8577C16.3318 11.8577 16.5012 12.0271 16.5012 12.2317C16.501 12.4362 16.3317 12.6057 16.1272 12.6057H2.67505C2.47054 12.6057 2.3012 12.4362 2.30103 12.2317C2.30103 12.0271 2.47044 11.8577 2.67505 11.8577H16.1272Z" fill="currentColor" stroke="currentColor" stroke-width="0.2"/>
<path d="M16.1272 14.9534C16.3318 14.9534 16.5012 15.1228 16.5012 15.3274C16.501 15.5319 16.3317 15.7014 16.1272 15.7014H2.67505C2.47054 15.7014 2.3012 15.5319 2.30103 15.3274C2.30103 15.1228 2.47044 14.9534 2.67505 14.9534H16.1272Z" fill="currentColor" stroke="currentColor" stroke-width="0.2"/>
<path d="M16.1272 18.0498C16.3318 18.0498 16.5012 18.2192 16.5012 18.4238C16.501 18.6283 16.3317 18.7979 16.1272 18.7979H2.67505C2.47054 18.7979 2.3012 18.6283 2.30103 18.4238C2.30103 18.2192 2.47044 18.0498 2.67505 18.0498H16.1272Z" fill="currentColor" stroke="currentColor" stroke-width="0.2"/>
<path d="M16.1272 21.1438C16.3318 21.1438 16.5012 21.3132 16.5012 21.5178C16.501 21.7223 16.3317 21.8918 16.1272 21.8918H2.67505C2.47054 21.8918 2.3012 21.7223 2.30103 21.5178C2.30103 21.3132 2.47044 21.1438 2.67505 21.1438H16.1272Z" fill="currentColor" stroke="currentColor" stroke-width="0.2"/>
<path d="M16.1272 24.2402C16.3318 24.2402 16.5012 24.4096 16.5012 24.6143C16.501 24.8187 16.3317 24.9883 16.1272 24.9883H2.67505C2.47054 24.9883 2.3012 24.8187 2.30103 24.6143C2.30103 24.4096 2.47044 24.2402 2.67505 24.2402H16.1272Z" fill="currentColor" stroke="currentColor" stroke-width="0.2"/>
<path d="M15.8604 26.0403C16.006 25.8968 16.2439 25.8965 16.3887 26.0413H16.3896C16.5332 26.1869 16.5335 26.4258 16.3887 26.5706L14.8213 28.1379C14.7472 28.212 14.6523 28.2483 14.5566 28.2483C14.4627 28.2482 14.3671 28.2121 14.293 28.1379L13.3975 27.2424C13.2539 27.0968 13.2537 26.8589 13.3984 26.7141V26.7131C13.544 26.5695 13.7829 26.5693 13.9277 26.7141L14.5576 27.344L15.6924 26.2112H15.6865L15.8604 26.0403Z" fill="currentColor" stroke="currentColor" stroke-width="0.2"/>
</svg>