
<svg width="24" height="26" viewBox="0 0 24 26" fill="none" xmlns="http://www.w3.org/2000/svg">
<path d="M7.93506 0.494873C8.88382 0.101911 9.92787 -0.000370744 10.9351 0.199951C11.9423 0.400309 12.868 0.894652 13.5942 1.62085C14.3202 2.34692 14.8147 3.27204 15.0151 4.27905C15.2155 5.28632 15.1123 6.33121 14.7192 7.28003C14.3262 8.22867 13.6609 9.03962 12.8071 9.61011C11.9533 10.1806 10.9493 10.4851 9.92236 10.4851C8.5461 10.4826 7.22663 9.93479 6.25342 8.96167C5.28019 7.98844 4.73248 6.66907 4.72998 5.29272L4.74365 4.90894C4.80971 4.01705 5.10572 3.15518 5.60498 2.40796C6.17555 1.55404 6.98624 0.887888 7.93506 0.494873ZM9.72119 1.2312C8.71665 1.28305 7.76393 1.70507 7.04932 2.41968C6.28715 3.18184 5.85836 4.21487 5.85596 5.29272L5.8667 5.59351C5.9185 6.29167 6.14977 6.96655 6.54053 7.55151C6.98733 8.22021 7.62273 8.74175 8.36572 9.04956C9.10875 9.35733 9.92654 9.43787 10.7153 9.28101C11.5042 9.12409 12.2286 8.73646 12.7974 8.16772C13.3661 7.59899 13.7537 6.87455 13.9106 6.08569C14.0675 5.2969 13.987 4.47911 13.6792 3.73608C13.3714 2.99309 12.8498 2.3577 12.1812 1.91089C11.5125 1.46424 10.7264 1.22635 9.92236 1.22632L9.72119 1.2312Z" fill="currentColor" stroke="currentColor" stroke-width="0.2"/>
<path d="M17.6333 13.071C19.1444 13.1483 20.5778 13.7823 21.6528 14.8572C22.7997 16.0041 23.4453 17.5595 23.4478 19.1814C23.4477 20.3915 23.0888 21.5746 22.4165 22.5808C21.7443 23.5867 20.7891 24.3707 19.6714 24.8337C18.5535 25.2968 17.323 25.4184 16.1362 25.1824C14.9494 24.9463 13.8591 24.3632 13.0034 23.5076C12.1477 22.6519 11.5647 21.5616 11.3286 20.3748C11.0926 19.188 11.2142 17.9575 11.6772 16.8396C12.1403 15.7219 12.9243 14.7667 13.9302 14.0945C14.9364 13.4222 16.1195 13.0632 17.3296 13.0632L17.6333 13.071ZM19.2397 14.5691C18.3276 14.1913 17.3242 14.0924 16.356 14.2849C15.3875 14.4776 14.4975 14.9529 13.7993 15.6511C13.1011 16.3493 12.6257 17.2393 12.4331 18.2078C12.2406 19.176 12.3395 20.1794 12.7173 21.0916C13.0952 22.0038 13.7351 22.7842 14.5562 23.3328C15.3771 23.8812 16.3423 24.1736 17.3296 24.1736C18.6529 24.1711 19.9212 23.6445 20.8569 22.7087C21.7927 21.773 22.3193 20.5047 22.3218 19.1814C22.3218 18.1941 22.0294 17.2289 21.481 16.408C20.9324 15.5869 20.152 14.947 19.2397 14.5691Z" fill="currentColor" stroke="currentColor" stroke-width="0.2"/>
<path d="M19.668 17.2278C19.8178 17.2341 19.9591 17.3 20.0605 17.4104C20.1619 17.5208 20.2153 17.6669 20.209 17.8167C20.2026 17.9661 20.1364 18.1059 20.0264 18.2073L20.0273 18.2083L17.0361 20.9866C16.985 21.0351 16.9243 21.0727 16.8584 21.0979C16.7929 21.1229 16.7234 21.134 16.6533 21.1321V21.1331L16.6514 21.1321L16.6504 21.1331V21.1321C16.5776 21.1313 16.5055 21.1177 16.4385 21.0891C16.3707 21.06 16.309 21.0172 16.2578 20.9641V20.9631L14.6104 19.2981L14.6094 19.2971C14.5579 19.244 14.5176 19.1813 14.4902 19.1125C14.4628 19.0436 14.4492 18.9699 14.4502 18.8958C14.4512 18.8216 14.4668 18.748 14.4961 18.6799C14.5254 18.6119 14.568 18.5499 14.6211 18.4983C14.6741 18.4468 14.737 18.4065 14.8057 18.3792C14.8745 18.3518 14.9484 18.3381 15.0225 18.3391C15.0966 18.3402 15.1702 18.3557 15.2383 18.385C15.306 18.4142 15.3674 18.4563 15.4189 18.509L16.6748 19.7825L19.2617 17.3772V17.3762C19.372 17.2749 19.5183 17.2215 19.668 17.2278Z" fill="currentColor" stroke="currentColor" stroke-width="0.2"/>
<path d="M8.31714 11.3442C9.74284 11.107 11.2024 11.1872 12.5916 11.5776L12.8689 11.6597L12.8699 11.6606C13.0115 11.7071 13.1298 11.807 13.199 11.939C13.268 12.0709 13.2824 12.225 13.24 12.3677L13.239 12.3696C13.1926 12.5111 13.0935 12.6296 12.9617 12.6987C12.8298 12.7678 12.6757 12.783 12.533 12.7407L12.531 12.7397C11.2286 12.3281 9.84744 12.2295 8.49976 12.4517C7.15209 12.6739 5.87547 13.2102 4.77417 14.0181C3.6729 14.826 2.77746 15.8823 2.16089 17.1011C1.54438 18.3197 1.22477 19.667 1.22632 21.0327V22.3218H9.92261C10.0717 22.3219 10.2146 22.3815 10.3201 22.4868C10.4256 22.5924 10.4851 22.7359 10.4851 22.8853C10.4851 23.0345 10.4256 23.1781 10.3201 23.2837C10.2146 23.389 10.0716 23.4476 9.92261 23.4478H0.885498C0.679165 23.4478 0.480671 23.367 0.33374 23.2222C0.186791 23.0772 0.103131 22.8797 0.100342 22.6733V21.0327C0.10188 19.4911 0.465678 17.9712 1.16284 16.5962C1.86007 15.2212 2.87123 14.029 4.11401 13.1167C5.35672 12.2046 6.79654 11.5973 8.31714 11.3442Z" fill="currentColor" stroke="currentColor" stroke-width="0.2"/>
</svg>