
<svg width="27" height="27" viewBox="0 0 27 27" fill="none" xmlns="http://www.w3.org/2000/svg">
<path d="M25.8279 0.100342C26.0925 0.100528 26.2996 0.308597 26.2996 0.572998V19.157C26.2996 19.4219 26.0899 19.6296 25.8269 19.6296H17.323L13.6062 26.0652L13.6052 26.0662C13.5217 26.2053 13.372 26.3005 13.2 26.3005C13.0279 26.3005 12.8782 26.2053 12.7947 26.0662L12.7937 26.0652L9.0769 19.6296H0.572998C0.308101 19.6296 0.100342 19.42 0.100342 19.157V0.572998C0.100342 0.308101 0.310004 0.100342 0.572998 0.100342H25.8279ZM1.04468 18.6843H9.35132C9.48031 18.6843 9.59695 18.7376 9.68237 18.823L9.75659 18.9187L9.75757 18.9197L13.2 24.8826L16.6433 18.9197V18.9187C16.7268 18.7795 16.8775 18.6843 17.0496 18.6843H25.3562L25.3552 1.0437H1.04468V18.6843Z" fill="currentColor" stroke="currentColor" stroke-width="0.2"/>
<path d="M7.60083 7.94202C8.68339 7.94222 9.56177 8.82035 9.56177 9.90295C9.56156 10.9854 8.68326 11.8637 7.60083 11.8639C6.51818 11.8639 5.6401 10.9841 5.63989 9.90295C5.63989 8.82022 6.5181 7.94202 7.60083 7.94202ZM7.60083 8.8844C7.04564 8.8844 6.58335 9.33964 6.58325 9.901C6.58325 10.4642 7.03759 10.9176 7.60083 10.9176C8.16389 10.9174 8.61743 10.4641 8.61743 9.901C8.61734 9.33797 8.16383 8.8846 7.60083 8.8844Z" fill="currentColor" stroke="currentColor" stroke-width="0.2"/>
<path d="M13.2004 7.94202C14.283 7.94222 15.1614 8.82035 15.1614 9.90295C15.1612 10.9854 14.2829 11.8637 13.2004 11.8639C12.1178 11.8639 11.2397 10.9841 11.2395 9.90295C11.2395 8.82022 12.1177 7.94202 13.2004 7.94202ZM13.2004 8.8844C12.6373 8.8844 12.183 9.33915 12.1829 9.901C12.1829 10.4642 12.6372 10.9176 13.2004 10.9176C13.7635 10.9174 14.217 10.4641 14.217 9.901C14.2169 9.33797 13.7634 8.8846 13.2004 8.8844Z" fill="currentColor" stroke="currentColor" stroke-width="0.2"/>
<path d="M18.8002 7.94202C19.8827 7.94222 20.7611 8.82035 20.7611 9.90295C20.7609 10.9854 19.8826 11.8637 18.8002 11.8639C17.7175 11.8639 16.8378 10.9835 16.8392 9.90198C16.8396 8.81952 17.7176 7.94202 18.8002 7.94202ZM18.8002 8.8844C18.2371 8.8844 17.7827 9.33915 17.7826 9.901C17.7826 10.4642 18.2369 10.9176 18.8002 10.9176C19.3632 10.9174 19.8168 10.4641 19.8168 9.901C19.8167 9.33797 19.3632 8.8846 18.8002 8.8844Z" fill="currentColor" stroke="currentColor" stroke-width="0.2"/>
</svg>
