<svg width="31" height="26" viewBox="0 0 31 26" fill="none" xmlns="http://www.w3.org/2000/svg"><g clip-path="url(#clip0_353_916)"><path d="M27.6211 3.05654C25.6526 1.08106 23.0176 0 20.1966 0H10.8114C7.98265 0 5.34765 1.08884 3.3869 3.05654C1.1859 5.25755 -0.0153519 8.31409 0.000148145 11.6662C0.0233981 17.6704 4.8904 22.5546 10.8501 22.5546H15.3839L20.5376 26V22.5468C26.3269 22.3446 30.9846 17.5381 31.0001 11.6662C31.0156 8.31409 29.8144 5.25755 27.6211 3.05654ZM20.1501 21.7768H19.7626V24.5534L15.6164 21.7768H10.8501C5.31665 21.7768 0.798398 17.2426 0.775148 11.6662C0.759648 8.52408 1.8834 5.66198 3.9294 3.60873C5.75065 1.78103 8.1919 0.777745 10.8114 0.777745H20.1889C22.8084 0.777745 25.2496 1.78103 27.0709 3.60873C29.1169 5.66198 30.2329 8.52408 30.2251 11.6662C30.2096 17.2426 25.6914 21.7768 20.1501 21.7768ZM20.0416 6.07418C18.4529 5.45977 16.7169 5.78642 15.5001 6.89859C14.2834 5.78642 12.5396 5.45977 10.9586 6.07418C9.33115 6.71194 8.3159 8.1741 8.3159 9.8618C8.3004 10.0562 7.93615 14.5672 14.6321 17.9503L15.5001 18.3859L16.3681 17.9503C23.0564 14.5672 22.6999 10.0562 22.6844 9.90069C22.6844 8.17409 21.6691 6.71194 20.0416 6.08196V6.07418ZM16.0271 17.2504L15.5001 17.5148L14.9731 17.2504C8.78865 14.1238 9.06765 10.1029 9.08315 9.90069C9.08315 8.50852 9.90465 7.31858 11.2299 6.80526C11.6716 6.63416 12.1289 6.54861 12.5784 6.54861C13.5704 6.54861 14.5236 6.95304 15.2134 7.71523L15.5001 8.0341L15.7869 7.71523C16.7866 6.61083 18.3521 6.25307 19.7626 6.80526C21.0879 7.31858 21.9094 8.50852 21.9171 9.93958C21.9326 10.1107 22.2116 14.1316 16.0271 17.2582V17.2504Z" fill="currentColor"/></g><defs><clipPath id="clip0_353_916"><rect width="31" height="26" fill="white"/></clipPath></defs></svg>