
<svg width="26" height="26" viewBox="0 0 26 26" fill="none" xmlns="http://www.w3.org/2000/svg">
<path d="M10.1716 7.4928C11.0455 7.49283 11.8879 7.76018 12.6208 8.22131C13.3539 7.75989 14.1969 7.49285 15.071 7.4928H23.3669C24.3389 7.493 25.1423 8.28275 25.1423 9.26917V17.7643C25.1423 18.7362 24.3533 19.5404 23.3669 19.5406H21.1716C21.0681 19.7102 20.9534 19.9025 20.8005 20.0553L20.7976 20.0582C20.621 20.221 20.4439 20.3538 20.2517 20.4713L20.2507 20.4723C19.3285 21.0172 18.1575 20.9583 17.3025 20.3326C17.2743 21.0962 16.9365 21.8123 16.3533 22.3102C15.4771 23.0591 14.228 23.1485 13.2283 22.61C13.2304 22.9499 13.1706 23.2875 13.0437 23.6041C12.896 23.9746 12.6725 24.3021 12.3894 24.5699C11.8815 25.062 11.2114 25.3004 10.5437 25.3004C9.83127 25.3004 9.11754 25.0325 8.58179 24.4967L3.62476 19.5406H1.87573C0.903859 19.5404 0.10035 18.7507 0.100342 17.7643V9.26917C0.100342 8.2848 0.901852 7.47924 1.87573 7.49377V7.4928H10.1716ZM1.87671 8.40881C1.40138 8.40881 1.01636 8.79384 1.01636 9.26917V17.7496C1.0164 18.2249 1.40141 18.61 1.87671 18.61L3.84448 18.611C3.9669 18.6111 4.07983 18.6482 4.17261 18.7408L9.27124 23.8405C9.98141 24.5366 11.1092 24.5726 11.7976 23.9108L11.7986 23.9098C11.9876 23.7348 12.136 23.5177 12.2312 23.274L12.2849 23.1139C12.3919 22.7348 12.3738 22.3244 12.2312 21.9557V21.9547C12.217 21.9249 12.2048 21.8956 12.196 21.8737C12.1853 21.8468 12.1777 21.8302 12.1697 21.818L12.1648 21.8102V21.8092C12.0684 21.6307 11.9598 21.4822 11.824 21.3463L10.9216 20.443V20.442C10.732 20.2668 10.763 19.9779 10.9177 19.8053C11.0884 19.615 11.3837 19.6209 11.5642 19.8014L13.2253 21.4625C13.9354 22.1726 15.066 22.237 15.782 21.6149C16.1896 21.2607 16.4206 20.7445 16.4207 20.2145C16.4207 19.7117 16.2172 19.2505 15.8767 18.9098C15.8606 18.8937 15.8512 18.8755 15.8464 18.8639C15.8439 18.8576 15.8412 18.8516 15.8396 18.8463C15.8339 18.8445 15.8268 18.8424 15.8201 18.8395C15.8077 18.834 15.7919 18.825 15.7771 18.8102L14.1589 17.192V17.191C13.9686 17.0158 14 16.7261 14.155 16.5533C14.3257 16.3632 14.62 16.369 14.8005 16.5494L16.4197 18.1676C16.4356 18.1836 16.4442 18.201 16.449 18.2125C16.4515 18.2185 16.4532 18.2249 16.4548 18.2301C16.4608 18.232 16.4681 18.2347 16.4753 18.2379L16.5183 18.2672L17.6365 19.3844L17.6375 19.3854C18.2057 19.9675 19.0994 20.0764 19.8064 19.6696C19.9298 19.587 20.0526 19.4917 20.1599 19.3844C20.3077 19.2365 20.4297 19.0597 20.5261 18.8688C20.6338 18.6382 20.6892 18.3814 20.6892 18.1227C20.6891 17.6491 20.5003 17.2013 20.1599 16.861L15.7605 12.4625C15.5417 12.2438 15.161 12.2438 14.9421 12.4625L12.4343 14.9703C11.5515 15.8544 10.0289 15.8834 9.11499 15.0299C8.64989 14.5943 8.39599 14.0096 8.38062 13.3541C8.36664 12.6823 8.63475 12.0111 9.11206 11.5338L11.8347 8.81116L11.8416 8.8053L11.8435 8.80237C11.3316 8.53961 10.765 8.39677 10.1736 8.40881H1.87671ZM15.071 8.37854C14.2917 8.37859 13.5237 8.64423 12.8953 9.1051C12.7528 9.2207 12.6152 9.33043 12.4919 9.45374L9.76733 12.1783C9.4594 12.4727 9.28387 12.9041 9.29761 13.3336C9.30987 13.6902 9.42477 14.0106 9.6394 14.2535L9.73901 14.3531C10.3008 14.8746 11.2411 14.849 11.7771 14.3131L14.2849 11.8053C14.8545 11.2358 15.8335 11.2357 16.4031 11.8053L20.8025 16.2037L20.8035 16.2047C21.307 16.7236 21.5905 17.3933 21.5906 18.1227C21.5906 18.2913 21.5788 18.4511 21.5505 18.611H23.3669C23.8421 18.6108 24.2273 18.2258 24.2273 17.7506V9.25549C24.2273 8.78029 23.8421 8.39535 23.3669 8.39514H23.2664V8.37952L15.071 8.37854Z" fill="currentColor" stroke="currentColor" stroke-width="0.2"/>
<path d="M12.6211 0.100342C12.878 0.100342 13.08 0.303349 13.0801 0.55835V3.05151C13.0801 3.30745 12.8762 3.50876 12.6221 3.5105H12.6211C12.3643 3.51038 12.1631 3.30652 12.1631 3.05151V0.55835C12.1632 0.30158 12.3662 0.100464 12.6211 0.100342Z" fill="currentColor" stroke="currentColor" stroke-width="0.2"/>
<path d="M6.50183 2.64087C6.67254 2.45085 6.96688 2.45659 7.14734 2.63696L8.92468 4.39868H8.92371C9.11031 4.5696 9.10344 4.86077 8.92468 5.04028C8.82973 5.13702 8.70037 5.17114 8.59558 5.17114C8.47302 5.17107 8.36031 5.13411 8.26746 5.04126L6.50476 3.27954V3.27856C6.31498 3.10327 6.34695 2.8135 6.50183 2.64087Z" fill="currentColor" stroke="currentColor" stroke-width="0.2"/>
<path d="M18.0947 2.63647C18.27 2.44601 18.5606 2.4785 18.7334 2.63354C18.9236 2.80426 18.9178 3.09856 18.7373 3.27905L16.9756 5.04175C16.9329 5.08441 16.886 5.11802 16.832 5.14038C16.7782 5.16261 16.7214 5.17163 16.6611 5.17163C16.5402 5.17154 16.4291 5.13489 16.3369 5.04468V5.04565C16.1467 4.87497 16.1525 4.57969 16.333 4.39917L18.0947 2.63647Z" fill="currentColor" stroke="currentColor" stroke-width="0.2"/>
</svg>
