<svg xmlns="http://www.w3.org/2000/svg" width="24" height="27" fill="none" viewBox="0 0 24 27"><g clip-path="url(#a)"><path fill="currentColor" d="M12 12.667a6.34 6.34 0 0 0 6.333-6.334A6.34 6.34 0 0 0 12 0a6.34 6.34 0 0 0-6.333 6.333A6.34 6.34 0 0 0 12 12.667m0-12c2.6 0 4.787 1.76 5.453 4.146-.446-.2-.94-.493-1.246-.74a2.21 2.21 0 0 0-1.967-.413l-.253.073c-.547.154-1.06.307-1.98.274-1.154-.034-1.76-.174-2.247-.327a2.14 2.14 0 0 0-1.973.393 6.3 6.3 0 0 1-1.247.754C7.2 2.433 9.393.66 12 .66zm-5.613 4.94c.646-.187 1.42-.687 1.82-1.014.386-.313.9-.413 1.36-.273.526.16 1.186.313 2.42.353 1.02.02 1.606-.14 2.18-.3l.246-.066c.467-.127 1-.014 1.367.286.373.307 1.167.794 1.827 1q.051.36.053.74A5.67 5.67 0 0 1 11.993 12a5.67 5.67 0 0 1-5.666-5.667c0-.246.02-.493.053-.726zM24 27h-.667c0-6.353-4.98-11.333-11.333-11.333S.667 20.647.667 27H0c0-6.727 5.273-12 12-12s12 5.273 12 12"/></g><defs><clipPath id="a"><path fill="#fff" d="M0 0h24v27H0z"/></clipPath></defs></svg>