<svg xmlns="http://www.w3.org/2000/svg" width="27" height="28" fill="none" viewBox="0 0 27 28"><mask id="a" width="28" height="29" x="-.8" y="-.8" fill="#000" maskUnits="userSpaceOnUse"><path fill="#fff" d="M-.8-.8h28v29h-28z"/><path d="M16.62 23.412h-.681v.352h.681zm9.58 0h-.681v.352h.681zm-5.13-5.207c-2.833 0-5.131 2.34-5.131 5.194h.681c0-2.476 1.991-4.505 4.45-4.505s4.449 2.03 4.449 4.505h.681c0-2.868-2.298-5.195-5.13-5.195M.88 23.412H.2v.352h.681zm9.58 0H9.78v.352h.681zm-5.13-5.207C2.498 18.205.2 20.545.2 23.399h.681c0-2.476 1.991-4.505 4.45-4.505S9.78 20.924 9.78 23.4h.681c0-2.868-2.311-5.195-5.13-5.195M13.2 5.746c-2.846 0-5.13 2.313-5.13 5.194h.668c0-2.489 2.004-4.518 4.462-4.518s4.45 2.03 4.45 4.518h.68c0-2.88-2.297-5.194-5.13-5.194m1.71-3.125c0 .96-.775 1.745-1.71 1.745s-1.723-.784-1.723-1.745c0-.96.774-1.731 1.723-1.731s1.71.784 1.71 1.731m.682 0C15.592 1.282 14.522.2 13.2.2a2.415 2.415 0 0 0-2.405 2.421c0 1.34 1.082 2.435 2.405 2.435s2.392-1.096 2.392-2.435m7.188 12.472c0 .96-.775 1.745-1.724 1.745-.948 0-1.71-.784-1.71-1.745 0-.96.775-1.731 1.71-1.731s1.724.77 1.724 1.731m.694 0a2.415 2.415 0 0 0-2.404-2.421c-1.323 0-2.392 1.082-2.392 2.421 0 1.34 1.069 2.435 2.392 2.435s2.404-1.096 2.404-2.435m-16.433 0c0 .96-.762 1.745-1.71 1.745-.95 0-1.724-.784-1.724-1.745 0-.96.775-1.731 1.724-1.731.948 0 1.71.77 1.71 1.731m.681 0c0-1.339-1.069-2.421-2.391-2.421s-2.392 1.082-2.392 2.421c0 1.34 1.069 2.435 2.392 2.435s2.391-1.096 2.391-2.435m14.657 7.278c-2.258 2.556-5.532 4.18-9.166 4.18s-6.92-1.61-9.178-4.18h-.869c2.378 2.949 6 4.829 10.047 4.829 4.049 0 7.656-1.88 10.034-4.83zM.855 14.065c0-5.438 3.46-10.05 8.243-11.768v-.69C3.941 3.338.2 8.262.2 14.065c0 1.448.254 2.854.681 4.153h.682a12.2 12.2 0 0 1-.722-4.153m25.346 0c0 1.448-.254 2.854-.668 4.153h-.695a12.2 12.2 0 0 0 .721-4.153c0-5.438-3.447-10.05-8.23-11.768v-.69C22.472 3.352 26.2 8.262 26.2 14.065"/></mask><path fill="currentColor" d="M16.62 23.412h-.681v.352h.681zm9.58 0h-.681v.352h.681zm-5.13-5.207c-2.833 0-5.131 2.34-5.131 5.194h.681c0-2.476 1.991-4.505 4.45-4.505s4.449 2.03 4.449 4.505h.681c0-2.868-2.298-5.195-5.13-5.195M.88 23.412H.2v.352h.681zm9.58 0H9.78v.352h.681zm-5.13-5.207C2.498 18.205.2 20.545.2 23.399h.681c0-2.476 1.991-4.505 4.45-4.505S9.78 20.924 9.78 23.4h.681c0-2.868-2.311-5.195-5.13-5.195M13.2 5.746c-2.846 0-5.13 2.313-5.13 5.194h.668c0-2.489 2.004-4.518 4.462-4.518s4.45 2.03 4.45 4.518h.68c0-2.88-2.297-5.194-5.13-5.194m1.71-3.125c0 .96-.775 1.745-1.71 1.745s-1.723-.784-1.723-1.745c0-.96.774-1.731 1.723-1.731s1.71.784 1.71 1.731m.682 0C15.592 1.282 14.522.2 13.2.2a2.415 2.415 0 0 0-2.405 2.421c0 1.34 1.082 2.435 2.405 2.435s2.392-1.096 2.392-2.435m7.188 12.472c0 .96-.775 1.745-1.724 1.745-.948 0-1.71-.784-1.71-1.745 0-.96.775-1.731 1.71-1.731s1.724.77 1.724 1.731m.694 0a2.415 2.415 0 0 0-2.404-2.421c-1.323 0-2.392 1.082-2.392 2.421 0 1.34 1.069 2.435 2.392 2.435s2.404-1.096 2.404-2.435m-16.433 0c0 .96-.762 1.745-1.71 1.745-.95 0-1.724-.784-1.724-1.745 0-.96.775-1.731 1.724-1.731.948 0 1.71.77 1.71 1.731m.681 0c0-1.339-1.069-2.421-2.391-2.421s-2.392 1.082-2.392 2.421c0 1.34 1.069 2.435 2.392 2.435s2.391-1.096 2.391-2.435m14.657 7.278c-2.258 2.556-5.532 4.18-9.166 4.18s-6.92-1.61-9.178-4.18h-.869c2.378 2.949 6 4.829 10.047 4.829 4.049 0 7.656-1.88 10.034-4.83zM.855 14.065c0-5.438 3.46-10.05 8.243-11.768v-.69C3.941 3.338.2 8.262.2 14.065c0 1.448.254 2.854.681 4.153h.682a12.2 12.2 0 0 1-.722-4.153m25.346 0c0 1.448-.254 2.854-.668 4.153h-.695a12.2 12.2 0 0 0 .721-4.153c0-5.438-3.447-10.05-8.23-11.768v-.69C22.472 3.352 26.2 8.262 26.2 14.065"/><path fill="currentColor" d="M16.62 23.412h.2v-.2h-.2zm-.681 0v-.2h-.2v.2zm0 .352h-.2v.2h.2zm.681 0v.2h.2v-.2zm9.58-.352h.2v-.2h-.2zm-.681 0v-.2h-.2v.2zm0 .352h-.2v.2h.2zm.681 0v.2h.2v-.2zM15.939 23.4h-.2v.2h.2zm.681 0v.2h.2v-.2zm8.899 0h-.2v.2h.2zm.681 0v.2h.2v-.2zm-25.319.013h.2v-.2h-.2zm-.681 0v-.2H0v.2zm0 .352H0v.2h.2zm.681 0v.2h.2v-.2zm9.58-.352h.2v-.2h-.2zm-.681 0v-.2h-.2v.2zm0 .352h-.2v.2h.2zm.681 0v.2h.2v-.2zM.2 23.4H0v.2h.2zm.681 0v.2h.2v-.2zm8.899 0h-.2v.2h.2zm.681 0v.2h.2v-.2zM8.07 10.94h-.2v.2h.2zm.669 0v.2h.2v-.2zm8.911 0h-.2v.2h.2zm.681 0v.2h.2v-.2zm4.049 11.43v-.2h-.09l-.06.068zm-18.344 0 .15-.131-.06-.068h-.09zm-.869 0v-.2h-.418l.262.326zm20.081 0 .156.126.263-.325h-.419zM9.098 2.298l.068.188.132-.048v-.14zm0-.69h.2v-.278l-.263.088zM.881 18.218l-.19.063.046.137H.88zm.682 0v.2h.284l-.096-.268zm23.956 0v.2h.146l.044-.14zm-.695 0-.188-.068-.097.268h.285zM17.315 2.297h-.2v.14l.133.048zm0-.69.064-.19-.264-.089v.279zm-.695 21.805v-.2h-.681v.4h.681zm-.681 0h-.2v.352h.4v-.352zm0 .352v.2h.681v-.4h-.681zm.681 0h.2v-.352h-.4v.352zm9.58-.352v-.2h-.681v.4h.681zm-.681 0h-.2v.352h.4v-.352zm0 .352v.2h.681v-.4h-.681zm.681 0h.2v-.352H26v.352zm-5.13-5.56v-.2c-2.946 0-5.331 2.433-5.331 5.395h.4c0-2.747 2.211-4.995 4.93-4.995zM15.939 23.4v.2h.681v-.4h-.681zm.681 0h.2c0-2.368 1.904-4.305 4.25-4.305v-.4c-2.572 0-4.65 2.122-4.65 4.705zm4.45-4.505v.2c2.345 0 4.249 1.937 4.249 4.305h.4c0-2.583-2.078-4.705-4.65-4.705zm4.449 4.505v.2h.681v-.4h-.681zm.681 0h.2c0-2.976-2.385-5.395-5.33-5.395v.4c2.72 0 4.93 2.235 4.93 4.995zm-25.319.013v-.2H.2v.4h.681zm-.681 0H0v.352h.4v-.352zm0 .352v.2h.681v-.4H.2zm.681 0h.2v-.352h-.4v.352zm9.58-.352v-.2H9.78v.4h.681zm-.681 0h-.2v.352h.4v-.352zm0 .352v.2h.681v-.4H9.78zm.681 0h.2v-.352h-.4v.352zm-5.13-5.56v-.2C2.385 18.005 0 20.438 0 23.4h.4c0-2.747 2.211-4.995 4.93-4.995zM.2 23.4v.2h.681v-.4H.2zm.681 0h.2c0-2.368 1.904-4.305 4.25-4.305v-.4c-2.572 0-4.65 2.122-4.65 4.705zm4.45-4.505v.2c2.345 0 4.249 1.937 4.249 4.305h.4c0-2.583-2.078-4.705-4.65-4.705zM9.78 23.4v.2h.681v-.4H9.78zm.681 0h.2c0-2.976-2.399-5.395-5.33-5.395v.4c2.706 0 4.93 2.236 4.93 4.995zM13.2 5.746v-.2c-2.959 0-5.33 2.405-5.33 5.394h.4c0-2.773 2.197-4.994 4.93-4.994zM8.07 10.94v.2h.668v-.4h-.669zm.668 0h.2c0-2.38 1.916-4.318 4.262-4.318v-.4c-2.571 0-4.662 2.121-4.662 4.718zM13.2 6.422v.2c2.345 0 4.25 1.937 4.25 4.318h.4c0-2.596-2.078-4.718-4.65-4.718zm4.45 4.518v.2h.68v-.4h-.68zm.68 0h.2c0-2.99-2.385-5.394-5.33-5.394v.4c2.72 0 4.93 2.222 4.93 4.994zm-3.42-8.319h-.2c0 .854-.689 1.545-1.51 1.545v.4c1.049 0 1.91-.877 1.91-1.945zM13.2 4.366v-.2c-.823 0-1.523-.693-1.523-1.545h-.4c0 1.07.876 1.945 1.923 1.945zm-1.723-1.745h.2c0-.85.685-1.531 1.523-1.531v-.4c-1.06 0-1.923.86-1.923 1.931zM13.2.89v.2c.835 0 1.51.691 1.51 1.531h.4c0-1.054-.848-1.931-1.91-1.931zm2.392 1.731h.2C15.792 1.174 14.636 0 13.2 0v.4c1.21 0 2.192.99 2.192 2.221zM13.2.2V0a2.615 2.615 0 0 0-2.605 2.621h.4C10.995 1.391 11.99.4 13.2.4zm-2.405 2.421h-.2c0 1.448 1.17 2.635 2.605 2.635v-.4c-1.21 0-2.205-1.004-2.205-2.235zM13.2 5.056v.2c1.437 0 2.592-1.189 2.592-2.635h-.4c0 1.233-.983 2.235-2.192 2.235zm9.58 10.037h-.2c0 .852-.688 1.545-1.524 1.545v.4c1.061 0 1.924-.876 1.924-1.945zm-1.724 1.745v-.2c-.834 0-1.51-.69-1.51-1.545h-.4c0 1.067.847 1.945 1.91 1.945zm-1.71-1.745h.2c0-.851.687-1.531 1.51-1.531v-.4c-1.047 0-1.91.862-1.91 1.931zm1.71-1.731v.2c.826 0 1.524.682 1.524 1.531h.4a1.936 1.936 0 0 0-1.924-1.931zm2.418 1.731h.2a2.615 2.615 0 0 0-2.604-2.621v.4c1.21 0 2.204.992 2.204 2.221zm-2.404-2.421v-.2c-1.436 0-2.592 1.174-2.592 2.621h.4c0-1.23.982-2.221 2.192-2.221zm-2.392 2.421h-.2c0 1.446 1.154 2.635 2.592 2.635v-.4c-1.209 0-2.192-1.002-2.192-2.235zm2.392 2.435v.2c1.435 0 2.604-1.187 2.604-2.635h-.4c0 1.231-.995 2.235-2.204 2.235zM7.04 15.093h-.2c0 .855-.676 1.545-1.51 1.545v.4c1.064 0 1.91-.878 1.91-1.945zm-1.71 1.745v-.2a1.54 1.54 0 0 1-1.523-1.545h-.4c0 1.069.862 1.945 1.924 1.945zm-1.723-1.745h.2c0-.85.686-1.531 1.524-1.531v-.4c-1.06 0-1.924.86-1.924 1.931zm1.724-1.731v.2c.835 0 1.51.679 1.51 1.531h.4a1.916 1.916 0 0 0-1.91-1.931zm2.391 1.731h.2c0-1.447-1.156-2.621-2.591-2.621v.4c1.21 0 2.191.99 2.191 2.221zm-2.391-2.421v-.2c-1.436 0-2.592 1.174-2.592 2.621h.4c0-1.23.982-2.221 2.192-2.221zm-2.392 2.421h-.2c0 1.446 1.155 2.635 2.592 2.635v-.4c-1.209 0-2.192-1.002-2.192-2.235zm2.392 2.435v.2c1.436 0 2.591-1.189 2.591-2.635h-.4c0 1.233-.983 2.235-2.191 2.235zm17.048 4.843-.15-.133c-2.223 2.517-5.443 4.113-9.016 4.113v.4c3.696 0 7.022-1.651 9.316-4.248zm-9.166 4.18v-.2c-3.573 0-6.806-1.583-9.028-4.112l-.15.132-.15.132c2.293 2.611 5.634 4.248 9.328 4.248zm-9.178-4.18v-.2h-.869v.4h.869zm-.869 0-.156.125C5.425 25.49 9.102 27.4 13.213 27.4V27c-3.984 0-7.55-1.85-9.891-4.755zM13.213 27.2v.2c4.112 0 7.776-1.91 10.19-4.904l-.156-.125-.155-.126C20.749 25.15 17.198 27 13.213 27zm10.034-4.83v-.2h-.868v.4h.868zM.855 14.066h.2c0-5.35 3.405-9.89 8.11-11.58l-.067-.188-.067-.189A12.7 12.7 0 0 0 .655 14.065zM9.098 2.297h.2v-.69h-.4v.69zm0-.69-.063-.19C3.798 3.175 0 8.174 0 14.065h.4C.4 8.35 4.084 3.501 9.162 1.796zM.2 14.065H0c0 1.47.258 2.899.691 4.216l.19-.063.19-.063a13.1 13.1 0 0 1-.671-4.09zm.681 4.153v.2h.682v-.4H.88zm.682 0 .188-.068a12 12 0 0 1-.71-4.085h-.4c0 1.485.258 2.9.734 4.22zm24.624-4.153h-.2c0 1.424-.25 2.81-.659 4.092l.19.061.191.06a13.9 13.9 0 0 0 .678-4.213zm-.668 4.153v-.2h-.695v.4h.695zm-.695 0 .188.068a12.4 12.4 0 0 0 .733-4.22h-.4c0 1.437-.25 2.807-.71 4.084zm.721-4.153h.2c0-5.524-3.502-10.21-8.362-11.957l-.068.189-.068.188c4.706 1.69 8.098 6.229 8.098 11.58zm-8.23-11.768h.2v-.69h-.4v.69zm0-.69-.064.19C22.329 3.513 26 8.35 26 14.064h.4c0-5.89-3.784-10.876-9.02-12.648z" mask="url(#a)"/></svg>